<?xml version="1.0" encoding="UTF-8"?>
<svg id="Layer_1" xmlns="http://www.w3.org/2000/svg" xmlns:xlink="http://www.w3.org/1999/xlink" viewBox="0 0 250.09 109.01">
  <defs>
    <style>
      .cls-1 {
        fill: none;
      }

      .cls-2 {
        fill: #b46e44;
      }

      .cls-3 {
        fill: #3aaa4e;
      }

      .cls-4 {
        fill: #a2cc9d;
      }

      .cls-5 {
        fill: #3aaa50;
      }

      .cls-6 {
        fill: #3dc0c3;
      }

      .cls-7 {
        fill: #d22530;
      }

      .cls-8 {
        fill: #ef3e42;
      }

      .cls-9 {
        clip-path: url(#clippath-1);
      }

      .cls-10 {
        fill: #fff;
      }

      .cls-11 {
        fill: #75ba74;
      }

      .cls-12 {
        fill: #935c3e;
      }

      .cls-13 {
        fill: #363432;
      }

      .cls-14 {
        clip-path: url(#clippath);
      }
    </style>
    <clipPath id="clippath">
      <rect class="cls-1" width="250.09" height="109.01"/>
    </clipPath>
    <clipPath id="clippath-1">
      <rect class="cls-1" width="250.09" height="109.01"/>
    </clipPath>
  </defs>
  <polygon class="cls-3" points="231.65 88.56 215.96 72.87 196.66 72.87 196.66 71.87 216.37 71.87 232.36 87.86 231.65 88.56"/>
  <g class="cls-14">
    <path class="cls-10" d="M229.19,90.72c1.47,1.47,3.85,1.47,5.32,0s1.47-3.85,0-5.32c-1.47-1.47-3.85-1.47-5.32,0-1.47,1.47-1.47,3.85,0,5.32"/>
    <path class="cls-4" d="M247.9,58.5c.24-.52.38-1.11.27-1.71-.1-.52-.38-.93-.81-1.3-.76-.65-2.02-1.15-3.66-1.79-2.57-1.02-4.15-.86-4.69-.78-.21.03-.4.06-.59.1-.86-.68-1.87-1.51-2.93-2.53-.37-.35-.75-.69-1.14-1.01.23-.02.47-.04.72-.05,1.44-.1,3.89-.25,6.14.17,4.17.77,6.27,3.24,6.55,3.68.02.03.05.08.07.12.35.65.77,1.71.66,3.04-.07.8-.3,1.49-.59,2.07"/>
    <path class="cls-4" d="M230.12,66.94c-.55-.77-1.17-1.7-1.81-2.78-.24-.41-1.16-1.98-2.14-4.25-.59-1.37-1.14-3.14-2.23-6.68,0,0-.23-.75-.44-2.56-.1-.95-.1-1.49.24-2,.29-.44.7-.69.98-.82.31.1.88.29,1.55.6.54.25,1.05.53,1.53.83-.02.28,0,.63.06,1.02.08.5.22.92.36,1.23.17-.14.43-.34.75-.55.21-.13.43-.27.66-.39,1.05.87,1.98,1.81,2.85,2.71-.1,0-.2,0-.3,0-.6.22-1.79.75-2.83,1.9-.22.24-1.25,1.41-1.61,3.2-.34,1.72.14,2.99,1.11,5.55.52,1.35.85,2.23,1.27,2.98"/>
    <path class="cls-11" d="M247.84,63.99c-.77-2.28-1.16-3.07-1.49-3.53.04-.03.11-.08.17-.13.03-.03.07-.06.11-.1,0,0,0,0,0,0,.04-.05.1-.09.15-.15.04-.04.09-.09.13-.14.05-.06.1-.12.16-.18,0,0,0,0,0,0,0,0,0,0,0,0,.02-.02.03-.04.04-.06.05-.06.1-.13.16-.2.01-.02.03-.04.04-.06.03-.04.06-.08.09-.12.09-.12.17-.25.25-.39t0-.01s.01-.01.02-.02c.02-.04.04-.08.07-.12.04-.07.08-.14.11-.22,0,0,.01-.02.01-.03.29-.58.52-1.27.59-2.07.1-1.34-.32-2.4-.66-3.04-.02-.04-.05-.08-.07-.12.29.39.62.91.91,1.52.34.7.5,1.28.63,1.74.15.55.31,1.09.37,1.77.13,1.3-.13,2.34-.23,2.7-.39,1.41-1.11,2.42-1.6,2.98"/>
    <path class="cls-4" d="M244.49,80.62c1.58-.71,2.58-1.62,3.29-2.31.92-.88,1.56-1.49,1.97-2.53.37-.93.35-1.69.32-2.82-.02-.66-.11-1.67-.75-4.12-.38-1.44-.7-2.46-1.12-3.74-.13-.41-.26-.77-.37-1.11-.77-2.28-1.17-3.07-1.49-3.53-.07-.1-.13-.18-.2-.26-.61-.76-1.3-1.33-1.79-1.75-.11-.09-.24-.2-.5-.39-.37-.28-.99-.72-2.2-1.57-.18-.12-.35-.24-.5-.35-.14.24-.4.47-.44.5-.61.51-1.34.57-1.75.59-1.16.05-2.07-.34-2.29-.44-.28-.13-.56-.28-.82-.46-.61-.4-1.2-.89-1.8-1.45-.07,0-.14-.01-.21-.02-.74.36-2.12,1.17-2.98,2.69-.91,1.61-.74,3.12-.51,5.14.07.58.22,1.81.75,3.27.23.63.53,1.32.92,2,.19.33.69,1.15,1.33,2.12,0,0,1.02,1.54,1.6,3.27.08.24.22.72-.02.99-.24.27-.63.09-.88.37-.32.35-.04,1.05.03,1.22.09.22.2.39.34.56.1.13.23.26.36.39.78.77,1,.81,1.48,1.28.7.68.58.91,1.38,1.82.26.29.71.84,1.2,1.12,1.97,1.14,4.72-.09,5.66-.51M243.44,59.96c-.12-.26.07-.5.37-.54.26-.04.54.06.68.24.15.2.11.46-.16.59-.32.14-.75,0-.89-.29M235.84,67.85c-.11-.27.03-.61.3-.76.29-.16.64-.06.76.22.13.29-.02.65-.33.8-.3.14-.63.02-.74-.26M239.58,80.4c-.14-.27-.03-.61.27-.76.31-.15.68-.03.82.27.13.29-.02.62-.32.75-.29.12-.63.01-.77-.25"/>
    <path class="cls-5" d="M243.87,58.06c-.37-.28-.99-.72-2.2-1.57-.18-.12-.35-.24-.5-.35.02-.03.03-.06.05-.09.26-.66-.75-1.42-2.37-2.69.63.23,1.4.59,2.17,1.15,1.67,1.21,2.48,2.7,2.85,3.54"/>
    <path class="cls-5" d="M236.58,68.1c-.3.14-.63.02-.74-.26-.11-.27.03-.61.3-.76.29-.16.64-.06.76.22.13.29-.02.65-.33.8"/>
    <path class="cls-5" d="M243.44,59.96c-.12-.26.07-.49.37-.54.26-.04.54.06.68.24.15.2.11.46-.16.58-.32.15-.75,0-.89-.29"/>
    <path class="cls-5" d="M240.35,80.65c-.29.12-.63.01-.77-.25-.14-.27-.03-.61.28-.77.31-.15.68-.03.82.27.13.29-.02.62-.32.75"/>
    <path class="cls-10" d="M212.7,99.41c1.99-.6,3.12-2.69,2.52-4.68-.6-1.99-2.69-3.12-4.68-2.52-1.99.6-3.12,2.69-2.52,4.68.6,1.99,2.69,3.12,4.68,2.52"/>
    <path class="cls-10" d="M191.02,41.03c1.94-.73,2.92-2.9,2.19-4.85-.73-1.94-2.9-2.92-4.85-2.19-1.94.73-2.92,2.9-2.19,4.84.73,1.94,2.9,2.92,4.85,2.19"/>
    <path class="cls-13" d="M65.05,55.74c-.16,0-.32-.08-.42-.22-2.46-3.65-3.39-6.97-2.77-9.86.18-.85.45-1.72.7-2.56.72-2.39,1.4-4.65.51-6.72-.67-1.56-1.87-2.24-3.14-2.97-1.4-.8-3-1.71-3.84-3.9-.08-.21-.16-.43-.22-.66-.95-.55-1.81-1.32-2.43-2.34-1.72-2.8-1.15-6.61,1.38-9.26.19-.2.51-.21.71-.02.2.19.21.51.02.71-2.18,2.28-2.71,5.67-1.25,8.05.35.58.8,1.06,1.3,1.46-.28-2.35.3-4.9,1.84-5.67.82-.41,1.91-.3,2.6.25.73.59,1,1.59.8,2.59.63-.08,1.27.07,1.79.47,1.01.78,1.08,2.25.56,3.22-.61,1.14-1.92,1.36-2.54,1.46-1.06.18-2.3.07-3.49-.35.74,1.65,1.98,2.36,3.29,3.11,1.36.78,2.77,1.58,3.57,3.44,1.03,2.4.27,4.95-.47,7.4-.25.82-.5,1.67-.68,2.48-.56,2.58.35,5.72,2.62,9.09.15.23.09.54-.14.69-.09.06-.18.08-.28.08ZM56.72,28.16c1.25.62,2.63.81,3.74.63.51-.08,1.45-.24,1.83-.95.27-.49.36-1.45-.29-1.95-.51-.39-1.23-.38-1.77.02-.19.14-.46.13-.64-.03-.18-.16-.21-.43-.09-.63.61-.97.42-2.01-.11-2.44-.38-.31-1.05-.37-1.52-.13-1.2.6-1.69,3.2-1.16,5.49Z"/>
    <path class="cls-13" d="M87.36,30.15c-3.43,3.63-7.54,5.1-10.24,5.69h-.04c-.08.03-.24.07-.47.11-.25.04-.57.08-.96.11-.27.01-.58,0-.91,0l.36-.42c-.05-.08-.08-.17-.1-.26-.07-.45.24-.88.7-.96,2.34-.38,6.82-1.57,10.44-5.4,1.65-1.76,2.92-3.81,3.76-6.12.16-.44.64-.67,1.07-.5.43.16.65.64.5,1.07-.91,2.53-2.31,4.79-4.12,6.7"/>
    <path class="cls-13" d="M75.29,36.56c-.18,0-.37,0-.57-.01l-1.04-.04.85-.98s-.01-.06-.02-.09c-.11-.71.39-1.39,1.11-1.52,2.29-.37,6.65-1.54,10.16-5.26,1.61-1.72,2.85-3.72,3.66-5.95.12-.34.37-.61.7-.76.32-.15.69-.16,1.02-.04.33.12.6.37.75.69.15.32.17.69.04,1.02-.93,2.57-2.35,4.89-4.23,6.87h0c-3.49,3.69-7.63,5.21-10.49,5.83-.15.04-.32.08-.55.11-.26.04-.6.09-1,.11-.12,0-.25,0-.38,0ZM90.69,22.83s-.09,0-.13.03c-.08.04-.14.11-.18.2-.86,2.36-2.16,4.48-3.87,6.3-3.72,3.93-8.31,5.17-10.73,5.56-.18.03-.31.21-.28.39l.16.26c.34-.02.63-.06.85-.1.19-.03.33-.06.41-.08,2.81-.61,6.76-2.06,10.07-5.56h0c1.78-1.88,3.13-4.08,4.01-6.53.03-.09.03-.17,0-.25-.04-.08-.1-.14-.19-.17-.04-.02-.08-.02-.12-.02Z"/>
    <path class="cls-13" d="M77.68,32.81l.14.2c.28.4.17.95-.22,1.23l-4.88,3.37c-.4.28-.95.18-1.23-.22l-.14-.2c-.28-.4-.17-.95.22-1.23l4.88-3.37c.4-.28.95-.18,1.23.22"/>
    <path class="cls-13" d="M72.21,38.26c-.08,0-.17,0-.25-.02-.36-.07-.68-.27-.89-.57l-.14-.2c-.21-.3-.29-.67-.22-1.03.07-.36.27-.68.57-.89l4.88-3.37c.3-.21.67-.29,1.04-.22.36.07.68.27.89.57l.14.2c.21.3.29.67.22,1.04-.07.36-.27.68-.57.89l-4.88,3.37c-.23.16-.5.24-.78.24ZM76.95,32.93c-.08,0-.15.02-.22.07l-4.88,3.37c-.08.06-.14.15-.16.25-.02.1,0,.2.06.29l.14.2c.06.08.15.14.25.16.1.02.2,0,.29-.06l4.88-3.37c.08-.06.14-.15.16-.25s0-.2-.06-.29l-.14-.2c-.07-.11-.19-.17-.32-.17Z"/>
    <path class="cls-13" d="M74.65,1.54c-2.46.07-4.81.62-7,1.64-4.78,2.23-7.34,6.1-8.43,8.2-.12.22-.3.36-.53.42l.06.14s-1.65.23-1.51-.24c.08-.26.31-.71.48-1.06.14-.27.25-.47.25-.47,1.31-2.36,4.06-6.2,8.96-8.5,2.4-1.12,4.97-1.72,7.66-1.8.46-.01.84.35.86.81.01.46-.35.84-.81.86"/>
    <path class="cls-13" d="M57.99,12.5c-.81,0-1.01-.24-1.09-.33-.15-.17-.19-.4-.12-.62.09-.28.29-.68.46-1.04l.3-.58c1.24-2.24,4.07-6.32,9.19-8.72,2.46-1.14,5.1-1.77,7.86-1.85.74,0,1.35.56,1.37,1.3.01.35-.12.69-.36.95-.25.26-.58.41-.94.42h0c-2.38.07-4.67.6-6.8,1.6-4.66,2.17-7.13,5.93-8.19,7.98-.09.16-.2.3-.32.41l.15.32-.66.09c-.33.05-.61.06-.84.06ZM57.88,11.49s.09,0,.13,0l-.02-.04.59-.14c.09-.02.15-.08.2-.17,1.12-2.15,3.73-6.12,8.66-8.42,2.25-1.05,4.67-1.62,7.19-1.69.09,0,.18-.04.24-.11.06-.06.09-.15.09-.23,0-.19-.13-.35-.34-.33-2.62.08-5.14.67-7.47,1.75-4.86,2.27-7.56,6.17-8.74,8.28l-.28.55c-.08.16-.18.36-.26.54Z"/>
    <path class="cls-13" d="M61.38,10.02l-.15-.19c-.29-.39-.85-.47-1.24-.17l-4.73,3.57c-.39.29-.47.85-.17,1.24l.14.19c.29.39.85.47,1.24.17l4.74-3.57c.39-.29.47-.85.17-1.24"/>
    <path class="cls-13" d="M55.94,15.5c-.42,0-.83-.19-1.11-.55l-.15-.19c-.46-.61-.34-1.48.27-1.94l4.73-3.57c.29-.22.66-.31,1.02-.26.37.05.69.24.91.54l.15.19c.46.61.34,1.48-.27,1.94l-4.73,3.57c-.25.19-.54.28-.83.28ZM60.53,9.97c-.08,0-.16.03-.23.08l-4.73,3.57c-.08.06-.13.15-.15.25-.01.1.01.2.07.28l.15.19c.13.17.37.2.54.07l4.73-3.57c.17-.12.2-.37.08-.54l-.15-.19c-.06-.08-.15-.13-.25-.15-.02,0-.04,0-.05,0Z"/>
    <path class="cls-13" d="M77.64,30.15l.3.44c.4.59.26,1.4-.33,1.8l-6.62,4.57c-.59.4-1.4.26-1.8-.33l-.3-.44c-.4-.59-.26-1.4.33-1.8l6.62-4.57c.59-.4,1.4-.26,1.8.33"/>
    <path class="cls-13" d="M70.26,37.69c-.11,0-.22,0-.33-.03-.47-.09-.88-.35-1.16-.75l-.3-.44c-.56-.82-.36-1.94.46-2.5l6.62-4.57c.39-.27.87-.38,1.34-.29.47.09.88.35,1.15.74l.3.44c.27.39.37.87.29,1.34-.09.47-.35.88-.75,1.15l-6.62,4.57c-.3.21-.65.32-1.01.32ZM76.57,30.09c-.16,0-.31.05-.45.14l-6.62,4.57c-.36.25-.45.75-.2,1.11l.3.44c.12.17.3.29.51.33.21.04.42,0,.6-.13l6.62-4.57c.36-.25.45-.75.2-1.11l-.3-.44c-.15-.22-.4-.34-.66-.34Z"/>
    <path class="cls-13" d="M64,10.84l-.32-.43c-.43-.57-1.25-.68-1.82-.26l-6.43,4.84c-.57.43-.69,1.25-.26,1.82l.32.43c.43.57,1.25.68,1.82.26l6.43-4.84c.57-.43.68-1.25.26-1.82"/>
    <path class="cls-13" d="M56.54,18.26c-.08,0-.17,0-.26-.02-.48-.07-.9-.31-1.19-.7l-.32-.43c-.29-.38-.41-.85-.34-1.33.07-.48.31-.9.7-1.18l6.43-4.84c.38-.29.85-.41,1.33-.34.48.07.9.31,1.19.7l.32.43c.6.79.44,1.92-.35,2.52l-6.43,4.84c-.31.24-.69.36-1.07.36ZM62.64,10.4c-.17,0-.34.05-.47.16l-6.43,4.84c-.17.13-.28.31-.31.53s.02.42.15.59l.32.43c.13.17.31.28.53.31.21.03.42-.02.59-.15l6.43-4.84c.35-.26.42-.76.16-1.11l-.32-.43c-.13-.17-.31-.28-.53-.31-.04,0-.08,0-.11,0Z"/>
    <path class="cls-13" d="M91.44,22.57l-.92-.38c1.31-3.18,1.59-6.61.78-9.66-1.2-4.53-4.4-7.04-5.45-7.86-3.9-3.05-8.2-3.48-10.38-3.49V.18h.04c2.34,0,6.84.49,10.96,3.71,1.12.87,4.51,3.53,5.8,8.39.86,3.26.57,6.92-.82,10.3Z"/>
    <path class="cls-4" d="M86.72,30.79c-3.43,3.63-7.54,5.1-10.24,5.69h-.04c-.08.03-.24.07-.47.11-.25.04-.57.08-.96.11-.27.01-.58,0-.91,0l.36-.42c-.05-.08-.08-.17-.1-.26-.07-.45.24-.88.7-.96,2.34-.38,6.82-1.57,10.44-5.4,1.65-1.76,2.92-3.81,3.76-6.12.16-.44.64-.67,1.07-.5.43.16.65.64.5,1.07-.91,2.53-2.31,4.79-4.12,6.7"/>
    <path class="cls-13" d="M74.65,37.2c-.18,0-.37,0-.57-.01l-1.03-.04.84-.98s-.01-.06-.02-.09c-.11-.71.39-1.4,1.11-1.52,2.29-.37,6.65-1.54,10.16-5.26,1.61-1.72,2.85-3.72,3.66-5.95.12-.34.37-.61.7-.76.32-.15.69-.16,1.02-.04.33.12.6.37.75.69.15.32.17.69.04,1.02-.93,2.57-2.35,4.89-4.23,6.87h0c-3.49,3.69-7.63,5.21-10.49,5.83-.15.04-.32.08-.55.11-.26.04-.6.09-1,.11-.12,0-.25,0-.39,0ZM90.06,23.46s-.09,0-.13.03c-.08.04-.14.11-.18.2-.86,2.36-2.16,4.48-3.87,6.3-3.72,3.93-8.31,5.17-10.73,5.56-.18.03-.31.21-.28.39l.16.26c.34-.02.63-.06.85-.1.19-.03.33-.06.41-.08,2.81-.61,6.76-2.06,10.07-5.56h0c1.78-1.88,3.13-4.08,4.01-6.53.03-.09.03-.17,0-.25-.04-.08-.11-.14-.19-.18-.04-.02-.08-.02-.12-.02Z"/>
    <path class="cls-6" d="M77.04,33.44l.14.2c.28.4.17.95-.22,1.23l-4.88,3.37c-.4.28-.95.18-1.23-.22l-.14-.2c-.28-.4-.17-.95.22-1.23l4.88-3.37c.4-.28.95-.18,1.23.22"/>
    <path class="cls-13" d="M71.58,38.89c-.08,0-.17,0-.25-.02-.36-.07-.68-.27-.89-.57l-.14-.2c-.21-.3-.29-.67-.22-1.03.07-.36.27-.68.57-.89l4.88-3.37c.3-.21.67-.29,1.04-.22.36.07.68.27.89.57l.14.2c.21.3.29.67.22,1.04-.07.36-.27.68-.57.89l-4.88,3.37c-.23.16-.5.24-.78.24ZM76.31,33.56c-.08,0-.15.02-.22.07l-4.88,3.37c-.08.06-.14.15-.16.25-.02.1,0,.2.06.29l.14.2c.06.08.15.14.25.16.1.02.2,0,.29-.06l4.88-3.37c.08-.06.14-.15.16-.25s0-.2-.06-.29l-.14-.2c-.06-.08-.15-.14-.25-.16-.02,0-.05,0-.07,0Z"/>
    <path class="cls-4" d="M74.02,2.17c-2.46.07-4.81.62-7,1.64-4.78,2.23-7.34,6.1-8.43,8.2-.12.22-.3.36-.53.42l.06.14s-1.65.23-1.51-.24c.08-.26.31-.71.48-1.06.14-.27.25-.47.25-.47,1.31-2.36,4.06-6.2,8.96-8.5,2.4-1.12,4.97-1.72,7.66-1.8.46-.01.84.35.86.81.01.46-.35.84-.81.86"/>
    <path class="cls-13" d="M57.36,13.13c-.81,0-1.01-.24-1.09-.33-.15-.17-.19-.4-.12-.62.09-.28.29-.68.46-1.04l.3-.58c1.24-2.24,4.07-6.32,9.19-8.72C68.55.7,71.2.08,73.96,0c.74.01,1.35.56,1.37,1.3.01.35-.12.69-.36.95-.25.26-.58.41-.94.42h0c-2.38.07-4.67.6-6.8,1.6-4.66,2.17-7.13,5.93-8.19,7.98-.09.16-.2.3-.33.41l.15.32-.66.09c-.33.05-.61.06-.84.06ZM57.25,12.13s.09,0,.13,0l-.02-.04.59-.14c.09-.02.15-.08.2-.17,1.12-2.15,3.73-6.12,8.66-8.42,2.25-1.05,4.67-1.62,7.19-1.69.09,0,.18-.04.24-.11.06-.06.09-.15.09-.23,0-.19-.14-.37-.34-.33-2.62.08-5.14.67-7.47,1.75-4.86,2.27-7.56,6.17-8.74,8.28l-.28.55c-.08.16-.18.36-.26.54Z"/>
    <path class="cls-6" d="M60.74,10.65l-.15-.19c-.29-.39-.85-.47-1.24-.17l-4.73,3.57c-.39.29-.47.85-.17,1.24l.14.19c.29.39.85.47,1.24.17l4.74-3.57c.39-.29.47-.85.17-1.24"/>
    <path class="cls-13" d="M55.31,16.13c-.42,0-.83-.19-1.11-.55l-.15-.19c-.46-.61-.34-1.48.27-1.94l4.73-3.57c.29-.22.66-.31,1.02-.26.37.05.69.24.91.54l.15.19c.46.61.34,1.48-.27,1.94l-4.73,3.57c-.25.19-.54.28-.83.28ZM59.89,10.61c-.08,0-.16.03-.23.08l-4.73,3.57c-.08.06-.13.15-.15.25-.01.1.01.2.07.28l.15.19c.13.17.37.2.54.07l4.73-3.57c.17-.12.2-.37.08-.54l-.15-.19c-.06-.08-.15-.13-.25-.15-.02,0-.04,0-.05,0Z"/>
    <path class="cls-4" d="M77.01,30.78l.3.44c.4.59.26,1.4-.33,1.8l-6.62,4.57c-.59.4-1.4.26-1.8-.33l-.3-.44c-.4-.59-.26-1.4.33-1.8l6.62-4.57c.59-.4,1.4-.26,1.8.33"/>
    <path class="cls-13" d="M69.63,38.32c-.11,0-.22,0-.33-.03-.47-.09-.88-.35-1.16-.75l-.3-.44c-.56-.82-.36-1.94.46-2.5l6.62-4.57c.39-.27.87-.37,1.34-.29.47.09.88.35,1.15.74l.3.44c.27.39.37.87.29,1.34-.09.47-.35.88-.75,1.15l-6.62,4.57c-.3.21-.65.32-1.01.32ZM75.94,30.72c-.16,0-.31.05-.45.14l-6.62,4.57c-.36.25-.45.75-.2,1.11l.3.44c.12.17.3.29.51.33.21.04.42,0,.6-.13l6.62-4.57c.36-.25.45-.75.2-1.11l-.3-.44c-.15-.22-.4-.34-.66-.34Z"/>
    <path class="cls-4" d="M63.36,11.48l-.32-.43c-.43-.57-1.25-.68-1.82-.26l-6.43,4.84c-.57.43-.68,1.25-.26,1.82l.32.43c.43.57,1.25.68,1.81.26l6.43-4.84c.57-.43.68-1.25.26-1.82"/>
    <path class="cls-13" d="M55.91,18.89c-.08,0-.17,0-.26-.02-.48-.07-.9-.31-1.19-.7l-.32-.43c-.29-.38-.41-.85-.34-1.33.07-.48.31-.9.7-1.18l6.43-4.84c.38-.29.85-.41,1.33-.34.48.07.9.31,1.19.7l.32.43c.6.79.44,1.92-.35,2.52l-6.43,4.84c-.31.24-.69.36-1.07.36ZM62,11.04c-.17,0-.34.05-.47.16l-6.43,4.84c-.17.13-.28.31-.31.53s.02.42.15.59l.32.43c.13.17.31.28.53.31.22.03.42-.02.59-.15l6.43-4.84c.35-.26.42-.76.16-1.11l-.32-.43c-.13-.17-.31-.28-.53-.31-.04,0-.08,0-.11,0Z"/>
    <path class="cls-13" d="M90.81,23.21l-.92-.38c1.31-3.18,1.59-6.61.78-9.66-1.2-4.53-4.4-7.04-5.45-7.86-3.91-3.05-8.16-3.52-10.38-3.49V.81h.04c2.34,0,6.84.49,10.96,3.71,1.12.87,4.51,3.53,5.8,8.39.86,3.26.57,6.92-.82,10.3Z"/>
    <path class="cls-2" d="M61.95,57c.6.82,1.58,2.34,2.75,4.15,1.11,1.71,2,3.14,2.6,4.11-.36-.08-.73-.18-1.11-.26-.37-.09-.75-.18-1.12-.28.1.42.31,1.09.77,1.78,1.3,1.92,3.23,1.77,4.46,3.48.88,1.18,1.15,2.48,1.23,3.41-.88-.44-1.76-.88-2.64-1.31.87,1.54,2.4,4.85,1.7,8.77-.14.78-.35,1.48-.59,2.11-.62-.5-1.24-1.01-1.86-1.52-.74,1.98-2.07,4.78-4.5,7.52-1.26,1.42-2.54,2.52-3.68,3.36-.22-.73-.42-1.4-.63-2.1-1.64,1.13-2.8,2.21-3.54,2.96-3.49,3.56-4.24,6.59-7.59,7.93-.87.35-1.64.47-2.11.52-.19-.38-.39-.76-.58-1.14-.7.71-2.45,2.31-5.16,2.78-1.25.21-2.32.14-3.1,0,.19-.29.4-.66.58-1.1.2-.51.31-.97.38-1.34-.79.51-2.11,1.18-3.81,1.28-4.48.27-7.42-3.64-7.68-4.01-.11.47-.33,1.18-.83,1.92-.67.99-1.49,1.54-1.95,1.8.09-.58.15-1.5-.13-2.57-.47-1.78-1.6-2.85-2.08-3.26-.2.34-.41.78-.58,1.32-.21.61-.31,1.18-.36,1.63-1.7-1.46-2.31-2.85-2.57-3.81-.59-2.29.45-3.72-.08-6.42-.3-1.58-.99-2.79-1.48-3.51-.41.98-.81,1.95-1.22,2.94-.33-.55-.74-1.33-1.07-2.32-.19-.57-.35-1.06-.43-1.7-.24-2,.64-3.05,0-3.91-.13-.17-.43-.49-.65-.7-.08-.08-.39-.37-.78-.69-.91-.76-1.7-1.15-2.43-1.66-.83-.55-1.87-1.32-2.73-2.62-1.66-2.52-.95-5.46-.9-5.67.23-.99.67-1.96,1.44-2.8,1.73-1.89,4.62-2.73,6.81-1.92,1.29.48,1.34,1.16,2.52,1.48,1.78.47,3.61-.54,4.96-1.56-.99.11-2.74.19-4.66-.57-.02,0-.03-.01-.05-.02-.79-.31-1.43-.7-1.93-1.06,3.54-1.43,7.07-2.87,10.61-4.3-.14-.14-.27-.29-.43-.44-.37-.39-.74-.77-1.11-1.16,3.3-1.96,7.19-2.9,11.02-2.68.84.04,1.69.15,2.52.31-.13-.2-.25-.4-.37-.6-.45-.71-.88-1.43-1.32-2.15,1.48-.12,3.39-.13,5.58.2,2.26.35,4.14.97,5.53,1.53-.22.45-.52.96-.92,1.51-.32.43-.64.78-.93,1.08.15-.02.38-.06.65-.15,0,0,.76-.24,1.42-.82,1.17-1.03,1.67-3.44,2.77-4.21,2.15-1.49,8.24,2.12,11.4,6.46"/>
    <path class="cls-12" d="M38.76,103.9c-.54,0-1.07-.04-1.59-.13l-.75-.13.42-.64c.21-.32.39-.67.53-1.02.02-.05.04-.1.06-.15-.96.45-1.97.71-3,.78-3.69.22-6.36-2.19-7.51-3.47-.16.41-.37.8-.61,1.16-.69,1.01-1.53,1.62-2.12,1.96l-.9.51.16-1.02c.12-.8.08-1.59-.12-2.36-.3-1.14-.89-1.98-1.45-2.57-.09.21-.18.43-.25.65-.16.48-.27.97-.34,1.53l-.11.94-.72-.61c-1.41-1.21-2.33-2.58-2.73-4.06-.32-1.25-.2-2.27-.08-3.26.12-.95.24-1.93-.01-3.2-.16-.86-.47-1.71-.91-2.51l-1.23,2.95-.51-.85c-.46-.76-.83-1.58-1.11-2.42-.2-.6-.37-1.11-.45-1.8-.12-1,.02-1.77.13-2.39.12-.67.17-1.01-.04-1.28-.09-.12-.35-.4-.6-.65-.08-.08-.37-.35-.75-.66-.57-.48-1.09-.8-1.59-1.12-.28-.17-.54-.34-.8-.52-.92-.61-1.98-1.42-2.86-2.75-1.75-2.67-1.05-5.72-.96-6.06.27-1.17.8-2.19,1.55-3.01,1.9-2.07,4.99-2.93,7.35-2.04.71.26,1.09.58,1.43.86.31.26.55.47,1.05.6.89.24,1.91.06,3.05-.53-1.07-.06-2.09-.28-3.06-.66-.77-.31-1.46-.69-2.09-1.14l-.73-.53,10.77-4.36-1.45-1.53.54-.32c3.37-2,7.38-2.98,11.3-2.75.49.02.99.07,1.49.14-.24-.38-.46-.74-.68-1.1l-.86-1.41.81-.06c1.91-.15,3.82-.08,5.69.2,1.93.3,3.82.82,5.64,1.56l.5.2-.24.48c-.18.36-.38.71-.6,1.05.01-.01.02-.02.03-.03.5-.44.89-1.23,1.27-1.99.45-.92.88-1.78,1.55-2.25,2.57-1.78,8.9,2.19,12.09,6.57h0c.61.83,1.61,2.38,2.77,4.17,1.11,1.72,2,3.15,2.6,4.12l.62,1.01-1.57-.36c-.23-.05-.46-.11-.7-.16l-.26-.06c.12.28.26.55.43.81.6.89,1.36,1.28,2.16,1.7.8.42,1.63.85,2.29,1.77.75,1.01,1.2,2.24,1.32,3.65l.08.89-2.1-1.04c.91,2.03,1.61,4.73,1.07,7.74-.13.74-.34,1.48-.61,2.2l-.25.65-1.86-1.52c-1.05,2.6-2.51,4.96-4.34,7.03-1.13,1.27-2.39,2.42-3.75,3.43l-.57.42-.63-2.12c-1.05.76-2.02,1.6-2.9,2.5-1.31,1.33-2.23,2.6-3.05,3.72-1.34,1.85-2.51,3.44-4.71,4.33-.71.28-1.46.47-2.24.56l-.34.04-.43-.85c-1.1.98-2.74,2.06-4.94,2.45-.56.09-1.12.14-1.68.14ZM38.07,102.87c.61.05,1.37.04,2.21-.1,2.29-.4,3.92-1.66,4.89-2.64l.49-.5.73,1.44c.57-.09,1.11-.24,1.63-.44,1.94-.78,2.97-2.19,4.28-3.99.84-1.15,1.78-2.45,3.14-3.83,1.08-1.1,2.3-2.12,3.61-3.02l.57-.39.62,2.07c1.09-.86,2.11-1.81,3.03-2.85,1.9-2.15,3.38-4.62,4.4-7.36l.24-.65,1.84,1.5c.14-.45.25-.9.33-1.36.62-3.45-.55-6.49-1.65-8.44l-.79-1.41,3.23,1.61c-.19-.84-.52-1.59-1-2.23-.53-.73-1.21-1.09-1.94-1.47-.84-.44-1.79-.93-2.53-2.03-.39-.59-.67-1.25-.84-1.95l-.19-.81,1.85.47c-.53-.85-1.19-1.9-1.96-3.08-1.15-1.78-2.14-3.31-2.73-4.12h0c-3.22-4.42-9.04-7.5-10.71-6.34-.46.32-.85,1.11-1.22,1.87-.42.85-.86,1.73-1.5,2.3-.73.64-1.56.91-1.59.92-.31.1-.57.14-.73.17l-1.44.19,1.01-1.04c.34-.35.63-.68.89-1.03.22-.31.43-.62.62-.95-1.59-.61-3.23-1.04-4.9-1.3-1.53-.23-3.08-.32-4.64-.25h0c.29.48.58.96.88,1.43.14.24.25.42.36.59l.65.99-1.16-.23c-.81-.16-1.64-.26-2.45-.3-3.52-.2-7.11.61-10.19,2.3l.67.7c.15.15.29.29.43.45l.5.53-10.39,4.21c.33.19.68.35,1.03.5,1.4.55,2.89.74,4.47.56l1.81-.2-1.45,1.1c-2,1.51-3.81,2.07-5.39,1.65-.71-.19-1.08-.5-1.43-.8-.3-.25-.58-.49-1.13-.69-1.97-.74-4.66.03-6.26,1.78-.64.7-1.08,1.56-1.32,2.57-.03.13-.71,2.93.83,5.28.78,1.19,1.75,1.92,2.59,2.48.25.18.51.33.77.5.51.32,1.08.68,1.71,1.2.4.34.73.64.81.72.18.18.53.54.69.76.48.64.36,1.33.23,2.06-.1.58-.22,1.24-.12,2.09.07.59.22,1.03.4,1.59.15.46.33.9.54,1.33l1.15-2.77.54.71c.78,1.13,1.32,2.41,1.56,3.7.28,1.42.14,2.53.02,3.51-.12.98-.22,1.83.05,2.88.28,1.04.87,2.03,1.75,2.93.06-.27.14-.53.22-.79.17-.5.38-.98.63-1.41l.3-.52.46.39c.77.66,1.79,1.8,2.24,3.51.15.55.22,1.11.22,1.68.32-.27.66-.63.96-1.07.35-.53.61-1.12.75-1.75l.25-1.07.65.89c.3.42,3.05,4.06,7.25,3.8,1.25-.08,2.45-.48,3.57-1.21l.95-.61-.18,1.11c-.08.5-.22.98-.41,1.45-.07.17-.15.34-.23.51Z"/>
    <path class="cls-2" d="M51.28,79.59c.31.81-.01,1.27-.01,1.27-.34.28-.89.69-1.56,1.08-.44.25-.94.49-1.48.67-.42.15-.85.25-1.31.32-1,.14-1.6-.03-1.86-.11-.86-.28-1.42-.82-1.68-1.14.05.39.1,1.05-.15,1.81-.28.87-.78,1.4-1.12,1.74-.49.49-1.04.87-1.58,1.16-.32.18-.65.32-.96.43-.78.29-1.45.42-1.82.48,0,0-.63-.06-1.07-.99-.93-1.97-1.87-3.93-2.8-5.9,0,0-2.23-6.88,4.17-9.94.54-.25,2.18-1.01,4.27-.82,3.67.35,5.77,3.38,6.09,3.84.02.04.1.21.12.25.89,1.89,1.78,3.77,2.68,5.64.03.08.07.14.09.2"/>
    <path class="cls-12" d="M37.75,87.79h-.06c-.09-.01-.93-.12-1.48-1.27l-2.8-5.9c-.05-.13-2.31-7.4,4.41-10.6.57-.27,2.31-1.07,4.53-.87,3.69.35,5.87,3.2,6.45,4.06l.16.33c.89,1.88,1.78,3.76,2.68,5.63l-.4.33.45-.22.06.13c.39,1.03-.03,1.66-.07,1.73l-.09.1c-.35.29-.92.72-1.63,1.12-.5.29-1.03.53-1.57.71-.44.16-.9.27-1.4.34-.77.11-1.47.07-2.08-.13-.39-.13-.73-.3-1.02-.5-.03.26-.08.54-.18.84-.32,1-.92,1.61-1.24,1.94-.48.48-1.03.89-1.7,1.25-.32.18-.67.33-1.03.46-.84.32-1.56.45-1.92.5h-.06ZM41.63,70.12c-1.66,0-2.93.59-3.38.81-5.92,2.82-3.99,9.07-3.91,9.33l2.78,5.83c.24.51.53.65.64.69.34-.05.93-.18,1.63-.44.32-.11.62-.25.89-.4.59-.31,1.06-.67,1.47-1.07.3-.3.75-.76,1-1.54.21-.65.17-1.22.13-1.59l-.2-1.65,1.08,1.27c.28.32.75.76,1.46.99.46.15,1.01.18,1.63.09.44-.06.83-.16,1.21-.29.48-.17.96-.38,1.4-.64.63-.36,1.14-.74,1.42-.97.03-.09.1-.35-.06-.76-.04-.09-.07-.14-.09-.2-.89-1.84-1.78-3.72-2.67-5.61l-.12-.26c-.48-.7-2.43-3.25-5.68-3.55-.21-.02-.42-.03-.62-.03Z"/>
    <path class="cls-8" d="M51.64,80.32s1.52,4.69-1.55,8.04h0c-.32.35-.69.69-1.12,1.01-.44.32-.94.62-1.5.9-.89.43-1.74.67-2.54.78-.54.08-1.05.09-1.54.05-3.97-.28-6.28-3.85-6.28-3.85,0,0-.13-.3-.36-.77.43.77.98.82.98.82.37-.05,1.05-.18,1.82-.48.31-.11.64-.25.96-.43.15-.08.3-.17.45-.26h0c.4-.25.78-.55,1.13-.9.34-.34.84-.87,1.12-1.74.25-.75.19-1.42.15-1.81.27.31.82.86,1.68,1.14.26.09.86.25,1.86.11.46-.06.89-.16,1.31-.31.54-.19,1.05-.42,1.48-.68.68-.39,1.23-.8,1.56-1.08,0,0,.32-.45.01-1.27.08.17.15.31.21.43.09.19.14.3.14.3"/>
    <path class="cls-7" d="M43.94,91.61c-.2,0-.4,0-.59-.03-4.16-.3-6.55-3.92-6.65-4.08-.04-.07-.17-.36-.39-.82l.89-.46c.23.4.47.52.57.56.3-.05.91-.17,1.63-.44.32-.11.62-.25.9-.4.13-.08.27-.15.42-.25l.09-.04c.32-.21.66-.48.96-.79.26-.26.74-.74,1-1.54.21-.63.18-1.18.13-1.6l-.19-1.64,1.07,1.25c.23.26.72.74,1.46.99.46.15,1.01.18,1.64.09.45-.06.84-.16,1.21-.29.5-.17.96-.38,1.4-.64.6-.34,1.09-.71,1.42-.97.03-.09.1-.35-.06-.77l.92-.39.21.42c.09.19.14.29.14.29l.03.07c.06.2,1.5,4.79-1.45,8.29h0s-.21.24-.21.24c-.36.39-.76.75-1.19,1.07-.49.36-1.01.67-1.58.94-.9.43-1.8.7-2.69.82-.35.05-.71.08-1.06.08ZM38.13,87.73c.88.98,2.73,2.67,5.29,2.86.47.04.95.03,1.43-.05.79-.11,1.59-.35,2.4-.73.52-.25.98-.53,1.42-.85.33-.24.64-.51.91-.8l.13-.14c2.04-2.22,1.9-5.13,1.66-6.6-.35.28-.84.62-1.42.95-.49.28-1.02.52-1.57.71-.43.16-.89.27-1.4.34-.78.11-1.48.07-2.09-.13-.39-.13-.73-.3-1.01-.49-.03.26-.09.55-.18.84-.33,1.03-.94,1.64-1.24,1.94-.35.36-.75.68-1.22.97-.16.1-.32.19-.47.28-.33.18-.68.33-1.04.46-.64.24-1.21.38-1.6.45Z"/>
    <path class="cls-12" d="M43.37,82.18c-.19,0-.37-.11-.45-.29l-1.05-2.21c-.12-.25-.01-.55.24-.67.25-.12.55-.01.67.24l1.05,2.21c.12.25.01.55-.24.67-.07.03-.14.05-.21.05Z"/>
    <path class="cls-13" d="M44.44,73.8c-.89-1.15-3.38-.66-4.8.02-1.43.68-3.38,2.31-3.05,3.71.31,1.34,2.67,2.42,5.75,1.94,2.3-2.08,2.94-4.58,2.1-5.67"/>
    <path class="cls-12" d="M22.7,67.56c-1.12.84-1.71,1.47-1.71,1.47-.06.06-.2.22-.43.25-.36.05-.76-.26-.88-.53-.29-.68.82-1.86,1.68-2.5,1.88-1.4,4.39-1.57,4.82-.94.03.05.23.34.13.59-.07.17-.25.25-.33.29-1.25.54-2.42.73-3.28,1.37"/>
    <path class="cls-10" d="M32.26,72.08c.62,1.59.31,3.28-.56,4.56-.12,0-.24-.01-.36-.02-.36-.02-.75-.01-1.11.01-.38.02-.74.05-1.1.1-.7.09-1.38.24-2.06.44-.75.22-1.48.5-2.17.85-.43.22-.86.47-1.27.74,0,0-1.42-1.53-2.02-3.6-.35-1.2-.43-2.59.19-3.99,1.06-2.4,3.83-2.83,4.03-2.87,2.18-.34,4.44.7,5.81,2.65.26.34.48.72.64,1.13"/>
    <path class="cls-13" d="M32.26,72.09c.62,1.59.31,3.27-.55,4.56-2.34-.15-4.72.34-6.82,1.39-1.67-1.88-2.21-4.31-1.39-6.28.14-.35.78-1.83,2.32-2.47,2.15-.9,5.37.1,6.44,2.81"/>
    <path class="cls-12" d="M23.63,79.27c-.16,0-.32-.08-.42-.22-.15-.23-.09-.54.14-.69.41-.27.86-.53,1.32-.76.53-.26,1.08-.49,1.62-.68.16-.06.32-.11.48-.16.17-.05.33-.1.49-.14l.93-.22c1.12-.22,2.06-.27,2.65-.27h.2c.31,0,.53,0,.7.02.66.04,1.27.13,1.88.25.27.06.44.32.39.59-.06.27-.32.45-.59.39-.75-.16-1.35-.21-1.74-.23-.15-.01-.36-.02-.61-.02h-.15c-.62,0-1.49.05-2.54.25l-.87.2c-.14.04-.29.08-.45.13-.15.05-.3.09-.45.15-.5.17-1.01.39-1.5.63-.43.21-.84.45-1.21.7-.09.06-.18.08-.28.08Z"/>
    <path class="cls-10" d="M55.38,66.3c-.49.08-.96.19-1.43.32-.75.22-1.48.5-2.17.85-.63.32-1.24.67-1.81,1.08-.11.07-.22.15-.33.24-.18.14-.37.28-.54.44-.29.24-.57.48-.82.75-.08.09-.18.18-.27.26-1.51-.35-2.88-1.38-3.5-2.97-.16-.41-.26-.84-.31-1.25,0-.09-.02-.18-.02-.26-.23-2.27.71-4.45,2.48-5.65.17-.11,2.48-1.67,4.89-.63,1.41.6,2.29,1.68,2.86,2.79.97,1.93.97,4.02.97,4.02"/>
    <path class="cls-13" d="M44.49,67.28c.62,1.59,2,2.61,3.51,2.97,1.62-1.7,3.69-2.97,5.94-3.62-.06-2.52-1.31-4.66-3.26-5.55-.34-.16-1.82-.81-3.39-.23-2.18.8-3.87,3.73-2.81,6.44"/>
    <path class="cls-12" d="M46.81,72.2c-.1,0-.2-.03-.29-.09-.23-.16-.28-.47-.12-.7.37-.53.78-1.02,1.24-1.5.96-1.01,3.04-2.84,6.16-3.76.5-.15,1-.27,1.49-.34.27-.04.53.14.57.42.04.27-.14.53-.41.57-.44.07-.9.18-1.36.31-2.9.85-4.83,2.55-5.72,3.49-.43.45-.8.91-1.15,1.39-.1.14-.25.21-.41.21Z"/>
    <path class="cls-12" d="M48.45,57.95c1.39-.15,2.26-.09,2.26-.09.08,0,.3.02.48-.11.29-.21.38-.7.28-.99-.25-.7-1.86-.81-2.93-.69-2.32.25-4.28,1.83-4.17,2.59,0,.06.06.4.3.52.17.08.35.02.44-.01,1.28-.46,2.28-1.11,3.34-1.22"/>
    <path class="cls-10" d="M41.71,87.62c.03.19.07.52-.1.87-.02.05-.04.09-.06.12-.13-.04-.74-.23-1.35-.89-.31-.32-.5-.65-.64-.91.31-.11.64-.25.96-.43.15-.08.3-.17.45-.26h0c.45.58.69,1.13.73,1.5"/>
    <path class="cls-10" d="M44.93,91.03c-.54.08-1.05.09-1.54.05-.06-.15-.11-.32-.15-.51-.17-.79-.01-1.34.02-1.46.12,0,.45.02.83.39.18.17.29.33.36.45.13.22.31.58.48,1.08"/>
    <path class="cls-10" d="M49.71,81.93c.11.27.21.69.19,1.2,0,.9-.31,1.45-.37,1.57-.13-.03-.48-.13-.81-.62-.27-.41-.44-1.17-.5-1.47.55-.19,1.04-.42,1.48-.67"/>
    <path class="cls-10" d="M50.08,88.35h0c-.32.35-.69.69-1.12,1.01-.27-.44-.37-.82-.43-1.06-.03-.14-.07-.38-.06-.68,0-.53.25-.77.34-.84.1.05.59.36,1.01,1.05.11.19.19.36.26.52"/>
    <path class="cls-12" d="M43.94,91.61c-.2,0-.4,0-.59-.03-4.16-.3-6.55-3.92-6.65-4.08-.04-.07-.17-.36-.39-.82l.89-.46c.23.4.47.52.57.56.3-.05.91-.17,1.63-.44.32-.11.62-.25.9-.4.13-.08.27-.15.42-.25l.09-.04c.32-.21.66-.48.96-.79.26-.26.74-.74,1-1.54.21-.63.18-1.18.13-1.6l-.19-1.64,1.07,1.25c.23.26.72.74,1.46.99.46.15,1.01.18,1.64.09.45-.06.84-.16,1.21-.29.5-.17.96-.38,1.4-.64.6-.34,1.09-.71,1.42-.97.03-.09.1-.35-.06-.77l.92-.39.21.42c.09.19.14.29.14.29l.03.07c.06.2,1.5,4.79-1.45,8.29h0s-.21.24-.21.24c-.36.39-.76.75-1.19,1.07-.49.36-1.01.67-1.58.94-.9.43-1.8.7-2.69.82-.35.05-.71.08-1.06.08ZM38.13,87.73c.88.98,2.73,2.67,5.29,2.86.47.04.95.03,1.43-.05.79-.11,1.59-.35,2.4-.73.52-.25.98-.53,1.42-.85.33-.24.64-.51.91-.8l.13-.14c2.04-2.22,1.9-5.13,1.66-6.6-.35.28-.84.62-1.42.95-.49.28-1.02.52-1.57.71-.43.16-.89.27-1.4.34-.78.11-1.48.07-2.09-.13-.39-.13-.73-.3-1.01-.49-.03.26-.09.55-.18.84-.33,1.03-.94,1.64-1.24,1.94-.35.36-.75.68-1.22.97-.16.1-.32.19-.47.28-.33.18-.68.33-1.04.46-.64.24-1.21.38-1.6.45Z"/>
    <path class="cls-12" d="M14.82,72.92c.25.67.39,1.51.24,2.81-.22,1.78-.87,3.66-1.16,4.44-.14-.17-.36-.4-.62-.67-.27-.27-.53-.5-.78-.69.08-.14.17-.31.26-.5.3-.63.54-1.26.61-1.98.05-.67-.07-1.43-.56-1.93-.67-.75-1.96-1.03-2.11-2-.15-.85.75-1.51,1.59-1.54,1.05.03,1.99.8,2.42,1.77.03.07.07.16.12.28"/>
    <path class="cls-13" d="M70.42,74.28c-1.45,0-2.78-.03-3.95-.09h-.11c-3.32-.25-5.02-2.69-5.24-5-.22-2.48-.34-4.88-.34-7.17,0-3.16.22-6.15.66-9.12.37-2.65,2.5-4.62,5.22-4.79.98-.08,2.77-.14,4.38-.14,3.02,0,6.77,0,9.45,2.69,1.02,1.03,2.23,2.84,2.23,5.64,0,.96-.15,2.14-.64,3.37.73,1.26,1.23,2.84,1.23,4.84,0,9.07-9.88,9.78-12.9,9.78ZM70.82,64.07c0,.07,0,.14,0,.21.81-.02,1.42-.08,1.86-.15-.09-.08-.18-.15-.26-.23-.52.13-1.06.2-1.6.18ZM70.8,61.07s.04.01.06.02c-.02-.1-.04-.19-.05-.29,0,.09,0,.18,0,.27ZM72.96,55.67h0Z"/>
    <path class="cls-13" d="M84.76,74.24c-1,0-2.14,0-3.29-.14-2.44-.3-4.24-1.96-4.83-4.41-.38-1.62-.56-4.96-.56-7.39,0-4.93.51-8.48.94-10.02.65-2.33,2.63-3.98,5.03-4.17h.12c1.8-.1,3.86-.1,5.56,0h.12c2.97.24,5.14,2.68,5.01,5.61-.02.68-.16,1.25-.34,1.96-.28,1.13-.75,3.02-.75,5.38,0,2.69.49,4.72.76,5.81.16.67.29,1.2.29,1.9,0,2.82-2.14,5.11-4.99,5.36-.9.09-1.86.12-3.09.12Z"/>
    <path class="cls-13" d="M91.78,74.58c-1.75,0-3.41-.77-4.93-2.29-1.05-1.05-1.62-2.43-1.62-3.89,0-.8.17-1.58.52-2.31-.18-.88-.27-1.81-.27-2.8,0-9.13,4.7-15.5,11.44-15.5,1.24,0,2.44.22,3.57.66.41-.1.84-.15,1.28-.15,1.49,0,2.7.6,3.48,1.05,1.81,1.08,2.84,2.86,2.84,4.79,0,.88-.21,1.75-.63,2.58.61,1.94.91,4.12.91,6.58,0,6.81-4.47,11.21-11.39,11.21-1.12,0-2.17-.11-3.16-.32-.84.34-1.59.4-2.02.4ZM87.11,64.09s-.03.04-.05.06l.05-.06ZM95.6,61.39c.89.27,1.88.24,2.65-.01-.03-.23-.06-.45-.1-.66-.78-.26-1.71-.25-2.44,0-.04.21-.08.44-.11.68Z"/>
    <path class="cls-13" d="M116.41,74.22c-.85,0-1.7-.02-2.28-.05-.44-.02-.85-.08-1.24-.17-.28.07-.56.11-.85.13-.94.07-2.02.08-2.77.08-.84,0-1.69-.03-2.44-.07-2.88-.2-4.98-2.21-5.26-5-.17-1.67-.4-4.24-.4-7.15,0-3.25.28-6.38.82-9.29l.03-.13c.5-2.34,2.3-4,4.71-4.35,1.3-.21,4.79-.26,5.23-.26,10.92,0,11.77,7.15,11.77,9.34,0,1.87-.44,3.39-1.06,4.63,1.49,3.22,1.64,6.69,1.64,6.74,0,2.93-2.22,5.29-5.16,5.49h-.13c-.55.03-1.58.05-2.6.05ZM111.51,68.11s0,.02,0,.03c0,0,0-.02,0-.03ZM120.47,64.94s-.04.04-.06.07c.02-.02.04-.04.06-.07ZM111.34,57.97c-.04.38-.06.77-.09,1.16.4-.08.81-.1,1.21-.1.22-.36.48-.7.79-1.01-.34-.04-.77-.06-1.3-.06-.17,0-.38,0-.61,0Z"/>
    <path class="cls-13" d="M131.8,74.24c-.55,0-1.34-.02-2.04-.09-.36-.05-.7-.12-1.02-.21-.36.11-.73.18-1.12.22-1.03.08-2.31.08-2.81.08-.57,0-1.65,0-2.58-.08-2.69-.18-4.76-2.08-5.14-4.72-.4-2.76-.49-5.78-.49-7.82,0-1.63.07-7.14.91-9.64l.07-.18c.81-2.12,2.68-3.54,4.88-3.71h.19c1.2-.05,2.78-.06,3.77-.01.57.02,1.12.12,1.65.31.43-.15.89-.25,1.36-.3.99-.07,2.14-.08,2.74-.08s1.52.01,2.33.08c2.55.19,4.59,2.02,5.06,4.55.42,2.54.67,6.33.67,10.24,0,1.75-.05,4.26-.31,6.31l-.02.12c-.41,2.75-2.56,4.7-5.33,4.86-.92.07-2.36.07-2.78.07ZM133.93,64.19s-.05,0-.07,0c.02,0,.05,0,.07,0Z"/>
    <path class="cls-13" d="M143.95,74.28c-1.96,0-3.91-.04-5.36-.11-3.62-.17-5.38-2.92-5.49-5.4-.04-.93-.07-1.98-.07-3.07,0-4.59.42-9.34,1.14-13.03l.04-.17c.57-2.46,2.61-4.24,5.06-4.42,1.18-.09,3.29-.12,4.88-.12,1.06,0,3.69.01,5.32.14,2.82.18,5.01,2.46,5.01,5.3,0,1.68-1.37,5.34-1.55,5.77l-.12.26s-.05.09-.07.14c-.03.29-.08.61-.15.94.29.41.53.86.71,1.35.56,1.58,1.12,5.17,1.12,6.67,0,3.06-2.33,5.47-5.43,5.63-1.62.07-3.4.11-5.04.11ZM150.94,67.56h-.01s0,0,.01,0Z"/>
    <path class="cls-13" d="M158.06,74.62c-7.04,0-11.77-5.03-11.77-12.52,0-8.54,5.13-14.28,12.75-14.28,7.11,0,9.63,4.7,9.63,8.73,0,.79-.14,1.56-.42,2.28.07.25.12.52.15.79l.06.58c.16,1.5.33,3.04.33,4.79,0,5.67-4.42,9.63-10.74,9.63Z"/>
    <path class="cls-13" d="M170.36,74.24c-1,0-2.14,0-3.29-.14-2.44-.3-4.25-1.96-4.83-4.42-.38-1.61-.55-4.95-.55-7.38,0-4.94.51-8.49.95-10.02.64-2.33,2.62-3.98,5.03-4.16h.12c1.8-.1,3.86-.1,5.56,0h.12c2.97.24,5.13,2.68,5.01,5.6-.02.68-.17,1.25-.34,1.97-.28,1.13-.75,3.02-.75,5.38,0,2.69.49,4.72.76,5.81.16.67.29,1.2.29,1.9,0,2.83-2.14,5.11-5,5.36-.9.09-1.86.12-3.09.12Z"/>
    <path class="cls-13" d="M181.6,74.26c-1.99,0-3.79-.05-4.69-.09-3.68-.17-5.45-2.92-5.55-5.4-.04-.95-.09-2.09-.09-3.3,0-3.37.17-8.32,1.01-12.74.48-2.6,2.56-4.46,5.16-4.63.71-.06,1.83-.07,2.62-.07,1.34,0,2.6.05,3.28.09,2.91.2,5.08,2.48,5.08,5.31,0,.75-.13,1.29-.55,3.07-.13.53-.33,1.37-.54,2.3,1.33.54,2.41,1.61,2.96,3.02.68,1.75,1.15,5.39,1.15,6.73,0,3.06-2.33,5.47-5.43,5.63-1.16.06-2.65.09-4.41.09ZM185.51,64.18s-.01,0-.02,0c0,0,.01,0,.02,0ZM182.11,54.57s0,.02,0,.02c0,0,0-.02,0-.02Z"/>
    <path class="cls-13" d="M194.34,74.22c-.59,0-3.87-.02-4.5-.05-3.12-.19-4.45-2.22-4.88-3.08-.69-1.43-1.05-3.23-1.05-8.8,0-4.32.29-7.67.86-9.97l.05-.19c.66-2.25,2.47-3.8,4.73-4.05l.3-.02c1.19-.06,2.16-.09,2.98-.09,6.45,0,14.14,2.54,14.14,14.66,0,7.91-4.01,11.59-12.63,11.59ZM193.91,62.31c.91.24,2.09.15,3.05-.31-.02-.62-.08-1.16-.15-1.61-.93-.36-2.04-.37-2.87-.11-.02.61-.02,1.28-.02,2.01v.02Z"/>
    <path class="cls-13" d="M210.46,74.28c-1.96,0-3.91-.04-5.36-.11-3.62-.17-5.38-2.92-5.49-5.4-.04-.93-.07-1.98-.07-3.07,0-4.59.42-9.34,1.14-13.03l.04-.17c.57-2.46,2.61-4.24,5.06-4.42,1.18-.09,3.29-.12,4.88-.12,1.06,0,3.69.01,5.32.14,2.82.18,5.01,2.46,5.01,5.3,0,1.68-1.37,5.34-1.55,5.77l-.12.26s-.05.09-.07.14c-.03.29-.08.61-.15.94.29.41.53.86.71,1.35.56,1.58,1.12,5.17,1.12,6.67,0,3.06-2.33,5.47-5.43,5.63-1.62.07-3.4.11-5.04.11ZM217.45,67.56h-.01s0,0,.01,0Z"/>
    <path class="cls-13" d="M223.9,74.28c-.96,0-2.13-.05-2.98-.12-2.78-.21-4.94-2.32-5.26-5.16-.08-.62-.12-1.53-.12-2.9,0-1.08.03-2.07.08-2.95-1.62-.91-2.7-2.66-2.7-4.71,0-1.22.38-4.31.66-5.58l.09-.41.16-.39c.64-1.61,1.92-2.81,3.59-3.37,1.54-.51,4.06-.83,6.61-.83,2.08,0,4.98.21,6.96,1.21l.48.28c1.3.84,2.82,2.48,2.71,5.45-.05,1.52-.24,3.51-.45,4.7l-.1.44c-.4,1.44-1.3,2.6-2.48,3.29.15,1.23.35,2.3.51,3.14.18.98.31,1.62.31,2.32,0,2.74-1.93,4.97-4.7,5.44l-.15.02c-1.03.14-2.72.15-3.22.15ZM225.59,67.81h0s0,0,0,0Z"/>
    <path class="cls-13" d="M78.63,102.27c-1.09,0-2.37-.05-3.73-.11-1.5-.06-3.05-.12-4.49-.12-.73,0-1.52.04-2.17.08-.61.03-1.12.05-1.45.05-2.43,0-6.51-1.12-6.51-8.6,0-3.48.88-6.56,2.65-9.3-1.73-2.44-2.95-6.31-2.95-8.02,0-1.32.38-2.56,1.13-3.69,2.34-3.59,7.77-6.03,13.5-6.03,7.9,0,13.21,5.03,13.21,12.52,0,2.83-.63,5.07-1.75,6.94,1.2,1.78,1.89,4.07,1.89,6.43,0,5.71-3.93,9.85-9.34,9.85ZM83.82,91.72s-.01.01-.02.02c0,0,.01-.01.02-.02Z"/>
    <path class="cls-13" d="M95.35,102.67c-6.94,0-14.36-4.74-14.36-18.04,0-10.96,5.88-18.04,14.99-18.04,13.27,0,14.3,13.8,14.3,18.04,0,13.31-8.04,18.04-14.92,18.04Z"/>
    <path class="cls-13" d="M121.47,102.27c-1.09,0-2.37-.05-3.73-.11-1.5-.06-3.05-.12-4.49-.12-.73,0-1.52.04-2.16.08-.61.03-1.12.05-1.45.05-2.43,0-6.51-1.12-6.51-8.6,0-3.48.88-6.56,2.65-9.3-1.73-2.44-2.95-6.31-2.95-8.02,0-1.32.38-2.56,1.13-3.69,2.34-3.6,7.78-6.03,13.5-6.03,7.9,0,13.21,5.03,13.21,12.52,0,2.83-.63,5.07-1.75,6.94,1.2,1.78,1.88,4.07,1.88,6.43,0,5.71-3.93,9.85-9.34,9.85ZM126.66,91.72s-.01.01-.02.02c0,0,.01-.01.02-.02Z"/>
    <path class="cls-13" d="M137.34,102.67c-4.35,0-7.8-.98-10.55-2.99-2.01-1.43-3.03-3.32-3.03-5.61,0-1.6.72-3.9,1.43-5.7-.66-1.12-.8-2.24-.8-3.01,0-4.52.67-10.46,1.3-13.21.65-2.93,2.89-4.92,5.71-5.08,2.02-.11,4.36-.17,6.59-.17,3.03,0,5.74.09,7.48.17,3.3.18,5.57,2.59,5.57,5.85,0,1.37-.23,4.91-.79,7.28-.07.31-.16.61-.25.89,1.14,1.94,1.83,4.49,1.83,7.77,0,8.78-5.28,13.81-14.5,13.81Z"/>
    <g>
      <path class="cls-3" d="M228.84,85.05c-1.66,1.66-1.66,4.36,0,6.02s4.36,1.66,6.02,0,1.66-4.36,0-6.02c-1.66-1.66-4.36-1.66-6.02,0ZM234.16,90.36c-1.27,1.27-3.34,1.27-4.61,0s-1.27-3.34,0-4.61,3.34-1.27,4.61,0,1.27,3.34,0,4.61Z"/>
      <path class="cls-3" d="M242.16,57.76c-.54.04-5.36.48-7.67,4.29-1.05,1.73-1.51,4.05-1.11,5.64.06.22.24.86.44,1.51.24.77.5,1.51.76,2.22.08.2.27.32.47.32.06,0,.12-.01.18-.03.26-.1.39-.39.29-.64-.19-.5-.46-1.24-.74-2.16-.2-.63-.37-1.25-.43-1.46-.33-1.33.09-3.38.99-4.88,2.05-3.37,6.4-3.77,6.89-3.81.28-.02.48-.26.46-.53-.02-.28-.29-.49-.53-.46Z"/>
      <path class="cls-3" d="M213.37,99.73c.17-.05.14-.04,0,0h0Z"/>
      <path class="cls-3" d="M213.37,99.73c-.1.03-.26.08-.53.16-1.53.46.07-.02.53-.16Z"/>
      <path class="cls-3" d="M191.19,41.49c-2.2.83,2.2-.83,0,0h0Z"/>
      <path class="cls-3" d="M230.96,68.67c0-.2-.02-.41-.04-.62.83.99,1.39,1.72,2.46,3.11.3.39.73.97.54,1.52-.2.55-.84.53-1.17,1.16-.34.64-.14,1.52.37,2.06.47.49,1.09.59,1.31.61-.14-.17-.25-.34-.34-.56-.07-.17-.34-.87-.03-1.22.25-.28.64-.1.88-.37.24-.27.1-.76.02-.99-.57-1.73-1.59-3.28-1.59-3.28-.64-.96-1.14-1.79-1.33-2.12-.4-.68-.69-1.36-.92-2-.53-1.46-.68-2.69-.75-3.27,0-.07-.02-.14-.02-.21,1.1-.53,1.96-1.51,2.32-2.82l.08-.35c.18-1.02.35-2.66.42-4.06.26-.16.51-.29.7-.39.07,0,.14.01.21.02-.3-.28-.6-.58-.9-.89-.12-1.65-.87-2.93-2.24-3.82l-.39-.22c-1.81-.91-4.54-1.1-6.51-1.1-2.92,0-5.16.4-6.29.78,0,0,0,0,0,0-.55-.3-1.16-.49-1.82-.53-1.1-.09-3.06-.14-5.24-.14-1.97,0-3.86.04-4.8.12-1.69.13-3.14,1.19-3.84,2.73-2.17-1.88-5.24-2.84-9.2-2.84-.8,0-1.76.03-2.93.09l-.24.02c-1.27.14-2.36.8-3.1,1.79-.74-.98-1.89-1.64-3.29-1.74-.71-.05-1.98-.09-3.21-.09-.78,0-1.87.01-2.56.07-.78.05-1.5.29-2.12.67-.61-.37-1.3-.62-2.09-.68-1.67-.09-3.59-.1-5.55,0-1.16.09-2.19.6-2.96,1.39-1.01-.76-2.32-1.31-3.97-1.54l25.11-9.48c.98,1.89,3.23,2.8,5.27,2.03,2.2-.83,3.31-3.29,2.48-5.49-.83-2.2-3.29-3.31-5.49-2.48-2.04.77-3.12,2.94-2.61,5l-27.34,10.33c-2.17.13-4.09.78-5.7,1.88-.74-.92-1.85-1.55-3.13-1.63-1.1-.09-3.06-.14-5.24-.14-1.97,0-3.86.04-4.8.12-.92.07-1.75.42-2.45.96-.69-.54-1.54-.89-2.49-.96-.77-.06-1.65-.07-2.25-.07s-1.71,0-2.65.08c-.51.04-1,.17-1.44.37-.64-.29-1.25-.37-1.69-.39-.97-.04-2.52-.04-3.7,0h-.15c-1.29.11-2.43.73-3.23,1.71-1.6-1.06-3.92-1.82-7.35-1.82-.42,0-3.86.05-5.09.25-.85.12-1.59.45-2.21.92-.73-.41-1.69-.86-2.88-.86-.46,0-.91.07-1.34.21-1.1-.47-2.27-.71-3.5-.71-2.23,0-4.21.79-5.83,2.2-.74-1.04-1.93-1.77-3.39-1.88-1.66-.09-3.58-.1-5.55,0-1.26.1-2.37.68-3.15,1.59-2.33-1.71-5.41-1.72-7.94-1.72-1.56,0-3.37.06-4.32.13-2.26.14-4.03,1.79-4.29,3.91-.44,2.94-.65,5.89-.65,9.01,0,2.26.11,4.63.33,7.07.08.85.42,1.78,1.08,2.55-.48.47-.91.96-1.25,1.48-.64.96-.96,2.02-.96,3.14,0,1.67,1.37,5.83,3.19,7.99-1.94,2.73-2.89,5.82-2.89,9.33,0,6.28,3,7.6,5.51,7.6.32,0,.81-.02,1.4-.05.66-.03,1.47-.08,2.22-.08,1.45,0,3.02.06,4.53.12,1.35.05,2.62.11,3.69.11,3.11,0,5.67-1.55,7.1-4.03,2.59,3.12,6.16,4.42,9.62,4.42,4.18,0,7.25-1.53,9.43-3.86,1.02,2.68,3.06,3.37,4.86,3.37.32,0,.81-.02,1.4-.05.66-.03,1.47-.08,2.22-.08,1.45,0,3.02.06,4.53.12,1.35.05,2.62.11,3.69.11,2.37,0,4.42-.9,5.89-2.42,2.58,1.89,5.84,2.81,9.98,2.81,6.66,0,11.1-2.83,12.76-7.9l24.93,13.41.18.1,32.52-9.77c.85,1.95,3.03,3.02,5.11,2.39,2.25-.68,3.53-3.06,2.85-5.3-.68-2.25-3.06-3.53-5.31-2.85-2.09.63-3.32,2.72-2.95,4.81l-32.12,9.66-24.94-13.41c.29-1.2.45-2.51.45-3.93,0-3.07-.7-5.66-1.97-7.64.18-.37.32-.79.42-1.25.53-2.26.76-5.63.76-6.99.75-.21,1.4-.59,1.94-1.09,1.68,1.11,3.73,1.73,6.08,1.73,2.74,0,4.85-.72,6.4-1.86.71.73,1.64,1.21,2.74,1.35,1.09.14,2.19.14,3.16.14,1.2,0,2.12-.04,2.99-.12.57-.05,1.1-.19,1.58-.41.57.26,1.24.43,2.01.47.89.03,2.67.09,4.65.09,1.75,0,3.22-.03,4.37-.09.71-.03,1.36-.22,1.94-.51.54.27,1.18.47,1.98.52.6.03,3.88.05,4.45.05,3.14,0,5.6-.51,7.43-1.55.75.84,1.86,1.43,3.38,1.5,1.43.07,3.37.11,5.31.11,1.63,0,3.39-.04,5-.11,1.1-.05,2.08-.47,2.84-1.11.73.63,1.65,1.03,2.71,1.11.82.07,1.95.12,2.89.12.48,0,2.12-.01,3.08-.14l.12-.02c2.31-.39,3.86-2.18,3.86-4.45ZM210.68,92.69c-.09.03-.17.05-.25.08.07-.02.15-.04.25-.08,1.72-.52,3.54.46,4.06,2.18.52,1.72-.46,3.54-2.18,4.06-1.56.47-3.19-.3-3.87-1.72l3.28-.99-.29-.96-3.28.99c-.22-1.56.72-3.1,2.28-3.57ZM188.54,34.46c-.2.07-.39.15-.46.17.05-.02.18-.07.46-.17,1.68-.64,3.57.22,4.2,1.9.64,1.68-.22,3.57-1.9,4.2-1.52.57-3.2-.07-3.98-1.45l3.2-1.21-.35-.94-3.2,1.21c-.32-1.54.51-3.14,2.03-3.72Z"/>
    </g>
  </g>
  <g>
    <path class="cls-10" d="M66.73,69.2c-.29-.02-.59-.04-.63-.48-.21-2.32-.31-4.55-.31-6.7,0-3.12.23-5.9.61-8.42.04-.34.27-.48.59-.51.8-.06,2.43-.13,4.07-.13,2.94,0,4.82.13,5.91,1.22.5.51.78,1.2.78,2.11,0,1.5-.73,2.55-1.72,3.35-.19.17-.27.27-.27.4,0,.08.06.19.19.27,1.66,1.18,2.39,2.27,2.39,4.19,0,3.01-2.29,4.78-7.9,4.78-1.17,0-2.47-.02-3.69-.08ZM72.86,57.07c0-.67-.69-.88-1.26-.88-.25,0-.44.06-.59.21-.27.27-.4.84-.4,1.98,0,.42.08.7.4.7.59,0,1.85-1.01,1.85-2ZM73.07,63.36c0-.91-.36-1.64-.84-1.64-.27,0-.67.19-.99.44-.31.27-.44.76-.44,1.26,0,.78.1,1.16.27,1.33.13.13.27.15.46.15.61,0,1.53-.4,1.53-1.54Z"/>
    <path class="cls-10" d="M84.76,69.24c-.9,0-1.82,0-2.66-.11-.34-.04-.48-.17-.59-.61-.19-.8-.42-3.37-.42-6.23,0-4.78.5-7.77.75-8.65.1-.38.34-.53.61-.55.8-.04,1.64-.06,2.47-.06.88,0,1.76.02,2.56.06.27.02.42.15.4.42,0,.57-1.09,3.45-1.09,7.54,0,4.32,1.05,7.29,1.05,7.71,0,.25-.15.36-.44.38-.86.08-1.74.11-2.64.11Z"/>
    <path class="cls-10" d="M93.19,68.71c-.1-.04-.19-.06-.27-.06-.15,0-.27.08-.4.23-.08.13-.19.25-.27.38-.15.21-.27.32-.46.32-.48,0-1.03-.46-1.38-.82-.1-.11-.17-.21-.17-.36,0-.13.06-.25.19-.42.19-.23.4-.51.63-.8.08-.11.13-.23.13-.36,0-.11-.02-.23-.06-.34-.46-.93-.63-2.04-.63-3.2,0-5.52,2.2-10.51,6.44-10.51,1.32,0,2.45.48,3.4,1.35.1.1.19.15.27.15.1,0,.21-.08.29-.19.17-.23.29-.4.38-.51.17-.21.34-.29.5-.29.29,0,.69.21.99.38.21.13.33.27.33.46,0,.1-.04.23-.13.38-.23.34-.5.72-.86,1.24-.1.15-.19.29-.19.46,0,.08.02.17.08.29.99,1.96,1.36,4.28,1.36,6.78,0,3.39-1.53,6.21-6.39,6.21-1.57,0-2.83-.29-3.77-.78ZM97.84,57.89c0-.7-.52-1.31-.92-1.31-.67,0-1.28.78-1.28,3.83,0,.08,0,.19.02.25.02.06.06.11.13.11.08,0,.17-.06.25-.17.59-.72,1.19-1.47,1.66-2.21.1-.17.15-.34.15-.5ZM98.26,63.09c0-.48,0-.93-.02-1.35,0-.17-.08-.25-.17-.25-.06,0-.13.04-.21.13-.63.78-1.4,1.73-1.95,2.57-.08.15-.13.27-.13.42,0,.11.04.21.08.29.17.32.57.61,1.05.61.86,0,1.34-.69,1.34-2.42Z"/>
    <path class="cls-10" d="M107.4,53.17c.8-.13,3.58-.21,4.53-.21,3.92,0,6.77,1.05,6.77,4.34,0,1.85-.75,3.05-1.89,4.21-.1.11-.17.23-.17.34s.04.19.15.27c1.95,1.71,2.5,6.27,2.5,6.55,0,.32-.19.48-.5.5-.5.02-1.45.04-2.39.04-.78,0-1.55-.02-2.08-.04-.48-.02-.65-.15-.69-.44-.33-3.03-.63-4.7-1.36-4.7-.42,0-.65.55-.65,1.37,0,1.31.4,3.12.4,3.39,0,.23-.15.34-.4.36-.61.04-1.47.06-2.37.06-.71,0-1.45-.02-2.12-.06-.29-.02-.57-.08-.61-.5-.19-1.83-.38-4.11-.38-6.65s.19-5.45.73-8.38c.06-.29.23-.4.52-.44ZM111.82,60.94c.44,0,1.28-1.71,1.28-3.24,0-.8-.31-1.09-.71-1.09-.17,0-.36.06-.5.21-.31.32-.52,1.01-.52,2.44s.1,1.68.46,1.68Z"/>
    <path class="cls-10" d="M122.55,69.17c-.31-.02-.5-.15-.54-.44-.31-2.15-.44-4.72-.44-7.12,0-3.66.29-6.99.65-8.04.1-.27.29-.48.59-.51.55-.02,1.17-.04,1.78-.04s1.2.02,1.64.04c.21,0,.38.13.54.36.59.82,1.53,2.7,3.46,6.82.06.13.13.17.21.17.13,0,.23-.13.23-.32,0-3.12-1.22-5.92-1.22-6.59,0-.25.15-.42.4-.44.59-.04,1.45-.06,2.31-.06.71,0,1.41.02,1.93.06.29.02.48.15.55.48.38,2.25.59,5.92.59,9.33,0,2.15-.08,4.19-.27,5.69-.06.42-.29.59-.67.61-.59.04-1.59.06-2.5.06-.57,0-1.11-.02-1.49-.06-.48-.06-.63-.15-.71-.61-.44-2.49-1.26-4.38-2.31-5.98-.13-.17-.23-.25-.36-.25-.19,0-.27.25-.27.53,0,1.85.86,5.64.86,5.9,0,.32-.15.4-.38.42-.57.04-1.47.06-2.35.06-.82,0-1.64-.02-2.22-.06Z"/>
    <path class="cls-10" d="M138.82,69.17c-.46-.02-.71-.11-.73-.61-.04-.88-.06-1.85-.06-2.86,0-3.75.31-8.34,1.05-12.07.06-.27.27-.55.57-.57.84-.06,2.64-.1,4.51-.1s3.86.04,4.93.13c.31.02.4.15.4.32,0,.27-.65,2.63-1.15,3.81-.08.17-.21.23-.36.23-.19,0-.38-.06-.75-.21-.61-.23-1.41-.44-2.33-.44-.57,0-.96.13-1.24.4-.23.23-.34.53-.34.91,0,.4.19.61.55.61.71,0,1.61-.32,2.62-.32.78,0,1.3.11,1.3.46,0,.51-.54,2.76-.86,3.71-.08.25-.17.34-.34.34-.27,0-1.15-.32-1.99-.32-1.01,0-1.32.57-1.32,1.07,0,.72.4,1.03,1.32,1.03,1.74,0,2.79-.76,3.38-1.16.19-.13.25-.19.38-.19.1,0,.19.06.23.19.34.91.84,3.96.84,5.01,0,.36-.23.61-.67.63-1.43.06-3.15.11-4.8.11-1.95,0-3.82-.04-5.12-.11Z"/>
    <path class="cls-10" d="M156.66,60.77c0,3.12.61,4.04,1.51,4.04.57,0,.86-.46.86-1.07,0-.65-.33-1.07-.73-1.37-.15-.11-.21-.23-.21-.36,0-.15.08-.27.25-.38,1.09-.59,4.21-1.9,4.67-1.9.21,0,.38.15.42.48.17,1.56.36,3.1.36,4.76,0,2.84-2.05,4.63-5.75,4.63-4.26,0-6.77-2.78-6.77-7.52,0-5.05,2.37-9.29,7.76-9.29,3.44,0,4.63,1.6,4.63,3.73,0,.46-.21.82-.5,1.12-1.05,1.05-3.5,2.34-4.34,2.34-.19,0-.33-.13-.33-.38,0-.17.02-.46.02-.7,0-.7-.15-1.5-.71-1.5-.75,0-1.13,1.03-1.13,3.35Z"/>
    <path class="cls-10" d="M170.34,69.24c-.9,0-1.82,0-2.66-.11-.34-.04-.48-.17-.59-.61-.19-.8-.42-3.37-.42-6.23,0-4.78.5-7.77.75-8.65.11-.38.34-.53.61-.55.8-.04,1.63-.06,2.47-.06.88,0,1.76.02,2.56.06.27.02.42.15.4.42,0,.57-1.09,3.45-1.09,7.54,0,4.32,1.05,7.29,1.05,7.71,0,.25-.15.36-.44.38-.86.08-1.74.11-2.64.11Z"/>
    <path class="cls-10" d="M185.6,63.62c.36.88.82,3.88.82,4.93,0,.36-.23.61-.67.63-1.24.06-2.73.08-4.17.08-1.72,0-3.35-.04-4.51-.08-.46-.02-.71-.11-.73-.61-.04-.95-.08-2-.08-3.1,0-3.81.23-8.15.92-11.81.06-.34.25-.55.57-.57.5-.04,1.34-.06,2.31-.06,1.13,0,2.31.04,2.96.08.31.02.4.15.4.32,0,.53-1.89,7.2-1.89,9.96,0,1.01.25,1.26.92,1.26.82,0,1.76-.53,2.33-.97.27-.21.42-.27.54-.27s.23.04.29.21Z"/>
    <path class="cls-10" d="M190.02,69.17c-.36-.02-.52-.11-.63-.32-.29-.61-.52-2.19-.52-6.57s.31-7.16.71-8.76c.11-.36.29-.46.48-.48.82-.04,1.82-.08,2.73-.08,5.22,0,9.14,1.52,9.14,9.67,0,4.53-1.22,6.59-7.63,6.59-.78,0-3.82-.02-4.28-.04ZM196.65,61.66c0-2.93-1.01-4.21-1.68-4.21-.13,0-.25.04-.36.15-.27.27-.38,1.35-.38,3.43,0,2.61.23,3.58.55,3.9.12.13.25.17.38.17.63,0,1.49-.78,1.49-3.43Z"/>
    <path class="cls-10" d="M205.3,69.17c-.46-.02-.71-.11-.73-.61-.04-.88-.06-1.85-.06-2.86,0-3.75.31-8.34,1.05-12.07.06-.27.27-.55.57-.57.84-.06,2.64-.1,4.51-.1s3.86.04,4.93.13c.31.02.4.15.4.32,0,.27-.65,2.63-1.15,3.81-.08.17-.21.23-.36.23-.19,0-.38-.06-.75-.21-.61-.23-1.41-.44-2.33-.44-.57,0-.96.13-1.24.4-.23.23-.34.53-.34.91,0,.4.19.61.55.61.71,0,1.61-.32,2.62-.32.78,0,1.3.11,1.3.46,0,.51-.54,2.76-.86,3.71-.08.25-.17.34-.33.34-.27,0-1.15-.32-1.99-.32-1.01,0-1.32.57-1.32,1.07,0,.72.4,1.03,1.32,1.03,1.74,0,2.79-.76,3.38-1.16.19-.13.25-.19.38-.19.1,0,.19.06.23.19.34.91.84,3.96.84,5.01,0,.36-.23.61-.67.63-1.43.06-3.15.11-4.8.11-1.95,0-3.82-.04-5.12-.11Z"/>
    <path class="cls-10" d="M221.28,69.17c-.36-.02-.63-.19-.69-.74-.06-.5-.08-1.37-.08-2.34,0-3.85.46-6.49.46-7.18,0-.32-.08-.55-.5-.55-1.05,0-1.8.44-2.29.44-.17,0-.29-.11-.29-.38,0-.74.31-3.45.54-4.53.08-.21.23-.38.54-.48.69-.23,2.52-.57,5.01-.57,2.18,0,3.92.27,4.72.67.42.27.46.53.44,1.07-.04,1.33-.21,3.07-.38,4-.06.23-.15.32-.29.32-.34,0-1.01-.48-1.95-.48-.31,0-.46.17-.54.57-.04.23-.08.55-.08.95,0,4.34,1.03,7.94,1.03,8.72,0,.29-.15.44-.52.5-.46.06-1.51.11-2.54.11-.82,0-1.87-.04-2.58-.11Z"/>
  </g>
  <g>
    <path class="cls-10" d="M65.29,93.58c0-5.54,3.06-9.04,7.59-11.82,1.77-1.09,2.17-1.39,2.17-1.95,0-.4-.26-.63-.79-.63-1.51,0-3.84,1.42-5.75,2.74-.16.1-.33.17-.49.17-.26,0-.53-.13-.72-.36-1.28-1.49-2.3-4.82-2.3-5.48,0-.33.1-.63.3-.92,1.25-1.91,4.99-3.79,9.33-3.79,4.7,0,8.21,2.34,8.21,7.53,0,4.09-1.74,6.2-6.5,8.81-.95.53-1.61,1.02-1.61,1.62,0,.46.36.59,1.08.59s1.87-.26,2.92-.79c.56-.3,1.12-.66,1.54-1.09.2-.2.39-.26.59-.26s.43.1.59.26c.95.96,1.51,2.61,1.51,4.22,0,2.44-1.28,4.85-4.34,4.85-2.14,0-5.35-.23-8.21-.23-1.38,0-2.96.13-3.61.13-1.25,0-1.51-1.12-1.51-3.6Z"/>
    <path class="cls-10" d="M85.99,84.63c0-7.79,3.32-13.04,9.99-13.04s9.3,5.02,9.3,13.04c0,9.11-4.5,13.04-9.92,13.04s-9.36-3.93-9.36-13.04ZM97.16,83.91c0-3.73-.53-5.21-1.58-5.21s-1.54,1.49-1.54,5.21.43,5.31,1.54,5.31c1.18,0,1.58-1.55,1.58-5.31Z"/>
    <path class="cls-10" d="M108.1,93.58c0-5.54,3.06-9.04,7.59-11.82,1.77-1.09,2.17-1.39,2.17-1.95,0-.4-.26-.63-.79-.63-1.51,0-3.84,1.42-5.75,2.74-.16.1-.33.17-.49.17-.26,0-.53-.13-.72-.36-1.28-1.49-2.3-4.82-2.3-5.48,0-.33.1-.63.3-.92,1.25-1.91,4.99-3.79,9.33-3.79,4.7,0,8.21,2.34,8.21,7.53,0,4.09-1.74,6.2-6.51,8.81-.95.53-1.61,1.02-1.61,1.62,0,.46.36.59,1.08.59s1.87-.26,2.92-.79c.56-.3,1.12-.66,1.54-1.09.2-.2.39-.26.59-.26s.43.1.59.26c.95.96,1.51,2.61,1.51,4.22,0,2.44-1.28,4.85-4.34,4.85-2.14,0-5.35-.23-8.21-.23-1.38,0-2.96.13-3.61.13-1.25,0-1.51-1.12-1.51-3.6Z"/>
    <path class="cls-10" d="M131.66,72.06c1.77-.1,4.01-.17,6.31-.17,2.5,0,5.06.07,7.26.17.59.03.79.3.79.86,0,1.25-.23,4.32-.66,6.14-.13.59-.33.82-.66.82-.13,0-.39-.07-.72-.17-1.28-.43-3.61-1.15-5.72-1.15-.76,0-1.28.17-1.58.46s-.39.66-.39,1.16c0,.69.13,1.06.62,1.06.56,0,1.54-.33,3.45-.33,4.96,0,6.44,3.8,6.44,7.95,0,6.17-3.32,8.81-9.49,8.81-3.71,0-6.01-.86-7.62-2.05-.66-.46-.95-.86-.95-1.55,0-1.09,1.15-4.32,1.87-5.64.13-.26.36-.4.59-.4.2,0,.43.1.69.26,1.02.73,3.19,1.62,5.32,1.62,1.58,0,2.37-.56,2.37-1.58,0-.92-.56-1.52-2.4-1.52-1.15,0-3.25.3-4.63.3-.56,0-1.35-.2-2-.5-.89-.4-1.18-.73-1.18-1.25,0-4.09.62-9.7,1.18-12.11.17-.76.53-1.16,1.12-1.19Z"/>
  </g>
  <g class="cls-9">
    <path class="cls-2" d="M47.78,54.75c.24-.21.62-.62,1.28-2.22.35-.84.51-1.41.66-1.81.46-1.26,1.08-2.66,1.8-3.52,1.27-1.52,3.64-2.23,5.67-1.91,3.35.54,5.75,3.9,5.66,6.61-.04,1.16-.53,1.92-1,2.62-.24.35-.62.73-.81,1.42-.18.63-.09,1.11-.07,1.25"/>
    <path class="cls-12" d="M60.97,57.69c-.23,0-.44-.17-.49-.4-.05-.27-.11-.81.08-1.48.18-.63.49-1.05.72-1.36.06-.07.11-.14.15-.21.41-.62.88-1.32.92-2.36.08-2.46-2.14-5.59-5.24-6.1-1.95-.31-4.09.4-5.2,1.73-.56.67-1.15,1.84-1.72,3.38-.04.12-.09.25-.14.39-.12.37-.28.83-.53,1.44-.65,1.57-1.06,2.08-1.41,2.4-.21.18-.52.17-.71-.04-.19-.2-.17-.52.04-.71.15-.14.5-.45,1.15-2.04.24-.58.39-1.02.51-1.37.05-.16.1-.3.14-.42.61-1.67,1.25-2.9,1.89-3.67,1.33-1.59,3.85-2.44,6.13-2.08,3.71.6,6.18,4.23,6.08,7.12-.04,1.32-.62,2.19-1.09,2.88-.06.08-.12.17-.18.25-.21.28-.43.58-.56,1.03-.13.47-.09.84-.06,1.01.05.27-.12.53-.39.59-.03,0-.07,0-.1,0Z"/>
    <path class="cls-12" d="M59.11,56.9c-.33-.21-.89-.59-1.55-1.13-.83-.68-1.24-1.19-1.49-1.89-.27-.77-.23-1.73.39-2.24.6-.54,1.78-.33,1.98.47.12.54-.24,1.13-.22,1.73.08.86,1.01,1.39,1.82,1.75.17.07.53.19,1,.36-.05.14-.08.29-.1.45,0,.07-.04.36.03.8.08.45.17.53.12.6-.2.23-1.55-.62-1.98-.89"/>
    <rect class="cls-3" x="166.05" y="87.81" width="4.81" height="1"/>
    <rect class="cls-3" x="173.78" y="87.81" width="4.81" height="1"/>
    <rect class="cls-3" x="171.82" y="89.76" width="1" height="4.81"/>
    <rect class="cls-3" x="171.82" y="82.04" width="1" height="4.81"/>
    <path class="cls-3" d="M186.77,88.29c-3.26,0-5.91-2.65-5.91-5.91s2.65-5.91,5.91-5.91,5.91,2.65,5.91,5.91-2.65,5.91-5.91,5.91ZM186.77,77.47c-2.71,0-4.91,2.2-4.91,4.91s2.2,4.91,4.91,4.91,4.91-2.2,4.91-4.91-2.2-4.91-4.91-4.91Z"/>
    <path class="cls-4" d="M24.91,44.97c-.19,0-.37-.11-.45-.29-1.39-2.96-1.92-3.71-3.26-3.71-.75,0-1.75.23-3.32.66-.04.01-.09.02-.13.02-.2,0-.4-.13-.47-.33-.09-.24.02-.51.26-.62,4.17-1.96,4.25-2.14,3.05-6.59-.07-.25.07-.51.31-.6.06-.02.12-.03.17-.03.19,0,.37.11.45.29,1.39,2.96,1.92,3.71,3.26,3.71.75,0,1.75-.23,3.32-.66.04-.01.09-.02.13-.02.2,0,.39.13.47.33.09.24-.02.51-.26.62-4.17,1.96-4.25,2.14-3.05,6.59.07.25-.07.51-.31.6-.06.02-.11.03-.17.03"/>
    <path class="cls-13" d="M21.06,33.98c1.38,2.94,2.03,4,3.72,4,.83,0,1.91-.26,3.45-.68-4.38,2.06-4.59,2.5-3.32,7.17-1.38-2.94-2.03-4-3.72-4-.83,0-1.91.26-3.46.67,4.38-2.06,4.59-2.5,3.32-7.17M21.06,32.98c-.11,0-.23.02-.34.06-.49.18-.76.7-.62,1.2q1.13,4.17-2.78,6.01c-.47.22-.69.76-.51,1.25.15.4.53.66.94.66.09,0,.17-.01.26-.03,1.5-.41,2.5-.64,3.19-.64.96,0,1.36.34,2.81,3.42.17.36.53.58.9.58.11,0,.23-.02.34-.06.49-.18.76-.7.62-1.2q-1.13-4.17,2.78-6.01c.47-.22.69-.76.51-1.25-.15-.4-.53-.66-.94-.66-.09,0-.17.01-.26.04-1.5.4-2.5.64-3.19.64-.96,0-1.36-.34-2.81-3.42-.17-.36-.53-.57-.91-.57"/>
    <path class="cls-6" d="M34.28,46.24c-.12,0-.25-.05-.34-.14-.19-.18-.21-.47-.05-.67,3.67-4.63,3.66-4.98-.26-9.39-.17-.19-.17-.49,0-.68.1-.1.23-.16.36-.16.11,0,.22.03.31.11,2.37,1.88,3.62,2.72,4.72,2.72s2.31-.88,4.68-2.98c.1-.08.21-.13.33-.13s.25.05.34.14c.19.18.21.47.05.67-3.67,4.63-3.66,4.98.26,9.4.17.19.17.49-.01.68-.1.1-.23.16-.36.16-.11,0-.22-.03-.31-.11-2.37-1.88-3.62-2.72-4.72-2.72s-2.31.88-4.68,2.98c-.1.08-.21.13-.33.13"/>
    <path class="cls-13" d="M44.04,35.42c-3.82,4.82-3.8,5.44.28,10.04-2.37-1.87-3.72-2.82-5.03-2.82s-2.67,1.03-5.01,3.11c3.82-4.82,3.8-5.44-.28-10.04,2.37,1.87,3.72,2.82,5.03,2.82s2.67-1.03,5.01-3.11M44.04,34.42c-.24,0-.47.08-.66.25-2.22,1.97-3.38,2.85-4.35,2.85s-2.13-.8-4.41-2.61c-.18-.15-.4-.22-.62-.22-.27,0-.53.11-.73.31-.36.38-.37.96-.02,1.35,3.76,4.23,3.76,4.32.25,8.75-.32.41-.28.99.1,1.35.19.18.44.27.69.27s.47-.08.66-.25c2.22-1.97,3.38-2.85,4.35-2.85s2.13.8,4.4,2.61c.18.15.4.22.62.22.27,0,.53-.11.73-.31.36-.38.37-.96.02-1.35-3.76-4.23-3.76-4.32-.25-8.75.32-.41.28-.99-.1-1.35-.19-.18-.44-.27-.69-.27"/>
    <path class="cls-6" d="M89.27,46.17c-.46,0-.69-.4-.93-.83-.25-.44-.6-1.05-1.24-1.46-.64-.4-1.34-.46-1.85-.5-.5-.04-1.07-.08-1.2-.63-.12-.55.38-.83.82-1.09.46-.26,1.08-.62,1.49-1.27.39-.63.43-1.31.47-1.81.03-.5.07-1.06.62-1.19.04,0,.11-.02.15-.02.45,0,.68.4.93.83.25.45.6,1.06,1.24,1.46.64.4,1.34.46,1.85.5.5.04,1.07.08,1.2.63.12.54-.38.83-.81,1.08-.44.25-1.05.6-1.46,1.24-.4.64-.46,1.34-.5,1.85-.04.5-.08,1.07-.63,1.2-.04,0-.11.02-.15.02"/>
    <path class="cls-13" d="M87.61,37.88c.39,0,.63,1.41,1.9,2.21,1.31.83,2.73.39,2.82.81.1.42-1.38.63-2.21,1.94-.83,1.31-.39,2.73-.81,2.82-.01,0-.03,0-.04,0-.4,0-.63-1.41-1.9-2.21-1.31-.83-2.73-.39-2.82-.81-.1-.43,1.42-.65,2.25-1.99.79-1.29.36-2.67.77-2.77.01,0,.03,0,.04,0M87.61,36.88c-.07,0-.19.01-.26.03-.9.21-.97,1.14-1,1.64-.03.47-.07,1.06-.4,1.58-.34.55-.88.86-1.31,1.1-.47.27-1.27.72-1.06,1.63.2.9,1.11.97,1.65,1.02.48.04,1.08.08,1.61.42.53.34.83.86,1.07,1.28.26.46.62,1.08,1.36,1.08.07,0,.18-.01.26-.03.9-.2.97-1.1,1.02-1.65.04-.48.08-1.08.42-1.62.34-.53.86-.83,1.28-1.07.47-.27,1.26-.72,1.06-1.62-.2-.9-1.11-.97-1.64-1.02-.48-.04-1.08-.08-1.62-.42-.53-.34-.83-.86-1.07-1.29-.26-.46-.62-1.08-1.36-1.08"/>
    <path class="cls-6" d="M100.06,35.5c-.33,0-.6-.23-.93-.51-.39-.33-.92-.79-1.65-.96-.2-.05-.41-.07-.62-.07-.49,0-.93.12-1.29.21-.28.07-.5.13-.7.13-.37,0-.56-.2-.63-.33-.3-.47.08-.91.42-1.3.34-.4.81-.94.98-1.7.15-.72-.03-1.38-.16-1.86-.13-.48-.28-1.03.19-1.32.08-.05.27-.1.36-.1.33,0,.59.22.92.51.39.34.92.79,1.66.96.2.05.41.07.62.07.49,0,.93-.12,1.29-.21.28-.07.5-.13.7-.13.37,0,.56.2.63.32.3.47-.08.9-.41,1.29-.33.39-.79.92-.96,1.65-.17.74.01,1.41.15,1.91.13.49.28,1.04-.19,1.34-.08.05-.27.1-.36.1"/>
    <path class="cls-13" d="M96.02,28.19c.39,0,1.08,1.14,2.47,1.46.25.06.5.08.73.08.9,0,1.63-.35,1.99-.35.1,0,.17.03.21.09.23.37-1.09,1.06-1.43,2.56-.35,1.51.54,2.7.17,2.93-.03.02-.06.03-.09.03-.39,0-1.08-1.14-2.47-1.46-.25-.06-.5-.08-.73-.08-.9,0-1.62.35-1.99.35-.1,0-.17-.03-.21-.09-.24-.38,1.13-1.09,1.46-2.63.32-1.48-.56-2.64-.2-2.87.03-.02.06-.03.09-.03M96.02,27.19h0c-.22,0-.44.06-.63.18-.78.5-.53,1.4-.4,1.88.13.46.28,1.02.15,1.62-.14.63-.54,1.1-.87,1.48-.36.41-.96,1.11-.46,1.89.22.35.61.56,1.06.56.27,0,.53-.07.83-.15.34-.09.73-.2,1.15-.2.18,0,.34.02.51.06.62.14,1.07.54,1.44.85.38.33.73.63,1.25.63.22,0,.44-.06.62-.18.79-.49.55-1.37.41-1.89-.12-.47-.28-1.05-.14-1.67.14-.61.54-1.07.85-1.44.35-.41.95-1.1.46-1.88-.22-.36-.61-.56-1.06-.56-.27,0-.53.07-.83.15-.34.09-.73.2-1.16.2-.18,0-.34-.02-.51-.06-.62-.14-1.07-.54-1.44-.85-.38-.33-.73-.63-1.25-.63"/>
    <path class="cls-4" d="M115.52,41.43s-.07,0-.11-.01l-6.2-1.39c-.27-.06-.44-.33-.38-.6l2.22-9.93c.03-.13.11-.24.22-.31.08-.05.17-.08.27-.08.04,0,.07,0,.11.01l1.24.28c.13.03.24.11.31.22s.1.25.07.38l-1.83,8.2,4.47,1c.27.06.44.33.38.6l-.28,1.24c-.03.13-.11.24-.22.31-.08.05-.17.08-.27.08"/>
    <path class="cls-13" d="M111.53,29.62l1.24.28-.28,1.24-.28,1.24h0s-.28,1.24-.28,1.24l-.28,1.24h0s-.28,1.24-.28,1.24l-.28,1.24-.28,1.24h0l1.24.28,1.24.28,1.24.28,1.24.28-.28,1.24-1.24-.28h0l-1.24-.28-1.24-.28h0l-1.24-.28h0l-1.24-.28h0l.28-1.24.28-1.24h0s.28-1.24.28-1.24l.28-1.24.28-1.24.28-1.24.28-1.24.28-1.24ZM111.53,28.62c-.19,0-.37.05-.54.16-.22.14-.38.37-.44.63l-.28,1.24-.28,1.24-.28,1.24-.28,1.24-.28,1.24-.28,1.24-.28,1.24-.28,1.24c-.06.26-.01.53.13.75.14.22.37.38.63.44l1.24.28,1.24.28,1.24.28,1.24.28,1.24.28c.07.02.15.02.22.02.46,0,.87-.32.97-.78l.28-1.24c.12-.54-.22-1.07-.76-1.19l-1.24-.28-1.24-.28-1.24-.28-.27-.06.06-.26.28-1.24.28-1.24.28-1.24.28-1.24.28-1.24.28-1.24c.12-.54-.22-1.07-.76-1.19l-1.24-.28c-.07-.02-.15-.02-.22-.02"/>
    <path class="cls-4" d="M130.41,44.76s-.07,0-.11-.01l-6.2-1.39c-.27-.06-.44-.33-.38-.6l2.22-9.93c.05-.23.26-.39.49-.39.04,0,.07,0,.11.01l1.24.28c.13.03.24.11.31.22.07.11.09.25.07.38l-1.83,8.19,4.47,1c.13.03.24.11.31.22s.1.25.07.38l-.28,1.24c-.05.23-.26.39-.49.39"/>
    <path class="cls-13" d="M126.42,32.95l1.24.28-.28,1.24-.28,1.24-.28,1.24-.28,1.24-.28,1.24h0s-.28,1.24-.28,1.24l-.28,1.24h0s1.24.28,1.24.28l1.24.28,1.24.28,1.24.28-.28,1.24-1.24-.28h0l-1.24-.28-1.24-.28h0l-1.24-.28h0l-1.24-.28h0l.28-1.24.28-1.24h0s.28-1.24.28-1.24l.28-1.24h0s.28-1.24.28-1.24l.28-1.24h0s.28-1.24.28-1.24l.28-1.24ZM126.42,31.95c-.46,0-.87.32-.97.78l-.28,1.24-.28,1.24-.28,1.24-.28,1.24-.28,1.24-.28,1.24-.28,1.24-.28,1.24c-.12.53.21,1.06.74,1.19l1.26.28,1.24.28,1.24.28,1.24.28,1.24.28c.07.02.15.03.22.03.46,0,.87-.32.98-.78l.28-1.24c.06-.26.01-.53-.13-.75-.14-.22-.37-.38-.63-.44l-1.24-.28-1.24-.28-1.24-.28-.27-.06.06-.26.28-1.24.28-1.24.28-1.24.28-1.24.28-1.24.28-1.24c.12-.54-.22-1.07-.76-1.19l-1.24-.28c-.07-.02-.15-.02-.22-.02"/>
    <path class="cls-4" d="M121.72,42.82s-.07,0-.11-.01l-1.24-.28-2.47-.55c-.13-.03-.24-.11-.31-.22-.07-.11-.1-.25-.07-.38l.17-.75-.76-.17c-.27-.06-.44-.33-.38-.6l1.67-7.44c.05-.23.26-.39.49-.39.04,0,.07,0,.11.01l.75.17.17-.75c.05-.23.26-.39.49-.39.04,0,.07,0,.11.01l3.72.83c.13.03.24.11.32.22.07.11.09.25.06.38l-.17.75.75.17c.27.06.44.33.38.6l-.28,1.24-.27,1.24-1.12,4.97c-.05.23-.26.39-.49.39-.04,0-.07,0-.11-.01l-.75-.17-.17.75c-.03.13-.11.24-.22.32-.08.05-.17.08-.27.08M120.87,40.19l.72.16.16-.72.25-1.2.28-1.2.69-3.1-.71-.16-1.21-.29-.7-.15-.43,1.92-.28,1.2-.26,1.19-.28,1.21-.15.71,1.91.43Z"/>
    <path class="cls-13" d="M120.22,31.57l2.47.55,1.25.28-.28,1.24,1.24.28-.28,1.24-.27,1.24-.28,1.24-.55,2.48-.28,1.24-1.24-.28-.28,1.24-1.24-.28-2.48-.55.28-1.24-1.24-.28.27-1.24.28-1.25.28-1.24.28-1.24.28-1.24.28-1.24,1.24.28.28-1.24ZM121.97,40.94l.27-1.2.26-1.2.27-1.19.27-1.2.27-1.2.26-1.19-1.19-.26-1.2-.28-1.19-.26-.27,1.2-.27,1.2-.28,1.19-.26,1.19-.28,1.21-.25,1.2,2.39.54,1.21.26M120.21,30.57c-.46,0-.87.32-.98.78l-.06.26-.26-.06c-.07-.02-.15-.02-.22-.02-.46,0-.87.32-.98.78l-.27,1.24-.28,1.24-.28,1.24-.28,1.24-.28,1.24-.28,1.24c-.12.54.22,1.07.75,1.19l.27.06-.06.27c-.06.26-.01.53.13.75.14.22.37.38.63.44l2.47.55,1.24.28c.07.02.15.02.22.02.19,0,.37-.05.53-.15.22-.14.38-.37.44-.63l.06-.26.26.06c.07.02.15.02.22.02.46,0,.87-.31.97-.78l.28-1.24.55-2.48.28-1.24.27-1.26.28-1.23c.12-.54-.22-1.07-.76-1.19l-.26-.06.06-.26c.06-.26.01-.53-.13-.76-.14-.22-.37-.38-.63-.44l-1.25-.28-2.47-.55c-.07-.02-.15-.02-.22-.02M119.55,39.38l.05-.24.27-1.19.26-1.2.27-1.18.27-1.21.05-.23.22.05,1.19.28.23.05-.05.22-.27,1.2-.27,1.2-.27,1.19-.26,1.22-.05.22-.24-.05-1.42-.32Z"/>
    <polygon class="cls-6" points="8.62 47.8 11.4 49.99 10.61 50.99 11.61 51.77 10.82 52.77 11.83 53.56 11.03 54.57 12.03 55.36 11.24 56.35 12.24 57.14 10.83 58.92 9.84 58.13 9.05 59.13 8.05 58.34 7.27 59.34 6.26 58.55 5.47 59.55 4.47 58.77 3.68 59.76 .91 57.57 1.7 56.56 .7 55.78 2.9 53 3.89 53.79 4.68 52.79 5.68 53.58 5.84 53.36 4.85 52.58 5.63 51.58 4.64 50.79 6.84 48.01 7.83 48.79 8.62 47.8"/>
    <path class="cls-13" d="M3.77,60.46l-3.56-2.81.79-1L0,55.86l2.81-3.56,1,.79,1.12-1.42-1-.79,2.82-3.57,1,.79.79-1,3.56,2.81-.79,1,1,.79-.79,1,1,.79-.79,1.01,1,.79-.79,1,1,.79-2.03,2.56-1-.79-.79,1-1-.79-.79,1-1-.79-.79,1-1-.79-.79,1ZM1.61,57.49l1.99,1.57.79-1,1,.79.79-1,1.01.79.79-1,1,.79.79-1,1,.79.79-1-1-.79.79-1-1-.79.79-1-1-.79.79-1-1-.79.79-1-1.99-1.57-.79,1-1-.79-1.58,2,1,.79-.79,1,1,.79-.79,1-1-.79-.79,1-1-.79-1.57,1.99,1,.79-.79,1Z"/>
    <path class="cls-11" d="M238.98,57.24c-1.16.06-2.07-.34-2.29-.44-.28-.13-.56-.28-.82-.46-.61-.4-1.2-.89-1.8-1.45-.52-.49-1.04-1.02-1.58-1.58-.88-.9-1.81-1.84-2.85-2.71-.56-.47-1.17-.92-1.83-1.33-.48-.3-.99-.58-1.53-.83-.67-.31-1.24-.5-1.55-.6.01,0,.04-.02.05-.03,1.22-.82,2.3-1.21,3.03-1.41,1.04-.29,1.55-.24,1.74-.22,1.06.12,1.76.75,2.11,1.06.88.77,1.82,1.49,2.71,2.24.39.33.77.66,1.14,1.01,1.06,1.02,2.06,1.85,2.93,2.53.15.12.29.23.42.34,1.62,1.27,2.63,2.03,2.37,2.69-.01.03-.03.06-.05.09-.14.24-.4.47-.44.5-.61.51-1.34.57-1.75.59"/>
  </g>
</svg>