<?xml version="1.0" encoding="UTF-8"?>
<svg id="Layer_1" xmlns="http://www.w3.org/2000/svg" xmlns:xlink="http://www.w3.org/1999/xlink" viewBox="0 0 174.25 63.4">
  <defs>
    <style>
      .cls-1 {
        fill: none;
      }

      .cls-2 {
        fill: #3aaa4e;
      }

      .cls-3 {
        fill: #fff;
      }

      .cls-4 {
        fill: #363432;
      }

      .cls-5 {
        clip-path: url(#clippath);
      }
    </style>
    <clipPath id="clippath">
      <rect class="cls-1" y="0" width="174.25" height="63.4"/>
    </clipPath>
  </defs>
  <g class="cls-5">
    <path class="cls-4" d="M10.37,28.67c-1.46,0-2.79-.03-3.95-.09-3.42-.24-5.13-2.69-5.35-5-.22-2.48-.34-4.88-.34-7.17,0-3.16.22-6.15.66-9.12.37-2.65,2.5-4.62,5.22-4.79.98-.08,2.77-.14,4.38-.14,3.02,0,6.77,0,9.45,2.69,1.02,1.03,2.23,2.84,2.23,5.64,0,.96-.15,2.14-.64,3.37.73,1.26,1.23,2.84,1.23,4.84,0,9.07-9.88,9.78-12.9,9.78ZM10.77,18.46c0,.07,0,.14,0,.21.81-.02,1.42-.08,1.86-.15-.09-.08-.18-.15-.26-.23-.52.13-1.06.2-1.61.18ZM10.74,15.46s.04.01.06.02c-.02-.1-.04-.19-.05-.29,0,.09,0,.18,0,.27Z"/>
    <path class="cls-4" d="M24.7,28.63c-1,0-2.14,0-3.28-.14-2.44-.31-4.24-1.95-4.83-4.41-.38-1.62-.56-4.96-.56-7.39,0-4.93.51-8.48.94-10.02.65-2.33,2.63-3.98,5.03-4.17h.12c1.8-.1,3.86-.1,5.56,0h.12c2.97.24,5.14,2.68,5.01,5.61-.02.68-.16,1.25-.34,1.96-.28,1.13-.75,3.02-.75,5.38,0,2.69.49,4.72.76,5.81.16.67.29,1.2.29,1.9,0,2.82-2.14,5.11-4.99,5.36-1.15.11-2.25.12-3.09.12Z"/>
    <path class="cls-4" d="M31.72,28.97c-1.75,0-3.41-.77-4.92-2.29-1.05-1.06-1.63-2.44-1.63-3.89,0-.8.17-1.58.52-2.31-.18-.88-.27-1.81-.27-2.8,0-9.13,4.7-15.5,11.44-15.5,1.24,0,2.44.22,3.57.66.41-.1.84-.15,1.28-.15,1.49,0,2.7.6,3.48,1.05,1.81,1.08,2.84,2.86,2.84,4.79,0,.88-.21,1.75-.63,2.58.61,1.94.91,4.12.91,6.58,0,6.81-4.47,11.21-11.39,11.21-1.11,0-2.16-.1-3.14-.31-.79.32-1.52.4-2.03.4ZM27.06,18.48s-.02.03-.03.04l.03-.04ZM35.54,15.78c.89.27,1.88.24,2.65-.01-.03-.23-.06-.45-.1-.66-.78-.26-1.71-.25-2.44,0-.04.21-.08.44-.11.68Z"/>
    <path class="cls-4" d="M56.35,28.61c-.85,0-1.7-.02-2.28-.05-.44-.02-.85-.08-1.24-.17-.28.07-.57.11-.87.14-.94.07-2.02.08-2.76.08-.84,0-1.68-.03-2.44-.07-2.88-.2-4.98-2.21-5.26-5-.17-1.66-.4-4.24-.4-7.15,0-3.25.28-6.38.82-9.29l.03-.13c.5-2.34,2.3-4,4.71-4.35,1.3-.21,4.79-.26,5.23-.26,10.92,0,11.77,7.15,11.77,9.34,0,1.87-.44,3.39-1.06,4.63,1.49,3.22,1.64,6.69,1.64,6.74,0,2.93-2.22,5.29-5.15,5.49h-.14c-.55.03-1.57.05-2.6.05ZM51.45,22.5s0,.02,0,.03c0-.01,0-.02,0-.03ZM60.43,19.31s-.06.06-.08.08c.03-.03.06-.06.08-.08ZM51.28,12.37c-.04.38-.06.77-.09,1.16.4-.08.81-.11,1.21-.1.22-.36.48-.7.79-1.01-.34-.04-.77-.06-1.3-.06-.17,0-.38,0-.61,0Z"/>
    <path class="cls-4" d="M71.74,28.63c-.55,0-1.35-.02-2.04-.09h-.1c-.33-.06-.64-.12-.94-.2-.35.1-.71.18-1.09.21h-.11c-.93.08-2.21.09-2.72.09-.57,0-1.66,0-2.58-.08-2.69-.19-4.76-2.09-5.14-4.73-.4-2.76-.49-5.78-.49-7.82,0-1.63.07-7.14.91-9.64l.07-.18c.81-2.12,2.68-3.54,4.88-3.71h.19c1.2-.05,2.78-.06,3.77-.01.57.02,1.12.12,1.65.31.43-.15.89-.25,1.36-.3.99-.07,2.14-.08,2.74-.08s1.52.01,2.33.08c2.54.19,4.59,2.02,5.06,4.55.43,2.55.67,6.34.67,10.25,0,1.75-.05,4.26-.31,6.31l-.02.12c-.41,2.75-2.55,4.7-5.33,4.86-.92.07-2.36.07-2.78.07ZM73.88,18.58s-.04,0-.06,0c.02,0,.04,0,.06,0Z"/>
    <path class="cls-4" d="M83.9,28.67c-1.95,0-3.9-.04-5.36-.11-3.62-.17-5.38-2.92-5.49-5.4-.04-.93-.07-1.97-.07-3.07,0-4.6.42-9.35,1.14-13.03l.03-.16c.57-2.46,2.6-4.24,5.06-4.43,1.18-.09,3.29-.12,4.88-.12,1.06,0,3.69.01,5.32.14,2.82.18,5.01,2.46,5.01,5.3,0,1.84-1.54,5.74-1.55,5.77l-.13.27s-.04.08-.06.13c-.03.3-.08.61-.15.94.29.41.53.86.7,1.35.56,1.58,1.12,5.18,1.12,6.68,0,3.05-2.33,5.47-5.42,5.63-1.63.07-3.41.11-5.05.11ZM90.88,21.96h-.01s0,0,.01,0Z"/>
    <path class="cls-4" d="M98,29.01c-7.04,0-11.77-5.03-11.77-12.52,0-8.54,5.13-14.28,12.76-14.28,7.11,0,9.63,4.7,9.63,8.73,0,.79-.14,1.55-.42,2.28.07.26.12.53.15.8l.06.53c.17,1.51.33,3.06.33,4.83,0,5.67-4.42,9.63-10.74,9.63Z"/>
    <path class="cls-4" d="M110.31,28.63c-1,0-2.14,0-3.28-.14-2.44-.31-4.25-1.96-4.83-4.42-.38-1.61-.55-4.96-.55-7.38,0-4.93.51-8.48.94-10.02.64-2.33,2.62-3.98,5.03-4.17h.12c1.8-.1,3.86-.1,5.56,0h.12c2.97.24,5.13,2.68,5.01,5.6-.02.68-.17,1.25-.34,1.97-.28,1.13-.75,3.02-.75,5.38,0,2.69.49,4.72.76,5.81.16.67.29,1.2.29,1.9,0,2.82-2.14,5.11-4.99,5.36-1.15.11-2.25.12-3.09.12Z"/>
    <path class="cls-4" d="M121.54,28.65c-1.99,0-3.79-.05-4.69-.09-3.68-.18-5.45-2.92-5.55-5.4-.04-.95-.09-2.09-.09-3.3,0-3.38.17-8.33,1.01-12.74.48-2.6,2.56-4.46,5.16-4.63.71-.06,1.83-.07,2.62-.07,1.34,0,2.6.05,3.28.09,2.91.2,5.08,2.48,5.08,5.31,0,.75-.13,1.29-.55,3.07-.13.53-.33,1.37-.54,2.29,1.33.54,2.41,1.61,2.95,3.02.68,1.75,1.16,5.39,1.16,6.73,0,3.05-2.33,5.47-5.42,5.63-1.17.06-2.66.09-4.42.09ZM125.46,18.58s0,0,0,0c0,0,0,0,0,0ZM122.06,8.96s0,.02,0,.02c0,0,0-.02,0-.02Z"/>
    <path class="cls-4" d="M134.29,28.61c-.52,0-3.85-.02-4.5-.05-3.1-.18-4.44-2.2-4.87-3.07-.7-1.46-1.06-3.26-1.06-8.81,0-4.32.29-7.68.86-9.97l.05-.19c.66-2.25,2.47-3.8,4.73-4.05l.3-.02c1.19-.06,2.16-.09,2.98-.09,6.45,0,14.14,2.54,14.14,14.66,0,7.91-4.01,11.59-12.63,11.59ZM133.86,16.7c.91.24,2.09.15,3.05-.31-.02-.63-.08-1.16-.15-1.61-.93-.35-2.04-.37-2.87-.11-.02.61-.02,1.28-.02,2.01v.02Z"/>
    <path class="cls-4" d="M150.41,28.67c-1.95,0-3.9-.04-5.36-.11-3.62-.17-5.38-2.92-5.49-5.39-.04-.93-.07-1.97-.07-3.08,0-4.6.42-9.35,1.14-13.03l.03-.15c.57-2.47,2.6-4.25,5.07-4.44,1.18-.09,3.29-.12,4.88-.12,1.06,0,3.69.01,5.32.14,2.82.18,5.01,2.46,5.01,5.3,0,1.68-1.37,5.34-1.56,5.78l-.12.25s-.05.1-.07.15c-.03.29-.08.61-.15.94.29.41.53.86.71,1.35.56,1.58,1.12,5.18,1.12,6.68,0,3.05-2.33,5.47-5.42,5.63-1.63.07-3.42.11-5.05.11ZM157.4,21.96h-.01s0,0,.01,0Z"/>
    <path class="cls-4" d="M163.84,28.67c-.96,0-2.12-.05-2.97-.12-2.82-.21-4.93-2.27-5.26-5.15-.08-.64-.12-1.55-.12-2.91,0-1.08.03-2.07.08-2.95-1.62-.91-2.7-2.66-2.7-4.71,0-1.22.38-4.31.66-5.58l.09-.41.16-.39c.64-1.61,1.92-2.81,3.59-3.37,1.54-.51,4.06-.83,6.61-.83,2.08,0,4.98.21,6.96,1.21l.48.28c1.3.84,2.82,2.48,2.71,5.45-.05,1.52-.24,3.51-.45,4.7l-.1.43c-.39,1.44-1.3,2.6-2.48,3.29.15,1.23.35,2.3.51,3.14.18.98.31,1.62.31,2.32,0,2.73-1.93,4.97-4.69,5.43l-.16.02c-1.03.14-2.72.15-3.21.15ZM165.53,22.22h0s0,0,0,0Z"/>
    <path class="cls-4" d="M59.67,56.67c-1.09,0-2.37-.05-3.73-.11-1.5-.06-3.05-.12-4.49-.12-.73,0-1.52.04-2.17.08-.61.03-1.12.05-1.45.05-2.43,0-6.51-1.12-6.51-8.6,0-3.48.88-6.56,2.65-9.3-1.73-2.44-2.95-6.31-2.95-8.02,0-1.31.38-2.55,1.13-3.68,2.35-3.6,7.78-6.04,13.5-6.04,7.9,0,13.21,5.03,13.21,12.52,0,2.83-.63,5.07-1.75,6.94,1.2,1.78,1.89,4.08,1.89,6.43,0,5.71-3.93,9.85-9.34,9.85ZM64.86,46.12s-.01.01-.02.02c0,0,.01-.01.02-.02Z"/>
    <path class="cls-4" d="M76.4,57.06c-6.94,0-14.36-4.74-14.36-18.04,0-10.96,5.88-18.04,14.99-18.04,13.27,0,14.3,13.8,14.3,18.04,0,13.31-8.04,18.04-14.92,18.04Z"/>
    <path class="cls-4" d="M102.52,56.67c-1.09,0-2.37-.05-3.73-.11-1.5-.06-3.05-.12-4.49-.12-.73,0-1.52.04-2.17.08-.61.03-1.12.05-1.45.05-2.43,0-6.51-1.12-6.51-8.6,0-3.48.88-6.56,2.65-9.3-1.73-2.45-2.95-6.31-2.95-8.02,0-1.31.38-2.55,1.12-3.68,2.35-3.6,7.78-6.04,13.5-6.04,7.9,0,13.21,5.03,13.21,12.52,0,2.83-.63,5.07-1.75,6.94,1.2,1.78,1.89,4.08,1.89,6.43,0,5.71-3.93,9.85-9.34,9.85ZM107.7,46.12s0,0,0,0c0,0,0,0,0,0Z"/>
    <path class="cls-4" d="M118.39,57.06c-4.35,0-7.8-.98-10.55-2.99-2.01-1.43-3.03-3.32-3.03-5.61,0-1.6.72-3.9,1.43-5.7-.66-1.12-.8-2.24-.8-3.01,0-4.52.67-10.47,1.31-13.21.65-2.93,2.89-4.92,5.72-5.08,2-.11,4.34-.17,6.58-.17,2.38,0,5.04.06,7.49.17,3.25.18,5.56,2.64,5.56,5.85,0,1.37-.23,4.92-.79,7.29-.07.31-.15.61-.25.89,1.14,1.94,1.83,4.49,1.83,7.77,0,8.78-5.28,13.81-14.5,13.81Z"/>
    <path class="cls-2" d="M170.87,4.58l-.39-.22c-1.81-.91-4.54-1.1-6.51-1.1-2.92,0-5.16.4-6.29.78,0,0,0,0,0,0-.55-.3-1.16-.49-1.82-.53-1.1-.09-3.06-.14-5.24-.14-1.97,0-3.86.04-4.81.12-1.7.13-3.14,1.19-3.84,2.73-2.17-1.88-5.24-2.84-9.2-2.84-.8,0-1.76.03-2.93.09l-.24.02c-1.27.14-2.36.8-3.1,1.79-.74-.98-1.89-1.64-3.29-1.74-.71-.05-1.98-.09-3.21-.09-.78,0-1.87.01-2.56.07-.78.05-1.5.29-2.12.67-.6-.37-1.3-.62-2.09-.68-1.67-.09-3.59-.1-5.55,0-1.16.09-2.19.6-2.96,1.39-1.35-1.01-3.22-1.67-5.75-1.67s-4.7.69-6.51,1.91c-.74-.92-1.85-1.55-3.13-1.63-1.1-.09-3.06-.14-5.24-.14-1.97,0-3.86.04-4.81.12-.92.07-1.75.42-2.45.96-.69-.54-1.54-.89-2.49-.96-.77-.06-1.65-.07-2.25-.07s-1.71,0-2.65.08c-.51.04-1,.17-1.44.37-.64-.29-1.25-.37-1.69-.39-.97-.04-2.52-.04-3.7,0h-.15c-1.29.11-2.43.73-3.23,1.71-1.6-1.06-3.92-1.82-7.35-1.82-.42,0-3.86.05-5.09.25-.85.12-1.59.45-2.21.92-.73-.41-1.69-.86-2.88-.86-.46,0-.91.07-1.34.21-1.1-.47-2.27-.71-3.5-.71-2.23,0-4.21.79-5.83,2.2-.74-1.04-1.93-1.77-3.39-1.88-1.66-.09-3.58-.1-5.55,0-1.26.1-2.37.68-3.15,1.59-2.33-1.71-5.41-1.72-7.94-1.72-1.56,0-3.37.06-4.32.13-2.26.14-4.03,1.79-4.29,3.91-.44,2.94-.65,5.89-.65,9.01,0,2.26.11,4.63.33,7.08.17,1.76,1.4,3.89,4.4,4.1,1.14.06,2.45.09,3.9.09,3.78,0,6.35-.77,8.13-1.87.73.93,1.79,1.53,3.05,1.69,1.09.14,2.19.14,3.16.14.81,0,1.88-.01,2.99-.12.48-.04.92-.16,1.33-.33.87.52,1.77.78,2.69.78.48,0,1.19-.08,1.94-.44,1,.24,2.08.36,3.24.36,2.68,0,4.93-.69,6.65-1.95.12.14.25.27.38.4-.36.38-.67.77-.94,1.18-.64.96-.96,2.02-.96,3.13,0,1.67,1.37,5.83,3.19,7.99-1.94,2.73-2.89,5.82-2.89,9.33,0,6.28,3,7.6,5.51,7.6.31,0,.81-.02,1.4-.05.66-.03,1.47-.08,2.22-.08,1.45,0,3.02.06,4.53.12,1.35.05,2.62.11,3.69.11,3.11,0,5.67-1.55,7.1-4.03,2.59,3.12,6.16,4.42,9.62,4.42,4.18,0,7.25-1.53,9.43-3.86,1.02,2.68,3.06,3.37,4.86,3.37.31,0,.81-.02,1.4-.05.66-.03,1.47-.08,2.22-.08,1.45,0,3.02.06,4.53.12,1.35.05,2.62.11,3.69.11,2.37,0,4.42-.9,5.89-2.42,2.58,1.89,5.84,2.81,9.98,2.81,8.58,0,13.5-4.67,13.5-12.81,0-3.07-.7-5.66-1.97-7.63.18-.37.32-.79.42-1.25.51-2.16.73-5.31.76-6.78,1.19.01,2.8.02,3.2.02,3.14,0,5.6-.51,7.43-1.55.75.84,1.86,1.43,3.38,1.51,1.44.07,3.37.11,5.31.11,1.62,0,3.39-.04,5-.11,1.1-.06,2.07-.47,2.84-1.12.73.62,1.65,1.03,2.71,1.11.83.07,1.96.12,2.89.12.48,0,2.12-.01,3.08-.14l.13-.02c2.31-.39,3.86-2.18,3.86-4.45,0-.61-.11-1.18-.29-2.13-.18-.95-.44-2.32-.6-3.9,1.24-.48,2.2-1.55,2.59-2.97l.08-.35c.21-1.14.39-3.07.44-4.56.08-2.01-.68-3.55-2.25-4.57Z"/>
  </g>
  <g>
    <path class="cls-3" d="M6.68,23.59c-.29-.02-.59-.04-.63-.48-.21-2.32-.31-4.55-.31-6.7,0-3.12.23-5.9.61-8.42.04-.34.27-.48.59-.51.8-.06,2.43-.13,4.07-.13,2.94,0,4.82.13,5.91,1.22.5.51.78,1.2.78,2.11,0,1.49-.73,2.55-1.72,3.35-.19.17-.27.27-.27.4,0,.08.06.19.19.27,1.66,1.18,2.39,2.27,2.39,4.19,0,3.01-2.29,4.78-7.9,4.78-1.17,0-2.47-.02-3.69-.08ZM12.8,11.46c0-.67-.69-.88-1.26-.88-.25,0-.44.06-.59.21-.27.27-.4.84-.4,1.98,0,.42.08.69.4.69.59,0,1.85-1.01,1.85-2ZM13.01,17.76c0-.91-.36-1.64-.84-1.64-.27,0-.67.19-.99.44-.31.27-.44.76-.44,1.26,0,.78.1,1.16.27,1.33.13.13.27.15.46.15.61,0,1.53-.4,1.53-1.54Z"/>
    <path class="cls-3" d="M24.68,23.63c-.9,0-1.82,0-2.66-.1-.34-.04-.48-.17-.59-.61-.19-.8-.42-3.37-.42-6.23,0-4.78.5-7.77.75-8.65.1-.38.34-.53.61-.55.8-.04,1.64-.06,2.47-.06.88,0,1.76.02,2.56.06.27.02.42.15.4.42,0,.57-1.09,3.45-1.09,7.54,0,4.32,1.05,7.29,1.05,7.71,0,.25-.15.36-.44.38-.86.08-1.74.1-2.64.1Z"/>
    <path class="cls-3" d="M33.11,23.1c-.1-.04-.19-.06-.27-.06-.15,0-.27.08-.4.23-.08.13-.19.25-.27.38-.15.21-.27.32-.46.32-.48,0-1.03-.46-1.38-.82-.1-.11-.17-.21-.17-.36,0-.13.06-.25.19-.42.19-.23.4-.51.63-.8.08-.1.13-.23.13-.36,0-.11-.02-.23-.06-.34-.46-.93-.63-2.04-.63-3.2,0-5.52,2.2-10.51,6.44-10.51,1.32,0,2.45.48,3.4,1.35.1.1.19.15.27.15.1,0,.21-.08.29-.19.17-.23.29-.4.38-.51.17-.21.34-.29.5-.29.29,0,.69.21.99.38.21.13.34.27.34.46,0,.1-.04.23-.13.38-.23.34-.5.72-.86,1.24-.1.15-.19.29-.19.46,0,.08.02.17.08.29.99,1.96,1.36,4.27,1.36,6.78,0,3.39-1.53,6.21-6.39,6.21-1.57,0-2.83-.29-3.77-.78ZM37.76,12.28c0-.69-.52-1.31-.92-1.31-.67,0-1.28.78-1.28,3.83,0,.08,0,.19.02.25.02.06.06.1.13.1.08,0,.17-.06.25-.17.59-.72,1.2-1.47,1.66-2.21.1-.17.15-.34.15-.51ZM38.18,17.48c0-.48,0-.93-.02-1.35,0-.17-.08-.25-.17-.25-.06,0-.13.04-.21.13-.63.78-1.4,1.73-1.95,2.57-.08.15-.13.27-.13.42,0,.11.04.21.08.29.17.32.57.61,1.05.61.86,0,1.34-.69,1.34-2.42Z"/>
    <path class="cls-3" d="M47.32,7.56c.8-.13,3.58-.21,4.53-.21,3.92,0,6.77,1.05,6.77,4.34,0,1.85-.75,3.05-1.89,4.21-.1.11-.17.23-.17.34s.04.19.15.27c1.95,1.71,2.5,6.27,2.5,6.55,0,.32-.19.48-.5.51-.5.02-1.45.04-2.39.04-.78,0-1.55-.02-2.08-.04-.48-.02-.65-.15-.69-.44-.34-3.03-.63-4.7-1.36-4.7-.42,0-.65.55-.65,1.37,0,1.31.4,3.12.4,3.39,0,.23-.15.34-.4.36-.61.04-1.47.06-2.37.06-.71,0-1.45-.02-2.12-.06-.29-.02-.57-.08-.61-.51-.19-1.83-.38-4.11-.38-6.65s.19-5.45.73-8.38c.06-.29.23-.4.52-.44ZM51.74,15.33c.44,0,1.28-1.71,1.28-3.24,0-.8-.31-1.1-.71-1.1-.17,0-.36.06-.5.21-.31.32-.52,1.01-.52,2.44s.1,1.68.46,1.68Z"/>
    <path class="cls-3" d="M62.47,23.57c-.31-.02-.5-.15-.54-.44-.31-2.15-.44-4.72-.44-7.12,0-3.66.29-6.99.65-8.04.1-.27.29-.48.59-.51.55-.02,1.17-.04,1.78-.04s1.19.02,1.64.04c.21,0,.38.13.54.36.59.82,1.53,2.7,3.46,6.82.06.13.13.17.21.17.13,0,.23-.13.23-.32,0-3.12-1.22-5.92-1.22-6.59,0-.25.15-.42.4-.44.59-.04,1.45-.06,2.31-.06.71,0,1.4.02,1.93.06.29.02.48.15.54.48.38,2.25.59,5.92.59,9.33,0,2.15-.08,4.19-.27,5.69-.06.42-.29.59-.67.61-.59.04-1.59.06-2.49.06-.57,0-1.11-.02-1.49-.06-.48-.06-.63-.15-.71-.61-.44-2.48-1.26-4.38-2.31-5.98-.13-.17-.23-.25-.36-.25-.19,0-.27.25-.27.53,0,1.85.86,5.64.86,5.9,0,.32-.15.4-.38.42-.57.04-1.47.06-2.35.06-.82,0-1.64-.02-2.22-.06Z"/>
    <path class="cls-3" d="M78.74,23.57c-.46-.02-.71-.11-.73-.61-.04-.88-.06-1.85-.06-2.86,0-3.75.31-8.34,1.05-12.07.06-.27.27-.55.57-.57.84-.06,2.64-.1,4.51-.1s3.86.04,4.93.13c.31.02.4.15.4.32,0,.27-.65,2.63-1.15,3.81-.08.17-.21.23-.36.23-.19,0-.38-.06-.75-.21-.61-.23-1.41-.44-2.33-.44-.57,0-.96.13-1.24.4-.23.23-.34.53-.34.91,0,.4.19.61.54.61.71,0,1.61-.32,2.62-.32.78,0,1.3.11,1.3.46,0,.51-.54,2.76-.86,3.71-.08.25-.17.34-.34.34-.27,0-1.15-.32-1.99-.32-1.01,0-1.32.57-1.32,1.07,0,.72.4,1.03,1.32,1.03,1.74,0,2.79-.76,3.38-1.16.19-.13.25-.19.38-.19.1,0,.19.06.23.19.34.91.84,3.96.84,5.01,0,.36-.23.61-.67.63-1.43.06-3.15.11-4.8.11-1.95,0-3.82-.04-5.12-.11Z"/>
    <path class="cls-3" d="M96.58,15.17c0,3.12.61,4.04,1.51,4.04.57,0,.86-.46.86-1.07,0-.65-.33-1.07-.73-1.37-.15-.11-.21-.23-.21-.36,0-.15.08-.27.25-.38,1.09-.59,4.21-1.9,4.67-1.9.21,0,.38.15.42.48.17,1.56.36,3.1.36,4.76,0,2.84-2.05,4.63-5.75,4.63-4.26,0-6.77-2.78-6.77-7.52,0-5.05,2.37-9.29,7.76-9.29,3.44,0,4.63,1.6,4.63,3.73,0,.46-.21.82-.5,1.12-1.05,1.05-3.5,2.34-4.34,2.34-.19,0-.33-.13-.33-.38,0-.17.02-.46.02-.69,0-.69-.15-1.5-.71-1.5-.75,0-1.13,1.03-1.13,3.35Z"/>
    <path class="cls-3" d="M110.27,23.63c-.9,0-1.82,0-2.66-.1-.34-.04-.48-.17-.59-.61-.19-.8-.42-3.37-.42-6.23,0-4.78.5-7.77.75-8.65.11-.38.34-.53.61-.55.8-.04,1.63-.06,2.47-.06.88,0,1.76.02,2.56.06.27.02.42.15.4.42,0,.57-1.09,3.45-1.09,7.54,0,4.32,1.05,7.29,1.05,7.71,0,.25-.15.36-.44.38-.86.08-1.74.1-2.64.1Z"/>
    <path class="cls-3" d="M125.53,18.01c.36.88.82,3.87.82,4.93,0,.36-.23.61-.67.63-1.24.06-2.73.08-4.17.08-1.72,0-3.35-.04-4.51-.08-.46-.02-.71-.11-.73-.61-.04-.95-.08-2-.08-3.1,0-3.81.23-8.15.92-11.81.06-.34.25-.55.57-.57.5-.04,1.34-.06,2.31-.06,1.13,0,2.31.04,2.96.08.31.02.4.15.4.32,0,.53-1.89,7.2-1.89,9.96,0,1.01.25,1.26.92,1.26.82,0,1.76-.53,2.33-.97.27-.21.42-.27.54-.27s.23.04.29.21Z"/>
    <path class="cls-3" d="M129.95,23.57c-.36-.02-.52-.11-.63-.32-.29-.61-.52-2.19-.52-6.57s.31-7.16.71-8.76c.11-.36.29-.46.48-.48.82-.04,1.82-.08,2.73-.08,5.22,0,9.14,1.52,9.14,9.67,0,4.53-1.22,6.59-7.63,6.59-.78,0-3.82-.02-4.28-.04ZM136.57,16.05c0-2.93-1.01-4.21-1.68-4.21-.13,0-.25.04-.36.15-.27.27-.38,1.35-.38,3.43,0,2.61.23,3.58.55,3.9.12.13.25.17.38.17.63,0,1.49-.78,1.49-3.43Z"/>
    <path class="cls-3" d="M145.23,23.57c-.46-.02-.71-.11-.73-.61-.04-.88-.06-1.85-.06-2.86,0-3.75.31-8.34,1.05-12.07.06-.27.27-.55.57-.57.84-.06,2.64-.1,4.51-.1s3.86.04,4.93.13c.31.02.4.15.4.32,0,.27-.65,2.63-1.15,3.81-.08.17-.21.23-.36.23-.19,0-.38-.06-.75-.21-.61-.23-1.41-.44-2.33-.44-.57,0-.96.13-1.24.4-.23.23-.34.53-.34.91,0,.4.19.61.55.61.71,0,1.61-.32,2.62-.32.78,0,1.3.11,1.3.46,0,.51-.54,2.76-.86,3.71-.08.25-.17.34-.34.34-.27,0-1.15-.32-1.99-.32-1.01,0-1.32.57-1.32,1.07,0,.72.4,1.03,1.32,1.03,1.74,0,2.79-.76,3.38-1.16.19-.13.25-.19.38-.19.1,0,.19.06.23.19.34.91.84,3.96.84,5.01,0,.36-.23.61-.67.63-1.43.06-3.15.11-4.8.11-1.95,0-3.82-.04-5.12-.11Z"/>
    <path class="cls-3" d="M161.18,23.57c-.36-.02-.63-.19-.69-.74-.06-.51-.08-1.37-.08-2.34,0-3.85.46-6.49.46-7.18,0-.32-.08-.55-.5-.55-1.05,0-1.8.44-2.29.44-.17,0-.29-.1-.29-.38,0-.74.31-3.45.54-4.53.08-.21.23-.38.54-.48.69-.23,2.52-.57,5.01-.57,2.18,0,3.92.27,4.72.67.42.27.46.53.44,1.07-.04,1.33-.21,3.07-.38,4-.06.23-.15.32-.29.32-.34,0-1.01-.48-1.95-.48-.31,0-.46.17-.54.57-.04.23-.08.55-.08.95,0,4.34,1.03,7.94,1.03,8.72,0,.29-.15.44-.52.51-.46.06-1.51.11-2.54.11-.82,0-1.87-.04-2.58-.11Z"/>
  </g>
  <g>
    <path class="cls-3" d="M46.33,47.97c0-5.54,3.06-9.04,7.59-11.82,1.77-1.09,2.17-1.39,2.17-1.95,0-.4-.26-.63-.79-.63-1.51,0-3.84,1.42-5.75,2.74-.16.1-.33.17-.49.17-.26,0-.53-.13-.72-.36-1.28-1.49-2.3-4.82-2.3-5.48,0-.33.1-.63.3-.92,1.25-1.91,4.99-3.8,9.33-3.8,4.7,0,8.21,2.34,8.21,7.53,0,4.09-1.74,6.2-6.5,8.81-.95.53-1.61,1.02-1.61,1.62,0,.46.36.59,1.08.59s1.87-.26,2.92-.79c.56-.3,1.12-.66,1.54-1.09.2-.2.39-.26.59-.26s.43.1.59.26c.95.96,1.51,2.61,1.51,4.22,0,2.44-1.28,4.85-4.34,4.85-2.14,0-5.35-.23-8.21-.23-1.38,0-2.96.13-3.61.13-1.25,0-1.51-1.12-1.51-3.6Z"/>
    <path class="cls-3" d="M67.03,39.03c0-7.79,3.32-13.04,9.99-13.04s9.3,5.02,9.3,13.04c0,9.11-4.5,13.04-9.92,13.04s-9.36-3.93-9.36-13.04ZM78.2,38.3c0-3.73-.53-5.21-1.58-5.21s-1.54,1.49-1.54,5.21.43,5.31,1.54,5.31c1.18,0,1.58-1.55,1.58-5.31Z"/>
    <path class="cls-3" d="M89.18,47.97c0-5.54,3.06-9.04,7.59-11.82,1.77-1.09,2.17-1.39,2.17-1.95,0-.4-.26-.63-.79-.63-1.51,0-3.84,1.42-5.75,2.74-.16.1-.33.17-.49.17-.26,0-.53-.13-.72-.36-1.28-1.49-2.3-4.82-2.3-5.48,0-.33.1-.63.29-.92,1.25-1.91,4.99-3.8,9.33-3.8,4.7,0,8.21,2.34,8.21,7.53,0,4.09-1.74,6.2-6.5,8.81-.95.53-1.61,1.02-1.61,1.62,0,.46.36.59,1.08.59s1.87-.26,2.92-.79c.56-.3,1.12-.66,1.54-1.09.2-.2.39-.26.59-.26s.43.1.59.26c.95.96,1.51,2.61,1.51,4.22,0,2.44-1.28,4.85-4.34,4.85-2.14,0-5.36-.23-8.21-.23-1.38,0-2.96.13-3.61.13-1.25,0-1.51-1.12-1.51-3.6Z"/>
    <path class="cls-3" d="M112.74,26.45c1.77-.1,4.01-.17,6.31-.17,2.5,0,5.06.07,7.26.17.59.03.79.3.79.86,0,1.25-.23,4.32-.66,6.14-.13.59-.33.82-.66.82-.13,0-.39-.07-.72-.17-1.28-.43-3.61-1.15-5.72-1.15-.76,0-1.28.17-1.58.46s-.39.66-.39,1.16c0,.69.13,1.06.62,1.06.56,0,1.54-.33,3.45-.33,4.96,0,6.44,3.8,6.44,7.95,0,6.17-3.32,8.81-9.49,8.81-3.71,0-6.01-.86-7.62-2.05-.66-.46-.95-.86-.95-1.55,0-1.09,1.15-4.32,1.87-5.64.13-.26.36-.4.59-.4.2,0,.43.1.69.26,1.02.73,3.19,1.62,5.32,1.62,1.58,0,2.37-.56,2.37-1.58,0-.92-.56-1.52-2.4-1.52-1.15,0-3.25.3-4.63.3-.56,0-1.35-.2-2-.5-.89-.4-1.18-.73-1.18-1.25,0-4.09.62-9.7,1.18-12.11.17-.76.53-1.16,1.12-1.19Z"/>
  </g>
</svg>