<?xml version="1.0" encoding="UTF-8"?>
<svg id="Layer_1" xmlns="http://www.w3.org/2000/svg" xmlns:xlink="http://www.w3.org/1999/xlink" viewBox="0 0 210.92 98.61">
  <defs>
    <style>
      .cls-1, .cls-2, .cls-3, .cls-4, .cls-5, .cls-6 {
        fill: none;
      }

      .cls-2, .cls-3 {
        stroke-linecap: round;
        stroke-linejoin: round;
      }

      .cls-2, .cls-4 {
        stroke: #3aaa4e;
      }

      .cls-7 {
        fill: #3aaa4e;
      }

      .cls-8 {
        fill: #a2cc9d;
      }

      .cls-9 {
        fill: #3aaa50;
      }

      .cls-10 {
        fill: #3dc0c3;
      }

      .cls-3, .cls-5, .cls-6 {
        stroke: #363432;
      }

      .cls-11 {
        clip-path: url(#clippath-1);
      }

      .cls-12 {
        fill: #fff;
      }

      .cls-13 {
        fill: #75ba74;
      }

      .cls-4, .cls-6 {
        stroke-miterlimit: 10;
      }

      .cls-5 {
        stroke-width: 10px;
      }

      .cls-14 {
        fill: #363432;
      }

      .cls-15 {
        clip-path: url(#clippath);
      }
    </style>
    <clipPath id="clippath">
      <rect class="cls-1" y="0" width="210.92" height="98.61"/>
    </clipPath>
    <clipPath id="clippath-1">
      <rect class="cls-1" y="0" width="210.92" height="98.61"/>
    </clipPath>
  </defs>
  <line class="cls-4" x1="182.65" y1="44.38" x2="198.49" y2="60.22"/>
  <g class="cls-15">
    <path class="cls-12" d="M195.68,62.72c1.47,1.47,3.85,1.47,5.32,0s1.47-3.85,0-5.32c-1.47-1.47-3.85-1.47-5.32,0-1.47,1.47-1.47,3.85,0,5.32"/>
    <path class="cls-7" d="M195.32,63.08c-1.66-1.66-1.66-4.36,0-6.02s4.36-1.66,6.02,0,1.66,4.36,0,6.02c-1.66,1.66-4.36,1.66-6.02,0-1.66-1.66,1.66,1.66,0,0M200.64,57.76c-1.27-1.27-3.34-1.27-4.61,0s-1.27,3.34,0,4.61,3.34,1.27,4.61,0,1.27-3.34,0-4.61,1.27,1.27,0,0"/>
    <path class="cls-8" d="M208.73,29.15c.24-.52.38-1.11.27-1.71-.1-.52-.38-.93-.81-1.3-.76-.65-2.02-1.15-3.66-1.79-2.57-1.02-4.15-.86-4.69-.78-.21.03-.4.06-.59.1-.86-.69-1.87-1.51-2.93-2.53-.37-.35-.75-.69-1.14-1.01.23-.02.47-.04.72-.05,1.44-.1,3.89-.25,6.14.17,4.17.77,6.27,3.24,6.55,3.68.02.04.05.08.07.12.35.65.77,1.71.66,3.04-.07.8-.3,1.49-.59,2.07"/>
    <path class="cls-8" d="M190.95,37.59c-.55-.77-1.17-1.7-1.81-2.78-.24-.41-1.16-1.98-2.14-4.25-.59-1.37-1.14-3.14-2.23-6.68,0,0-.23-.75-.44-2.56-.1-.95-.1-1.49.24-2,.29-.44.7-.69.98-.82.31.1.88.29,1.55.6.54.25,1.05.53,1.53.83-.02.28,0,.63.06,1.02.08.5.22.92.36,1.23.17-.14.43-.34.75-.54.21-.14.43-.27.66-.39,1.05.87,1.98,1.81,2.85,2.71-.1,0-.2,0-.3,0-.6.22-1.79.75-2.83,1.9-.22.24-1.25,1.41-1.61,3.2-.34,1.72.14,2.99,1.11,5.55.52,1.35.85,2.23,1.27,2.98"/>
    <path class="cls-13" d="M208.67,34.64c-.77-2.28-1.16-3.07-1.49-3.53.04-.03.11-.08.17-.13.03-.03.07-.07.11-.1,0,0,0,0,0,0,.04-.04.1-.09.15-.15.04-.04.09-.08.13-.14.05-.06.1-.12.16-.18,0,0,0,0,0,0,0,0,0,0,0,0,.02-.02.03-.04.04-.06.05-.06.1-.13.16-.2.01-.02.03-.04.04-.06.03-.04.06-.08.09-.12.09-.12.17-.25.25-.39t0-.01s.01-.02.02-.02c.02-.04.04-.08.07-.12.04-.07.08-.14.11-.22,0,0,.01-.02.01-.03.29-.58.52-1.27.59-2.07.1-1.34-.32-2.4-.66-3.04-.02-.04-.05-.08-.07-.12.29.39.62.91.91,1.52.34.71.5,1.28.63,1.74.15.55.31,1.09.37,1.77.13,1.3-.13,2.34-.23,2.7-.39,1.4-1.11,2.42-1.6,2.98"/>
    <path class="cls-7" d="M195.26,47.16c-.22-.02-.84-.12-1.31-.61-.51-.54-.71-1.42-.37-2.06.34-.63.98-.6,1.18-1.16.19-.55-.24-1.12-.54-1.52-1.12-1.46-1.68-2.19-2.58-3.26-.26-.3-.47-.61-.66-.94,0,0,0-.01-.01-.02-.42-.74-.76-1.63-1.27-2.98-.97-2.56-1.45-3.84-1.11-5.55.35-1.79,1.38-2.96,1.61-3.2,1.04-1.15,2.23-1.68,2.83-1.9.1,0,.2,0,.31,0,.54.55,1.06,1.09,1.58,1.58-.07,0-.14-.01-.21-.02-.74.36-2.12,1.17-2.98,2.69-.91,1.61-.74,3.12-.51,5.14.07.58.22,1.81.75,3.27.23.63.53,1.32.92,2,.19.33.69,1.15,1.33,2.12,0,0,1.02,1.54,1.59,3.27.08.24.23.72-.02.99-.24.27-.63.09-.88.37-.32.35-.04,1.05.03,1.22.09.22.2.39.34.56"/>
    <path class="cls-8" d="M205.32,51.26c1.58-.71,2.58-1.62,3.29-2.31.92-.88,1.56-1.49,1.97-2.53.37-.93.35-1.69.32-2.82-.02-.66-.11-1.67-.75-4.12-.38-1.44-.7-2.46-1.12-3.74-.13-.41-.26-.77-.37-1.11-.77-2.28-1.16-3.07-1.48-3.53-.07-.1-.13-.18-.2-.26-.61-.76-1.3-1.33-1.79-1.75-.11-.1-.24-.21-.5-.39-.37-.28-.99-.72-2.2-1.57-.18-.12-.35-.24-.5-.35-.14.24-.4.47-.44.5-.61.51-1.34.57-1.75.59-1.16.05-2.07-.34-2.29-.44-.28-.13-.56-.28-.82-.46-.61-.4-1.2-.89-1.8-1.45-.07,0-.14-.01-.21-.02-.74.36-2.12,1.17-2.98,2.69-.91,1.61-.74,3.12-.51,5.14.07.58.22,1.81.75,3.27.23.64.53,1.32.92,2,.19.33.69,1.15,1.33,2.12,0,0,1.02,1.54,1.6,3.28.08.24.22.72-.02.99-.24.27-.63.09-.88.37-.32.35-.04,1.05.03,1.22.09.22.2.39.34.56.1.13.23.26.36.39.78.77,1,.81,1.48,1.28.7.68.58.91,1.38,1.82.26.29.71.84,1.2,1.12,1.97,1.14,4.72-.09,5.66-.51M204.28,30.61c-.12-.26.07-.5.37-.54.26-.04.54.06.68.24.15.2.11.46-.16.59-.32.15-.75,0-.89-.29M196.67,38.49c-.11-.27.03-.61.3-.76.29-.16.64-.06.76.22.13.29-.02.65-.33.8-.3.14-.63.02-.74-.26M200.41,51.05c-.14-.27-.03-.61.27-.76.31-.15.68-.03.82.27.13.29-.02.62-.32.75-.29.12-.63.01-.77-.25"/>
    <path class="cls-9" d="M204.7,28.71c-.37-.28-.99-.72-2.2-1.57-.18-.12-.35-.24-.5-.35.02-.03.03-.06.05-.09.26-.66-.75-1.42-2.37-2.69.63.23,1.4.59,2.17,1.15,1.67,1.21,2.48,2.7,2.85,3.54"/>
    <path class="cls-2" d="M203.03,28.91c-.4.03-5.08.43-7.28,4.05-.98,1.61-1.42,3.79-1.05,5.26.06.22.23.85.43,1.49.29.93.56,1.68.75,2.19"/>
    <path class="cls-9" d="M197.41,38.75c-.3.14-.63.02-.74-.26-.11-.27.03-.61.3-.76.29-.16.64-.06.76.22.13.29-.02.65-.33.8"/>
    <path class="cls-9" d="M204.28,30.61c-.12-.26.07-.5.37-.54.26-.04.54.06.68.25.15.2.11.46-.16.58-.32.14-.75,0-.89-.29"/>
    <path class="cls-9" d="M201.18,51.3c-.29.12-.63.01-.77-.25-.14-.27-.03-.61.28-.76.31-.15.68-.03.82.27.13.29-.02.62-.32.75"/>
    <polyline class="cls-4" points="112.38 64.49 142.65 80.78 179.21 69.79"/>
    <path class="cls-12" d="M180.09,73.45c1.99-.6,3.12-2.69,2.52-4.68-.6-1.99-2.69-3.12-4.68-2.52-1.99.6-3.12,2.69-2.52,4.68.6,1.99,2.69,3.12,4.68,2.52"/>
    <path class="cls-7" d="M180.23,73.93c-2.25.68-4.63-.6-5.31-2.85-.68-2.25.6-4.63,2.85-5.31,2.25-.68,4.63.6,5.31,2.85.68,2.25-.6,4.63-2.85,5.31-2.25.68,2.25-.68,0,0M178.07,66.73c-1.72.52-2.7,2.34-2.18,4.06.52,1.72,2.34,2.7,4.06,2.18,1.72-.52,2.7-2.34,2.18-4.06-.52-1.72-2.34-2.7-4.06-2.18-1.72.52,1.72-.52,0,0"/>
    <path class="cls-4" d="M113.41,22.18c5.53-4.27,11.06-8.53,16.58-12.8,8.1-1.68,16.2-3.37,24.29-5.05"/>
    <path class="cls-12" d="M154.85,8.05c2.03-.42,3.34-2.41,2.91-4.45-.42-2.03-2.41-3.34-4.45-2.92-2.03.42-3.34,2.41-2.92,4.45.42,2.03,2.41,3.34,4.45,2.92"/>
    <path class="cls-7" d="M154.95,8.54c-2.3.48-4.56-1-5.04-3.3-.48-2.3,1-4.56,3.3-5.04,2.3-.48,4.56,1,5.04,3.3.48,2.3-1,4.56-3.3,5.04-2.3.48,2.3-.48,0,0M153.42,1.18c-1.76.37-2.89,2.1-2.53,3.86.37,1.76,2.1,2.89,3.86,2.53,1.76-.37,2.89-2.1,2.53-3.86-.37-1.76-2.1-2.89-3.85-2.53s1.76-.37,0,0"/>
    <path class="cls-3" d="M56.18,82.44c2.58-2.32,3.32-5.88,1.95-8.53-1.3-2.53-4.25-3.72-6.44-3.52-.57.05-1.71.16-2.27,1.04-.44.69-.56,1.9.23,2.61.64.57,1.61.64,2.37.16-.8,1.09-.72,2.43,0,3.1.53.5,1.4.6,2.04.34,1.69-.69,2.47-4.24,1.63-7-1.23-4.02-5.2-3.71-6.45-7.35-1.07-3.11.96-6.32,1.89-9.47.7-2.37.35-5.57-1.98-9.65"/>
    <path class="cls-14" d="M26.33,66.31c3.69-3.37,7.9-4.53,10.63-4.91h.04c.08-.02.25-.05.48-.07.25-.03.58-.04.96-.04.27,0,.57.03.9.07l-.39.39c.04.08.07.17.08.27.04.46-.31.86-.77.9-2.36.2-6.92,1.07-10.81,4.62-1.77,1.63-3.2,3.58-4.21,5.83-.19.43-.68.62-1.11.42-.42-.19-.61-.69-.41-1.1,1.1-2.46,2.66-4.6,4.61-6.38"/>
    <path class="cls-6" d="M26.33,66.31c3.69-3.37,7.9-4.53,10.63-4.91h.04c.08-.02.25-.05.48-.07.25-.03.58-.04.96-.04.27,0,.57.03.9.07l-.39.39c.04.08.07.17.08.27.04.46-.31.86-.77.9-2.36.2-6.92,1.07-10.81,4.62-1.77,1.63-3.2,3.58-4.21,5.83-.19.43-.68.62-1.11.42-.42-.19-.61-.69-.41-1.1,1.1-2.46,2.66-4.6,4.61-6.38Z"/>
    <path class="cls-14" d="M36.18,64.38l-.12-.21c-.24-.42-.1-.96.32-1.21l5.11-3c.42-.25.96-.1,1.21.32l.12.21c.25.42.1.96-.32,1.21l-5.11,3c-.42.25-.96.1-1.21-.31"/>
    <path class="cls-6" d="M36.47,61.33h5.93c.49,0,.88.4.88.88v.24c0,.49-.4.88-.88.88h-5.92c-.49,0-.89-.4-.89-.89v-.24c0-.49.4-.88.88-.88Z" transform="translate(-26.12 28.52) rotate(-30.39)"/>
    <path class="cls-14" d="M36.87,95.79c2.46.11,4.85-.27,7.1-1.12,4.93-1.87,7.77-5.53,9.01-7.55.13-.21.33-.34.56-.38l-.05-.14s1.66-.1,1.49.35c-.1.25-.36.69-.56,1.02-.16.26-.28.45-.28.45-1.48,2.25-4.51,5.88-9.57,7.81-2.47.94-5.08,1.35-7.78,1.23-.46-.02-.81-.41-.79-.87.02-.46.41-.82.88-.8"/>
    <path class="cls-6" d="M36.87,95.79c2.46.11,4.85-.27,7.1-1.12,4.93-1.87,7.77-5.53,9.01-7.55.13-.21.33-.34.56-.38l-.05-.14s1.66-.1,1.49.35c-.1.25-.36.69-.56,1.02-.16.26-.28.45-.28.45-1.48,2.25-4.51,5.88-9.57,7.81-2.47.94-5.08,1.35-7.78,1.23-.46-.02-.81-.41-.79-.87.02-.46.41-.82.88-.8Z"/>
    <path class="cls-14" d="M50.74,88.32l.13.2c.26.41.81.53,1.22.27l4.99-3.21c.41-.26.53-.81.26-1.22l-.13-.2c-.26-.41-.81-.53-1.22-.26l-4.99,3.2c-.41.26-.53.81-.26,1.22"/>
    <path class="cls-6" d="M51.08,85.33h5.93c.49,0,.88.4.88.88v.24c0,.49-.4.88-.88.88h-5.93c-.49,0-.88-.4-.88-.88v-.24c0-.49.4-.88.88-.88Z" transform="translate(-38.13 42.98) rotate(-32.76)"/>
    <path class="cls-14" d="M36.02,67.03l-.27-.46c-.36-.62-.15-1.41.46-1.77l6.94-4.07c.62-.36,1.41-.15,1.77.46l.27.46c.36.62.15,1.41-.46,1.77l-6.94,4.07c-.61.36-1.41.15-1.77-.46"/>
    <path class="cls-6" d="M36.45,62.55h8.04c.72,0,1.3.58,1.3,1.3v.53c0,.72-.58,1.3-1.3,1.3h-8.05c-.72,0-1.3-.58-1.3-1.3v-.53c0-.72.58-1.3,1.3-1.3Z" transform="translate(-26.89 29.31) rotate(-30.41)"/>
    <path class="cls-14" d="M48.19,87.3l.29.45c.38.6,1.19.77,1.79.39l6.77-4.35c.6-.39.77-1.19.39-1.79l-.29-.45c-.39-.6-1.19-.77-1.79-.39l-6.77,4.35c-.6.39-.77,1.19-.39,1.79"/>
    <path class="cls-6" d="M48.79,83.08h8.05c.72,0,1.3.58,1.3,1.3v.53c0,.71-.58,1.29-1.29,1.29h-8.05c-.72,0-1.3-.58-1.3-1.3v-.53c0-.71.58-1.3,1.3-1.3Z" transform="translate(-37.41 42.05) rotate(-32.77)"/>
    <path class="cls-6" d="M36,96.59c-1.6-.12-6.31-.67-10.4-4.38-1.13-1.03-4.13-3.84-5.01-8.52-.91-4.88,1.03-8.88,1.54-9.89h0"/>
    <path class="cls-8" d="M25.69,66.94c3.69-3.37,7.9-4.53,10.63-4.91h.04c.08-.02.25-.05.48-.07.25-.02.58-.04.96-.04.27,0,.58.03.9.07l-.39.39c.04.08.07.17.08.27.04.46-.31.86-.77.9-2.36.2-6.92,1.06-10.81,4.62-1.77,1.63-3.2,3.58-4.21,5.83-.19.43-.68.62-1.11.42-.42-.19-.61-.68-.41-1.1,1.1-2.46,2.66-4.6,4.61-6.38"/>
    <path class="cls-6" d="M25.69,66.94c3.69-3.37,7.9-4.53,10.63-4.91h.04c.08-.02.25-.05.48-.07.25-.02.58-.04.96-.04.27,0,.58.03.9.07l-.39.39c.04.08.07.17.08.27.04.46-.31.86-.77.9-2.36.2-6.92,1.06-10.81,4.62-1.77,1.63-3.2,3.58-4.21,5.83-.19.43-.68.62-1.11.42-.42-.19-.61-.68-.41-1.1,1.1-2.46,2.66-4.6,4.61-6.38Z"/>
    <path class="cls-10" d="M35.55,65.01l-.12-.21c-.24-.42-.1-.96.32-1.21l5.11-3c.42-.25.96-.1,1.21.31l.12.21c.25.42.1.96-.31,1.21l-5.11,3c-.42.25-.96.1-1.21-.31"/>
    <path class="cls-6" d="M35.55,65.01l-.12-.21c-.24-.42-.1-.96.32-1.21l5.11-3c.42-.25.96-.1,1.21.31l.12.21c.25.42.1.96-.31,1.21l-5.11,3c-.42.25-.96.1-1.21-.31Z"/>
    <path class="cls-8" d="M36.24,96.42c2.46.11,4.85-.27,7.1-1.12,4.93-1.87,7.77-5.53,9.01-7.55.13-.21.33-.34.56-.38l-.05-.14s1.66-.1,1.49.35c-.1.25-.36.69-.56,1.02-.16.26-.28.45-.28.45-1.48,2.25-4.5,5.88-9.57,7.81-2.47.94-5.08,1.35-7.78,1.23-.46-.02-.81-.41-.79-.87.02-.46.41-.82.88-.8"/>
    <path class="cls-6" d="M36.24,96.42c2.46.11,4.85-.27,7.1-1.12,4.93-1.87,7.77-5.53,9.01-7.55.13-.21.33-.34.56-.38l-.05-.14s1.66-.1,1.49.35c-.1.25-.36.69-.56,1.02-.16.26-.28.45-.28.45-1.48,2.25-4.5,5.88-9.57,7.81-2.47.94-5.08,1.35-7.78,1.23-.46-.02-.81-.41-.79-.87.02-.46.41-.82.88-.8Z"/>
    <path class="cls-10" d="M50.11,88.95l.13.2c.26.41.81.53,1.22.27l4.99-3.2c.41-.26.53-.81.27-1.22l-.13-.2c-.26-.41-.81-.53-1.22-.27l-4.99,3.21c-.41.26-.53.81-.26,1.22"/>
    <path class="cls-6" d="M50.44,85.97h5.93c.49,0,.88.4.88.88v.24c0,.49-.4.88-.88.88h-5.93c-.49,0-.88-.39-.88-.88v-.24c0-.49.4-.88.88-.88Z" transform="translate(-38.57 42.74) rotate(-32.76)"/>
    <path class="cls-8" d="M35.38,67.67l-.27-.46c-.36-.62-.15-1.41.46-1.77l6.94-4.07c.62-.36,1.41-.15,1.77.46l.27.46c.36.62.15,1.41-.46,1.77l-6.94,4.07c-.61.36-1.41.15-1.77-.46"/>
    <path class="cls-6" d="M35.81,63.19h8.05c.72,0,1.3.58,1.3,1.3v.53c0,.72-.58,1.3-1.3,1.3h-8.05c-.72,0-1.3-.58-1.3-1.3v-.53c0-.72.58-1.3,1.3-1.3Z" transform="translate(-27.3 29.07) rotate(-30.41)"/>
    <path class="cls-8" d="M47.56,87.93l.29.45c.38.6,1.19.77,1.79.39l6.77-4.35c.6-.39.78-1.19.39-1.79l-.29-.45c-.38-.6-1.19-.77-1.79-.39l-6.77,4.35c-.6.39-.77,1.19-.39,1.79"/>
    <path class="cls-6" d="M48.15,83.72h8.05c.72,0,1.3.58,1.3,1.3v.53c0,.72-.58,1.3-1.3,1.3h-8.05c-.72,0-1.3-.58-1.3-1.3v-.53c0-.72.58-1.3,1.3-1.3Z" transform="translate(-37.85 41.81) rotate(-32.77)"/>
    <path class="cls-6" d="M35.36,97.22c-1.6-.12-6.31-.67-10.4-4.38-1.13-1.03-4.13-3.84-5.01-8.52-.91-4.88,1.03-8.88,1.54-9.89h0"/>
    <path class="cls-5" d="M32.33,35.55c-.19,0-.34-.02-.46-.15-.17-.17-.27-.55-.27-1.33,0-.5.13-.99.44-1.26.31-.25.71-.44.99-.44.48,0,.84.74.84,1.64,0,1.14-.92,1.54-1.53,1.54ZM31.81,29.72c-.32,0-.4-.27-.4-.69,0-1.14.13-1.7.4-1.98.15-.15.33-.21.59-.21.57,0,1.26.21,1.26.88,0,.99-1.26,2-1.84,2ZM31.22,39.93c5.62,0,7.9-1.77,7.9-4.78,0-1.92-.73-3.01-2.39-4.19-.13-.08-.19-.19-.19-.27,0-.13.08-.23.27-.4.99-.8,1.72-1.85,1.72-3.35,0-.91-.27-1.6-.78-2.11-1.09-1.09-2.98-1.22-5.91-1.22-1.63,0-3.27.06-4.07.13-.31.02-.55.17-.59.5-.38,2.53-.61,5.31-.61,8.42,0,2.15.1,4.38.32,6.7.04.44.33.46.63.48,1.21.06,2.51.08,3.69.08Z"/>
    <path class="cls-5" d="M48.2,39.78c.29-.02.44-.13.44-.38,0-.42-1.05-3.39-1.05-7.7,0-4.08,1.09-6.97,1.09-7.54.02-.27-.13-.4-.4-.42-.8-.04-1.68-.06-2.56-.06s-1.68.02-2.47.06c-.27.02-.5.17-.61.55-.25.89-.76,3.87-.76,8.65,0,2.86.23,5.43.42,6.23.1.44.25.57.59.61.84.1,1.76.1,2.66.1s1.78-.02,2.64-.1Z"/>
    <path class="cls-5" d="M57.72,36.16c-.48,0-.88-.29-1.05-.61-.04-.08-.08-.19-.08-.29,0-.15.04-.27.13-.42.55-.84,1.32-1.79,1.95-2.57.08-.08.15-.13.21-.13.08,0,.17.09.17.25.02.42.02.86.02,1.35,0,1.73-.48,2.42-1.34,2.42ZM58.49,29.04c-.46.74-1.07,1.49-1.66,2.21-.08.11-.17.17-.25.17-.06,0-.1-.04-.13-.1-.02-.06-.02-.17-.02-.25,0-3.05.61-3.83,1.28-3.83.4,0,.92.61.92,1.31,0,.17-.04.34-.15.51ZM57.76,40.14c4.86,0,6.39-2.82,6.39-6.21,0-2.51-.38-4.82-1.36-6.78-.06-.13-.08-.21-.08-.29,0-.17.08-.32.19-.46.36-.53.63-.9.86-1.24.08-.15.13-.27.13-.38,0-.19-.13-.34-.34-.46-.29-.17-.69-.38-.99-.38-.17,0-.34.08-.5.29-.08.1-.21.27-.38.5-.08.11-.19.19-.29.19-.08,0-.17-.04-.27-.15-.94-.86-2.08-1.35-3.4-1.35-4.23,0-6.44,4.99-6.44,10.5,0,1.16.17,2.27.63,3.2.04.1.06.23.06.34,0,.13-.04.25-.13.36-.23.29-.44.57-.63.8-.13.17-.19.29-.19.42,0,.15.06.25.17.36.36.36.9.82,1.38.82.19,0,.32-.11.46-.32.08-.13.19-.25.27-.38.13-.15.25-.23.4-.23.08,0,.17.02.27.06.94.48,2.2.78,3.77.78Z"/>
    <path class="cls-5" d="M72.18,29.91c0-1.43.21-2.13.52-2.44.15-.15.33-.21.5-.21.4,0,.71.29.71,1.1,0,1.54-.84,3.24-1.28,3.24-.36,0-.46-.32-.46-1.68ZM67.69,24.27c-.54,2.93-.73,5.79-.73,8.38s.19,4.82.38,6.65c.04.42.31.49.61.51.67.04,1.4.06,2.12.06.9,0,1.76-.02,2.37-.06.25-.02.4-.13.4-.36,0-.27-.4-2.08-.4-3.39,0-.82.23-1.37.65-1.37.73,0,1.03,1.66,1.36,4.69.04.3.21.42.69.44.52.02,1.3.04,2.07.04.94,0,1.89-.02,2.39-.04.31-.02.5-.19.5-.5,0-.28-.54-4.84-2.49-6.55-.11-.08-.15-.17-.15-.27s.06-.23.17-.34c1.13-1.16,1.89-2.36,1.89-4.21,0-3.28-2.85-4.34-6.77-4.34-.94,0-3.73.08-4.53.21-.29.04-.46.15-.52.44Z"/>
    <path class="cls-5" d="M85.59,39.89c.88,0,1.78-.02,2.35-.06.23-.02.38-.11.38-.42,0-.25-.86-4.04-.86-5.89,0-.27.08-.53.27-.53.13,0,.23.08.36.25,1.05,1.6,1.87,3.49,2.31,5.98.08.46.23.55.71.61.38.04.92.06,1.49.06.9,0,1.91-.02,2.49-.06.38-.02.61-.19.67-.61.19-1.49.27-3.54.27-5.68,0-3.41-.21-7.07-.59-9.33-.06-.34-.25-.46-.54-.48-.53-.04-1.22-.06-1.93-.06-.86,0-1.72.02-2.31.06-.25.02-.4.19-.4.44,0,.67,1.22,3.47,1.22,6.59,0,.19-.11.32-.23.32-.08,0-.15-.04-.21-.17-1.93-4.13-2.87-6-3.46-6.82-.17-.23-.33-.36-.54-.36-.44-.02-1.03-.04-1.64-.04s-1.24.02-1.78.04c-.29.02-.48.23-.59.51-.36,1.05-.65,4.38-.65,8.04,0,2.4.12,4.97.44,7.12.04.3.23.42.54.44.59.04,1.4.06,2.22.06Z"/>
    <path class="cls-5" d="M104.75,39.93c1.66,0,3.38-.04,4.8-.1.44-.02.67-.27.67-.63,0-1.05-.5-4.1-.84-5.01-.04-.13-.13-.19-.23-.19-.13,0-.19.06-.38.19-.59.4-1.63,1.16-3.37,1.16-.92,0-1.32-.31-1.32-1.03,0-.51.31-1.07,1.32-1.07.84,0,1.72.32,1.99.32.17,0,.25-.08.34-.34.31-.95.86-3.2.86-3.71,0-.36-.52-.46-1.3-.46-1.01,0-1.91.32-2.62.32-.36,0-.54-.21-.54-.61,0-.38.1-.67.34-.91.27-.27.67-.4,1.24-.4.92,0,1.72.21,2.33.44.38.15.57.21.75.21.15,0,.27-.06.36-.23.5-1.18,1.15-3.54,1.15-3.81,0-.17-.08-.3-.4-.32-1.07-.08-3.02-.13-4.93-.13s-3.67.04-4.51.1c-.29.02-.5.29-.57.57-.73,3.73-1.05,8.32-1.05,12.06,0,1.01.02,1.98.06,2.86.02.51.27.59.73.61,1.3.06,3.17.1,5.11.1Z"/>
    <path class="cls-5" d="M118.61,28.08c.57,0,.71.8.71,1.49,0,.23-.02.53-.02.69,0,.25.15.38.33.38.84,0,3.29-1.28,4.34-2.34.29-.29.5-.65.5-1.12,0-2.13-1.19-3.72-4.63-3.72-5.39,0-7.76,4.23-7.76,9.28,0,4.74,2.52,7.52,6.77,7.52,3.69,0,5.74-1.79,5.74-4.63,0-1.66-.19-3.2-.36-4.76-.04-.34-.21-.49-.42-.49-.46,0-3.58,1.31-4.67,1.89-.17.11-.25.23-.25.38,0,.13.06.25.21.36.4.29.73.72.73,1.37,0,.61-.29,1.07-.86,1.07-.9,0-1.51-.93-1.51-4.04,0-2.32.38-3.35,1.13-3.35Z"/>
    <path class="cls-5" d="M133.8,39.78c.29-.02.44-.13.44-.38,0-.42-1.05-3.39-1.05-7.7,0-4.08,1.09-6.97,1.09-7.54.02-.27-.13-.4-.4-.42-.8-.04-1.68-.06-2.56-.06s-1.68.02-2.47.06c-.27.02-.5.17-.61.55-.25.89-.76,3.87-.76,8.65,0,2.86.23,5.43.42,6.23.1.44.25.57.59.61.84.1,1.76.1,2.66.1s1.78-.02,2.64-.1Z"/>
    <path class="cls-5" d="M146.13,34.06c-.12,0-.27.06-.54.27-.57.44-1.51.97-2.33.97-.67,0-.92-.25-.92-1.26,0-2.76,1.89-9.43,1.89-9.96,0-.17-.08-.29-.4-.32-.65-.04-1.82-.08-2.96-.08-.96,0-1.8.02-2.31.06-.31.02-.5.23-.57.57-.69,3.66-.92,8-.92,11.81,0,1.1.04,2.15.08,3.1.02.51.27.59.73.61,1.15.04,2.79.08,4.51.08,1.45,0,2.93-.02,4.17-.08.44-.02.67-.27.67-.63,0-1.05-.46-4.04-.82-4.93-.06-.17-.17-.21-.29-.21Z"/>
    <path class="cls-5" d="M156,35.74c-.13,0-.25-.04-.38-.17-.31-.32-.54-1.28-.54-3.89,0-2.08.11-3.16.38-3.43.11-.11.23-.15.36-.15.67,0,1.68,1.28,1.68,4.21,0,2.65-.86,3.43-1.49,3.43ZM155.14,39.87c6.41,0,7.63-2.06,7.63-6.59,0-8.15-3.92-9.66-9.14-9.66-.9,0-1.91.04-2.72.08-.19.02-.38.13-.48.48-.4,1.6-.71,4.34-.71,8.76s.23,5.96.52,6.57c.1.21.27.29.63.31.46.02,3.5.04,4.28.04Z"/>
    <path class="cls-5" d="M171.26,39.93c1.66,0,3.38-.04,4.8-.1.44-.02.67-.27.67-.63,0-1.05-.5-4.1-.84-5.01-.04-.13-.13-.19-.23-.19-.13,0-.19.06-.38.19-.59.4-1.64,1.16-3.38,1.16-.92,0-1.32-.31-1.32-1.03,0-.51.32-1.07,1.32-1.07.84,0,1.72.32,1.99.32.17,0,.25-.08.33-.34.32-.95.86-3.2.86-3.71,0-.36-.52-.46-1.3-.46-1.01,0-1.91.32-2.62.32-.36,0-.54-.21-.54-.61,0-.38.1-.67.34-.91.27-.27.67-.4,1.24-.4.92,0,1.72.21,2.33.44.38.15.57.21.75.21.15,0,.27-.06.36-.23.5-1.18,1.15-3.54,1.15-3.81,0-.17-.08-.3-.4-.32-1.07-.08-3.02-.13-4.93-.13s-3.67.04-4.51.1c-.29.02-.5.29-.57.57-.73,3.73-1.05,8.32-1.05,12.06,0,1.01.02,1.98.06,2.86.02.51.27.59.73.61,1.3.06,3.16.1,5.11.1Z"/>
    <path class="cls-5" d="M184.7,39.93c1.03,0,2.07-.04,2.54-.1.38-.06.53-.21.53-.51,0-.78-1.03-4.38-1.03-8.72,0-.4.04-.72.08-.95.08-.4.23-.57.54-.57.94,0,1.61.48,1.95.48.15,0,.23-.08.29-.32.17-.93.34-2.67.38-4,.02-.55-.02-.8-.44-1.07-.8-.4-2.54-.67-4.72-.67-2.49,0-4.32.34-5.01.57-.31.11-.46.27-.54.49-.23,1.07-.54,3.79-.54,4.53,0,.27.13.38.29.38.48,0,1.24-.44,2.29-.44.42,0,.5.23.5.55,0,.69-.46,3.33-.46,7.18,0,.97.02,1.83.08,2.34.06.55.34.72.69.74.71.06,1.76.1,2.58.1Z"/>
    <path class="cls-5" d="M68.7,67.82c.66,0,2.23-.13,3.61-.13,2.86,0,6.08.23,8.22.23,3.06,0,4.34-2.41,4.34-4.85,0-1.62-.56-3.27-1.51-4.22-.16-.17-.39-.26-.59-.26s-.4.07-.59.26c-.43.43-.99.79-1.54,1.09-1.05.53-2.17.79-2.92.79s-1.08-.13-1.08-.59c0-.59.66-1.09,1.61-1.62,4.76-2.61,6.51-4.72,6.51-8.81,0-5.18-3.51-7.52-8.21-7.52-4.34,0-8.08,1.88-9.33,3.79-.2.3-.3.59-.3.92,0,.66,1.02,3.99,2.3,5.48.2.23.46.36.72.36.16,0,.33-.07.49-.17,1.91-1.32,4.24-2.74,5.75-2.74.53,0,.79.23.79.63,0,.56-.39.86-2.17,1.95-4.54,2.77-7.59,6.27-7.59,11.81,0,2.47.26,3.6,1.51,3.6Z"/>
    <path class="cls-5" d="M97.25,68.32c5.42,0,9.92-3.93,9.92-13.04,0-8.02-2.79-13.03-9.3-13.03s-9.99,5.25-9.99,13.03c0,9.11,4.07,13.04,9.36,13.04ZM97.48,59.87c-1.12,0-1.54-1.45-1.54-5.31s.53-5.22,1.54-5.22,1.58,1.49,1.58,5.22-.39,5.31-1.58,5.31Z"/>
    <path class="cls-5" d="M111.55,67.82c.66,0,2.23-.13,3.61-.13,2.86,0,6.08.23,8.22.23,3.06,0,4.34-2.41,4.34-4.85,0-1.62-.56-3.27-1.51-4.22-.16-.17-.39-.26-.59-.26s-.39.07-.59.26c-.43.43-.99.79-1.54,1.09-1.05.53-2.17.79-2.92.79s-1.08-.13-1.08-.59c0-.59.66-1.09,1.61-1.62,4.76-2.61,6.51-4.72,6.51-8.81,0-5.18-3.52-7.52-8.21-7.52-4.34,0-8.08,1.88-9.33,3.79-.2.3-.3.59-.3.92,0,.66,1.02,3.99,2.3,5.48.2.23.46.36.72.36.16,0,.33-.07.49-.17,1.91-1.32,4.24-2.74,5.75-2.74.53,0,.79.23.79.63,0,.56-.39.86-2.17,1.95-4.54,2.77-7.59,6.27-7.59,11.81,0,2.47.26,3.6,1.51,3.6Z"/>
    <path class="cls-5" d="M132.47,43.9c-.56,2.41-1.18,8.02-1.18,12.11,0,.53.3.86,1.18,1.25.66.3,1.45.49,2,.49,1.38,0,3.48-.3,4.63-.3,1.84,0,2.4.59,2.4,1.52,0,1.02-.79,1.58-2.37,1.58-2.14,0-4.3-.89-5.32-1.62-.26-.17-.49-.26-.69-.26-.23,0-.46.13-.59.4-.72,1.32-1.87,4.55-1.87,5.64,0,.69.3,1.09.95,1.55,1.61,1.19,3.91,2.05,7.62,2.05,6.18,0,9.49-2.64,9.49-8.81,0-4.16-1.48-7.95-6.44-7.95-1.91,0-2.89.33-3.45.33-.49,0-.62-.36-.62-1.06,0-.49.1-.86.39-1.16.3-.3.82-.46,1.58-.46,2.1,0,4.44.73,5.72,1.16.33.1.59.17.72.17.33,0,.53-.23.66-.83.43-1.81.66-4.88.66-6.14,0-.56-.2-.82-.79-.86-2.2-.1-4.76-.17-7.26-.17-2.3,0-4.53.07-6.31.17-.59.03-.95.43-1.12,1.19Z"/>
    <path class="cls-7" d="M193.98,25.4c-.05,1.49-.24,3.42-.44,4.56l-.08.35c-.39,1.43-1.35,2.49-2.59,2.97.16,1.58.42,2.95.6,3.9.18.95.29,1.53.29,2.14,0,2.27-1.55,4.06-3.86,4.45l-.13.02c-.96.13-2.6.14-3.07.14-.94,0-2.07-.05-2.9-.12-1.04-.07-1.97-.46-2.7-1.08-.76.64-1.74,1.03-2.84,1.09-1.61.07-3.38.11-5,.11-1.93,0-3.87-.04-5.31-.11-1.51-.08-2.63-.67-3.37-1.51-1.83,1.06-4.3,1.55-7.44,1.55-.4,0-2,0-3.19-.02-.03,1.48-.25,4.63-.76,6.78-.11.47-.25.88-.42,1.25,1.27,1.97,1.97,4.56,1.97,7.64,0,8.14-4.92,12.81-13.5,12.81-4.13,0-7.39-.92-9.96-2.81-1.48,1.52-3.54,2.41-5.91,2.41-1.07,0-2.34-.05-3.68-.1-1.52-.07-3.08-.13-4.53-.13-.75,0-1.56.04-2.22.08-.58.03-1.08.05-1.4.05-1.79,0-3.83-.67-4.86-3.33-2.19,2.33-5.26,3.83-9.43,3.83-3.46,0-7.05-1.29-9.62-4.41-1.43,2.47-3.99,4.01-7.1,4.01-1.07,0-2.34-.05-3.69-.11-1.51-.06-3.07-.12-4.52-.12-.75,0-1.56.04-2.22.08-.59.03-1.08.05-1.4.05-2.51,0-5.51-1.32-5.51-7.59,0-3.52.95-6.61,2.89-9.34-1.81-2.16-3.19-6.32-3.19-7.99,0-1.12.33-2.17.97-3.14.26-.4.57-.79.92-1.16-.14-.13-.26-.26-.37-.4-1.72,1.25-3.97,1.94-6.65,1.94-1.16,0-2.24-.12-3.24-.36-.75.36-1.46.44-1.94.44-.92,0-1.82-.26-2.68-.78h-.01c-.41.17-.86.28-1.34.32-1.11.11-2.18.12-2.99.12-.97,0-2.07,0-3.16-.13-1.26-.16-2.32-.75-3.05-1.68-1.77,1.1-4.36,1.86-8.13,1.86-1.44,0-2.75-.03-3.89-.09-3.01-.22-4.24-2.34-4.41-4.1-.22-2.44-.33-4.82-.33-7.08,0-3.12.21-6.07.65-9.01.26-2.11,2.03-3.76,4.29-3.9.95-.08,2.76-.14,4.32-.14,2.53,0,5.61,0,7.94,1.72.78-.9,1.9-1.48,3.16-1.58,1.96-.11,3.88-.09,5.55-.01h.09c1.4.12,2.58.83,3.3,1.87,1.62-1.41,3.6-2.19,5.83-2.19,1.22,0,2.4.24,3.5.71.43-.13.88-.2,1.34-.2,1.18,0,2.14.44,2.87.85.62-.47,1.37-.79,2.22-.92,1.23-.19,4.68-.25,5.1-.25,3.42,0,5.76.75,7.36,1.82.77-.99,1.92-1.61,3.21-1.7h.16c1.18-.05,2.73-.06,3.7-.01.45.01,1.05.1,1.69.39.45-.2.93-.33,1.45-.38.94-.07,2.06-.08,2.65-.08s1.48.02,2.25.08c.95.07,1.81.4,2.49.94.69-.53,1.53-.87,2.45-.94.95-.07,2.83-.12,4.8-.12,2.18,0,4.14.05,5.24.14,1.28.08,2.4.69,3.14,1.61,1.8-1.23,4-1.9,6.5-1.9s4.41.65,5.76,1.66c.77-.79,1.8-1.28,2.95-1.37,1.96-.11,3.88-.09,5.55-.01.79.06,1.5.3,2.11.66.62-.38,1.33-.61,2.1-.65.69-.06,1.78-.08,2.56-.08,1.23,0,2.5.05,3.21.1,1.39.1,2.55.74,3.28,1.71.75-.97,1.84-1.62,3.11-1.76l.23-.02c1.17-.06,2.13-.09,2.93-.09,3.95,0,7.03.95,9.2,2.83.7-1.54,2.14-2.58,3.84-2.71.94-.07,2.83-.12,4.8-.12,2.18,0,4.14.05,5.24.14.67.05,1.29.23,1.83.53,1.13-.37,3.36-.77,6.28-.77,1.97,0,4.71.19,6.51,1.1l.39.22c1.57,1.02,2.33,2.56,2.26,4.57Z"/>
  </g>
  <g class="cls-11">
    <line class="cls-4" x1="156.72" y1="59.41" x2="161.53" y2="59.41"/>
    <line class="cls-4" x1="164.45" y1="59.41" x2="169.25" y2="59.41"/>
    <line class="cls-4" x1="162.99" y1="65.67" x2="162.99" y2="60.87"/>
    <line class="cls-4" x1="162.99" y1="57.95" x2="162.99" y2="53.14"/>
    <path class="cls-4" d="M182.85,53.48c0,2.99-2.42,5.41-5.41,5.41s-5.41-2.42-5.41-5.41,2.42-5.41,5.41-5.41,5.41,2.42,5.41,5.41Z"/>
    <path class="cls-8" d="M21.23,15.09c-.14,0-.29-.06-.39-.18-1.75-2.1-2.54-2.85-3.48-2.85-.79,0-1.81.5-3.67,1.56-.08.05-.16.07-.25.07-.16,0-.31-.08-.41-.21-.15-.21-.11-.5.09-.67,3.54-2.95,3.57-3.15,1.29-7.15-.13-.22-.06-.51.15-.66.09-.06.19-.09.29-.09.14,0,.29.06.38.18,1.75,2.11,2.54,2.85,3.48,2.85.79,0,1.81-.5,3.67-1.56.08-.05.16-.07.25-.07.16,0,.32.08.41.21.15.21.11.5-.09.67-3.54,2.95-3.58,3.15-1.29,7.15.13.22.06.51-.15.66-.09.06-.19.09-.28.09"/>
    <path class="cls-14" d="M14.85,5.41c1.74,2.09,2.65,3.03,3.86,3.03.94,0,2.07-.58,3.91-1.63-3.72,3.1-3.81,3.57-1.4,7.78-1.74-2.09-2.65-3.03-3.86-3.03-.94,0-2.07.58-3.91,1.63,3.72-3.1,3.81-3.58,1.4-7.78M14.85,4.41c-.2,0-.4.06-.57.18-.43.3-.56.87-.3,1.32q2.14,3.75-1.17,6.51c-.4.33-.48.91-.18,1.34.19.28.5.43.82.43.17,0,.34-.04.5-.13,1.74-.99,2.74-1.5,3.42-1.5.75,0,1.52.79,3.1,2.67.2.24.48.36.77.36.2,0,.4-.06.57-.18.43-.3.55-.87.3-1.32q-2.14-3.75,1.17-6.51c.4-.33.48-.91.18-1.34-.19-.28-.5-.43-.82-.43-.17,0-.34.04-.5.13-1.74.99-2.74,1.5-3.42,1.5-.75,0-1.53-.79-3.1-2.67-.2-.24-.48-.36-.77-.36"/>
    <path class="cls-10" d="M30.61,13.95c-.08,0-.16-.02-.24-.06-.23-.12-.32-.4-.22-.64,2.38-5.4,2.28-5.74-2.63-9.02-.22-.14-.29-.43-.16-.66.09-.17.26-.26.44-.26.07,0,.14.01.2.04,2.28,1,3.62,1.51,4.63,1.51,1.4,0,2.28-.98,4.39-4.14.1-.14.25-.22.42-.22.08,0,.16.02.24.06.23.12.32.4.22.64-2.38,5.4-2.28,5.74,2.63,9.02.22.14.28.43.16.66-.09.17-.26.26-.44.26-.07,0-.14-.01-.2-.04-2.28-1-3.62-1.51-4.63-1.51-1.4,0-2.28.98-4.39,4.14-.1.14-.25.22-.42.22"/>
    <path class="cls-14" d="M37.44,1c-2.48,5.63-2.31,6.22,2.81,9.64-2.24-.99-3.69-1.56-4.83-1.55-1.72,0-2.76,1.29-4.81,4.36,2.48-5.63,2.31-6.22-2.81-9.64,2.25.99,3.69,1.55,4.83,1.55,1.72,0,2.76-1.29,4.81-4.36M37.44,0c-.32,0-.64.16-.83.44-2,2.99-2.81,3.92-3.98,3.92-.92,0-2.21-.49-4.43-1.47-.13-.06-.27-.08-.4-.08-.36,0-.7.19-.88.52-.25.45-.11,1.02.32,1.31,4.71,3.15,4.73,3.22,2.45,8.41-.21.48-.02,1.03.43,1.28.15.08.32.12.48.12.32,0,.64-.16.83-.44,2-2.99,2.81-3.92,3.98-3.92.92,0,2.21.49,4.43,1.47.13.06.27.08.4.08.36,0,.7-.19.88-.52.25-.46.11-1.02-.32-1.31-4.71-3.15-4.73-3.22-2.45-8.41.21-.47.02-1.03-.44-1.28C37.77.04,37.61,0,37.44,0"/>
    <path class="cls-10" d="M15.59,66.2c-.48,0-.69-.43-.92-.89-.23-.46-.54-1.09-1.15-1.53-.61-.44-1.31-.54-1.81-.61-.5-.07-1.07-.15-1.16-.7-.09-.55.43-.81.89-1.04.47-.23,1.12-.55,1.56-1.18.42-.61.51-1.28.58-1.78.06-.49.14-1.05.69-1.15.03,0,.08-.01.11-.01.48,0,.69.43.91.88.23.46.54,1.09,1.15,1.53.61.44,1.31.54,1.81.61.5.07,1.07.15,1.16.7.09.55-.42.8-.88,1.03-.46.23-1.09.53-1.53,1.15-.44.61-.54,1.31-.61,1.81-.07.5-.15,1.07-.7,1.16-.03,0-.08,0-.11,0"/>
    <path class="cls-14" d="M14.38,57.83c.4,0,.55,1.44,1.77,2.32,1.26.9,2.7.55,2.77.98.07.43-1.41.55-2.32,1.8-.91,1.25-.55,2.7-.98,2.77-.01,0-.02,0-.03,0-.41,0-.55-1.44-1.77-2.32-1.25-.91-2.7-.55-2.77-.98-.07-.44,1.46-.56,2.36-1.85.87-1.24.52-2.65.93-2.72.01,0,.02,0,.03,0M14.38,56.83c-.06,0-.14,0-.19.02-.91.15-1.03,1.08-1.1,1.58-.06.47-.14,1.05-.49,1.56-.37.53-.93.8-1.37,1.02-.49.24-1.31.65-1.16,1.57.15.91,1.05,1.04,1.58,1.11.48.07,1.08.15,1.59.52.51.37.78.91.99,1.34.24.49.58,1.17,1.37,1.17.05,0,.14,0,.19-.02.91-.15,1.04-1.05,1.11-1.58.07-.48.15-1.08.52-1.59.37-.51.91-.78,1.35-.99.48-.24,1.3-.64,1.15-1.56-.15-.91-1.05-1.04-1.58-1.11-.48-.07-1.08-.15-1.59-.52-.51-.37-.78-.91-1-1.35-.24-.49-.57-1.16-1.36-1.16"/>
    <path class="cls-8" d="M27,56.19c-.35,0-.61-.25-.94-.57-.37-.36-.87-.85-1.59-1.06-.26-.07-.52-.11-.8-.11-.41,0-.8.08-1.11.14-.24.05-.45.09-.64.09-.42,0-.61-.23-.68-.37-.27-.49.14-.91.49-1.27.37-.38.87-.89,1.08-1.64.2-.71.06-1.38-.05-1.87-.1-.49-.22-1.04.26-1.31.07-.04.24-.08.33-.08.35,0,.61.25.93.56.37.36.87.85,1.6,1.06.26.07.52.11.8.11.41,0,.8-.08,1.11-.14.24-.05.45-.09.64-.09.42,0,.61.23.68.37.27.49-.13.9-.49,1.26-.36.37-.85.87-1.06,1.59-.21.72-.07,1.41.03,1.91.1.49.22,1.05-.27,1.32-.07.04-.24.08-.32.08"/>
    <path class="cls-14" d="M23.35,48.66c.38,0,1.01,1.2,2.39,1.61.33.1.65.13.94.13.77,0,1.41-.24,1.75-.24.12,0,.2.03.24.1.21.38-1.15.99-1.58,2.47-.43,1.48.38,2.73,0,2.94-.03.01-.05.02-.08.02-.39,0-1.01-1.2-2.39-1.61-.33-.1-.65-.13-.94-.13-.77,0-1.41.24-1.75.24-.12,0-.2-.03-.24-.11-.21-.39,1.19-1.02,1.61-2.53.41-1.46-.4-2.67-.03-2.87.03-.01.05-.02.08-.02M23.35,47.66c-.2,0-.39.05-.57.15-.81.45-.61,1.36-.51,1.85.1.46.22,1.04.06,1.63-.17.62-.6,1.07-.95,1.42-.38.39-1.02,1.05-.57,1.86.1.19.42.62,1.12.62.24,0,.47-.05.74-.1.3-.06.64-.13,1.01-.13.24,0,.45.03.66.09.61.18,1.04.6,1.38.94.36.35.73.71,1.28.71.2,0,.39-.05.56-.14.81-.44.63-1.33.52-1.86-.1-.47-.22-1.06-.04-1.67.18-.61.6-1.04.94-1.38.38-.39,1.01-1.04.57-1.85-.1-.19-.42-.63-1.12-.63-.24,0-.47.05-.74.1-.3.06-.65.13-1.01.13-.24,0-.45-.03-.66-.09-.61-.18-1.04-.6-1.39-.94-.36-.35-.73-.71-1.28-.71"/>
    <path class="cls-8" d="M67.82,92.37c-.21,0-.41-.14-.48-.35l-3.07-9.7c-.08-.26.06-.54.33-.63l1.21-.38c.05-.01.1-.02.15-.02.21,0,.41.14.48.35l2.53,8.01,4.37-1.38c.05-.02.1-.02.15-.02.21,0,.41.14.48.35l.38,1.21c.08.26-.06.55-.33.63l-6.06,1.92c-.05.01-.1.02-.15.02"/>
    <path class="cls-14" d="M65.96,81.8l.38,1.21.38,1.21.38,1.21.38,1.21h0s.38,1.21.38,1.21h0s.38,1.21.38,1.21l.38,1.21h0l1.21-.38h0l1.21-.38h0l1.21-.38,1.21-.38.38,1.21-1.21.38-1.21.38h0s-1.21.38-1.21.38l-1.21.38h0l-1.21.38h0l-.38-1.21-.38-1.21-.38-1.21-.38-1.21h0s-.38-1.21-.38-1.21h0s-.38-1.21-.38-1.21h0s-.38-1.21-.38-1.21l-.38-1.21,1.21-.38ZM65.96,80.8c-.1,0-.2.01-.3.05l-1.21.38c-.25.08-.46.26-.59.49-.12.24-.15.51-.07.76l.38,1.21.38,1.21.38,1.21.38,1.21.38,1.21.38,1.21.38,1.21.38,1.21c.08.26.26.47.5.59.14.07.3.11.45.11.11,0,.21-.02.32-.05l1.19-.38,1.21-.38,1.21-.38,1.21-.38,1.21-.38c.53-.17.82-.73.65-1.26l-.38-1.21c-.08-.25-.26-.46-.49-.59-.14-.07-.3-.11-.46-.11-.1,0-.2.01-.3.05l-1.21.38-1.21.38-1.21.38-.26.08-.08-.26-.38-1.21-.38-1.21-.38-1.21-.38-1.21-.38-1.21-.38-1.21c-.08-.25-.26-.46-.49-.59-.14-.07-.3-.11-.46-.11"/>
    <path class="cls-8" d="M82.36,87.77c-.21,0-.41-.14-.48-.35l-3.07-9.7c-.08-.26.06-.54.33-.63l1.21-.38s.1-.02.15-.02c.08,0,.16.02.23.06.12.06.21.17.25.29l2.54,8.01,4.37-1.38s.1-.02.15-.02c.08,0,.16.02.23.06.12.06.21.17.25.29l.38,1.21c.08.26-.06.55-.33.63l-6.06,1.92c-.05.01-.1.02-.15.02"/>
    <path class="cls-14" d="M80.5,77.19l.38,1.21.38,1.21.38,1.21.38,1.21h0s.38,1.21.38,1.21h0s.38,1.21.38,1.21l.38,1.21h0l1.21-.38h0l1.21-.38h0l1.21-.38,1.21-.38.38,1.21-1.21.38-1.21.38h0s-1.21.38-1.21.38l-1.21.38h0l-1.21.38h0l-.38-1.21-.38-1.21-.38-1.21-.38-1.21h0s-.38-1.21-.38-1.21h0s-.38-1.21-.38-1.21h0s-.38-1.21-.38-1.21l-.38-1.21,1.21-.38ZM80.5,76.19c-.1,0-.2.01-.3.05l-1.21.38c-.53.17-.82.73-.65,1.26l.38,1.21.38,1.21.38,1.21.38,1.21.38,1.21.38,1.21.38,1.21.38,1.21c.08.26.26.47.5.59.14.07.3.11.45.11.11,0,.22-.02.32-.05l1.19-.38,1.21-.38,1.21-.38,1.21-.38,1.21-.38c.53-.17.82-.73.65-1.26l-.38-1.21c-.14-.43-.53-.7-.95-.7-.1,0-.2.01-.3.05l-1.21.38-1.21.38-1.21.38-.26.08-.08-.26-.38-1.21-.38-1.21-.38-1.21-.38-1.21-.38-1.21-.38-1.21c-.08-.25-.26-.46-.49-.59-.14-.07-.3-.11-.46-.11"/>
    <path class="cls-8" d="M76.3,89.69c-.08,0-.16-.02-.23-.06-.12-.06-.21-.17-.25-.29l-.23-.73-.74.23c-.05.02-.1.02-.15.02-.21,0-.41-.14-.48-.35l-1.53-4.84-.76-2.43c-.08-.26.06-.54.32-.63l.73-.23-.23-.73c-.04-.13-.03-.26.03-.38.06-.12.17-.21.29-.25l3.64-1.16s.1-.02.15-.02c.08,0,.16.02.23.06.12.06.21.17.25.29l.23.74.73-.23c.05-.02.1-.02.15-.02.21,0,.41.14.48.35l.38,1.21.39,1.21.38,1.22.77,2.41.38,1.22c.08.26-.06.54-.33.63l-.73.23.23.73c.04.13.03.26-.03.38-.06.12-.17.21-.29.25l-1.22.38-2.42.77s-.1.02-.15.02M74.93,83l.36,1.18.37,1.16.37,1.19.23.69,1.87-.59.7-.23-.22-.7-.38-1.16-.36-1.18-.96-3.03-.69.22-1.19.36-.68.22.59,1.87Z"/>
    <path class="cls-14" d="M76.87,78.34l.38,1.22,1.21-.38.38,1.21.39,1.21.38,1.22.77,2.42.38,1.22-1.21.38.38,1.21-1.22.38-2.42.77-.38-1.21-1.22.38-.38-1.21-.38-1.22-.38-1.21-.38-1.21-.38-1.22-.38-1.21,1.21-.38-.38-1.21,2.42-.77,1.22-.39ZM75.94,87.84l2.34-.74,1.18-.38-.37-1.17-.38-1.17-.36-1.17-.37-1.18-.37-1.17-.37-1.16-1.17.37-1.18.36-1.17.38.37,1.17.37,1.17.36,1.17.37,1.16.37,1.18.38,1.17M76.87,77.34c-.1,0-.21.01-.3.05l-1.22.39-2.42.77c-.53.17-.82.73-.65,1.25l.08.26-.26.08c-.53.17-.82.73-.65,1.26l.38,1.21.38,1.21.39,1.21.38,1.21.38,1.21.38,1.21c.14.43.53.7.95.7.1,0,.2-.02.3-.05l.27-.08.08.26c.13.43.53.7.95.7.1,0,.2-.01.3-.05l2.42-.77,1.21-.38c.25-.08.47-.26.59-.49.12-.24.15-.51.07-.77l-.08-.25.25-.08c.53-.17.82-.73.65-1.25l-.38-1.22-.77-2.42-.38-1.21-.4-1.22-.38-1.2c-.08-.25-.26-.46-.49-.59-.14-.07-.3-.11-.46-.11-.1,0-.2.02-.3.05l-.25.08-.08-.26c-.08-.25-.26-.47-.49-.59-.14-.07-.3-.11-.46-.11M74.96,81.45l.22-.07,1.17-.35.23-.07.07.21.37,1.17.37,1.17.36,1.17.39,1.18.07.22-.23.08-1.39.44-.08-.23-.36-1.17-.38-1.17-.36-1.16-.37-1.18-.07-.23Z"/>
    <polygon class="cls-10" points="6.3 21.93 9.55 23.35 9.04 24.51 10.2 25.02 9.69 26.18 10.86 26.7 10.35 27.87 11.51 28.38 11 29.54 12.17 30.05 11.26 32.13 10.09 31.62 9.58 32.78 8.42 32.27 7.91 33.44 6.74 32.92 6.22 34.1 5.06 33.59 4.55 34.75 1.31 33.33 1.82 32.16 .66 31.65 2.08 28.4 3.24 28.91 3.75 27.75 4.92 28.26 5.02 28.01 3.86 27.5 4.37 26.34 3.21 25.83 4.63 22.58 5.79 23.09 6.3 21.93"/>
    <polygon class="cls-6" points="6.3 21.93 9.55 23.35 9.04 24.51 10.2 25.02 9.69 26.18 10.86 26.7 10.35 27.87 11.51 28.38 11 29.54 12.17 30.05 11.26 32.13 10.09 31.62 9.58 32.78 8.42 32.27 7.91 33.44 6.74 32.92 6.22 34.1 5.06 33.59 4.55 34.75 1.31 33.33 1.82 32.16 .66 31.65 2.08 28.4 3.24 28.91 3.75 27.75 4.92 28.26 5.02 28.01 3.86 27.5 4.37 26.34 3.21 25.83 4.63 22.58 5.79 23.09 6.3 21.93"/>
    <path class="cls-13" d="M199.81,27.89c-1.16.06-2.07-.34-2.29-.44-.28-.13-.56-.28-.82-.46-.61-.4-1.2-.89-1.8-1.45-.52-.49-1.04-1.02-1.58-1.58-.88-.9-1.81-1.84-2.85-2.71-.56-.47-1.17-.92-1.83-1.32-.48-.3-.99-.58-1.53-.83-.67-.31-1.24-.5-1.55-.6.01,0,.04-.02.05-.03,1.22-.82,2.3-1.21,3.03-1.41,1.04-.29,1.55-.24,1.74-.22,1.06.12,1.76.75,2.11,1.06.88.77,1.82,1.49,2.71,2.24.39.33.77.66,1.14,1.01,1.06,1.02,2.06,1.85,2.93,2.53.15.12.29.23.42.34,1.62,1.27,2.63,2.03,2.37,2.69-.01.03-.03.06-.05.09-.14.24-.4.47-.44.5-.61.51-1.34.57-1.75.59"/>
  </g>
  <path class="cls-7" d="M68.86,64.38c.76,1.99,3.16,2.8,5.29,2.88,4.32.16,8.52-1.65,12.85-1.6,3.21.04,6.32,1.09,9.51,1.44,6.9.76,13.94-1.8,20.77-.52,1.18.22,2.38.56,3.56.35,1.08-.19,2.02-.81,2.93-1.41,1.8-1.2,3.61-2.4,5.36-3.68,2.14-1.57,4.35-3.51,4.74-6.13.36-2.36-.91-4.75-2.73-6.3s-4.13-2.4-6.42-3.09c-13.94-4.23-28.81-3.79-43.37-3.31-1.25.04-2.53.09-3.71.52-2.07.77-3.55,2.68-4.34,4.74-1,2.64-.91,5.44-2,8.06-.98,2.36-3.48,5.38-2.46,8.06Z"/>
  <g>
    <path class="cls-12" d="M36.74,30.96c-.13-.08-.19-.19-.19-.27,0-.13.08-.23.27-.4.99-.8,1.72-1.85,1.72-3.35,0-.91-.27-1.6-.78-2.11-1.09-1.1-2.98-1.22-5.91-1.22-1.64,0-3.27.06-4.07.13-.31.02-.54.17-.59.51-.38,2.53-.61,5.31-.61,8.42,0,2.15.1,4.38.31,6.7.04.44.34.46.63.48,1.22.06,2.52.08,3.69.08,5.62,0,7.9-1.77,7.9-4.78,0-1.92-.73-3.01-2.39-4.19ZM31.81,27.04c.15-.15.34-.21.59-.21.57,0,1.26.21,1.26.88,0,.99-1.26,2-1.85,2-.31,0-.4-.27-.4-.69,0-1.14.13-1.71.4-1.98ZM32.33,35.55c-.19,0-.34-.02-.46-.15-.17-.17-.27-.55-.27-1.33,0-.51.13-.99.44-1.26.31-.25.71-.44.99-.44.48,0,.84.74.84,1.64,0,1.14-.92,1.54-1.53,1.54Z"/>
    <path class="cls-12" d="M48.29,23.74c-.8-.04-1.68-.06-2.56-.06s-1.68.02-2.47.06c-.27.02-.5.17-.61.55-.25.88-.75,3.87-.75,8.65,0,2.86.23,5.43.42,6.23.1.44.25.57.59.61.84.1,1.76.1,2.66.1s1.78-.02,2.64-.1c.29-.02.44-.13.44-.38,0-.42-1.05-3.39-1.05-7.71,0-4.08,1.09-6.97,1.09-7.54.02-.27-.13-.4-.4-.42Z"/>
    <path class="cls-12" d="M62.71,26.85c0-.17.08-.32.19-.46.36-.53.63-.91.86-1.24.08-.15.13-.27.13-.38,0-.19-.13-.34-.33-.46-.29-.17-.69-.38-.99-.38-.17,0-.34.08-.5.29-.08.11-.21.27-.38.51-.08.11-.19.19-.29.19-.08,0-.17-.04-.27-.15-.94-.86-2.08-1.35-3.4-1.35-4.23,0-6.44,4.99-6.44,10.51,0,1.16.17,2.27.63,3.2.04.11.06.23.06.34,0,.13-.04.25-.13.36-.23.29-.44.57-.63.8-.13.17-.19.29-.19.42,0,.15.06.25.17.36.36.36.9.82,1.38.82.19,0,.31-.1.46-.32.08-.13.19-.25.27-.38.13-.15.25-.23.4-.23.08,0,.17.02.27.06.94.48,2.2.78,3.77.78,4.86,0,6.39-2.82,6.39-6.21,0-2.51-.38-4.82-1.36-6.78-.06-.13-.08-.21-.08-.29ZM56.46,31.32c-.02-.06-.02-.17-.02-.25,0-3.05.61-3.83,1.28-3.83.4,0,.92.61.92,1.31,0,.17-.04.34-.15.51-.46.74-1.07,1.5-1.66,2.21-.08.11-.17.17-.25.17-.06,0-.1-.04-.13-.1ZM57.72,36.16c-.48,0-.88-.29-1.05-.61-.04-.08-.08-.19-.08-.29,0-.15.04-.27.13-.42.54-.84,1.32-1.79,1.95-2.57.08-.08.15-.13.21-.13.08,0,.17.08.17.25.02.42.02.86.02,1.35,0,1.73-.48,2.42-1.34,2.42Z"/>
    <path class="cls-12" d="M67.92,39.8c.67.04,1.4.06,2.12.06.9,0,1.76-.02,2.37-.06.25-.02.4-.13.4-.36,0-.27-.4-2.08-.4-3.39,0-.82.23-1.37.65-1.37.73,0,1.03,1.66,1.36,4.7.04.29.21.42.69.44.52.02,1.3.04,2.08.04.94,0,1.89-.02,2.39-.04.31-.02.5-.19.5-.51,0-.27-.55-4.84-2.5-6.55-.1-.08-.15-.17-.15-.27s.06-.23.17-.34c1.13-1.16,1.89-2.36,1.89-4.21,0-3.29-2.85-4.34-6.77-4.34-.94,0-3.73.08-4.53.21-.29.04-.46.15-.52.44-.55,2.93-.73,5.79-.73,8.38s.19,4.82.38,6.65c.04.42.31.48.61.51ZM72.68,27.46c.15-.15.34-.21.5-.21.4,0,.71.29.71,1.1,0,1.54-.84,3.24-1.28,3.24-.36,0-.46-.32-.46-1.68s.21-2.13.52-2.44Z"/>
    <path class="cls-12" d="M88.3,39.4c0-.25-.86-4.04-.86-5.9,0-.27.08-.53.27-.53.13,0,.23.08.36.25,1.05,1.6,1.87,3.5,2.31,5.98.08.46.23.55.71.61.38.04.92.06,1.49.06.9,0,1.91-.02,2.49-.06.38-.02.61-.19.67-.61.19-1.49.27-3.54.27-5.69,0-3.41-.21-7.08-.59-9.33-.06-.34-.25-.46-.54-.48-.52-.04-1.22-.06-1.93-.06-.86,0-1.72.02-2.31.06-.25.02-.4.19-.4.44,0,.67,1.22,3.47,1.22,6.59,0,.19-.1.32-.23.32-.08,0-.15-.04-.21-.17-1.93-4.13-2.87-6-3.46-6.82-.17-.23-.34-.36-.55-.36-.44-.02-1.03-.04-1.64-.04s-1.24.02-1.78.04c-.29.02-.48.23-.59.51-.36,1.05-.65,4.38-.65,8.04,0,2.4.13,4.97.44,7.12.04.29.23.42.54.44.59.04,1.4.06,2.22.06.88,0,1.78-.02,2.35-.06.23-.02.38-.11.38-.42Z"/>
    <path class="cls-12" d="M110.21,39.19c0-1.05-.5-4.11-.84-5.01-.04-.13-.13-.19-.23-.19-.12,0-.19.06-.38.19-.59.4-1.64,1.16-3.38,1.16-.92,0-1.32-.32-1.32-1.03,0-.51.31-1.07,1.32-1.07.84,0,1.72.32,1.99.32.17,0,.25-.08.34-.34.31-.95.86-3.2.86-3.71,0-.36-.52-.46-1.3-.46-1.01,0-1.91.32-2.62.32-.36,0-.54-.21-.54-.61,0-.38.1-.67.34-.91.27-.27.67-.4,1.24-.4.92,0,1.72.21,2.33.44.38.15.57.21.75.21.15,0,.27-.06.36-.23.5-1.18,1.15-3.54,1.15-3.81,0-.17-.08-.29-.4-.32-1.07-.08-3.02-.13-4.93-.13s-3.67.04-4.51.1c-.29.02-.5.29-.57.57-.73,3.73-1.05,8.32-1.05,12.07,0,1.01.02,1.98.06,2.86.02.51.27.59.73.61,1.3.06,3.17.11,5.12.11,1.66,0,3.38-.04,4.8-.11.44-.02.67-.27.67-.63Z"/>
    <path class="cls-12" d="M118.84,40.27c3.69,0,5.75-1.79,5.75-4.63,0-1.66-.19-3.2-.36-4.76-.04-.34-.21-.48-.42-.48-.46,0-3.58,1.31-4.67,1.9-.17.11-.25.23-.25.38,0,.13.06.25.21.36.4.29.73.72.73,1.37,0,.61-.29,1.07-.86,1.07-.9,0-1.51-.93-1.51-4.04,0-2.32.38-3.35,1.13-3.35.57,0,.71.8.71,1.5,0,.23-.02.53-.02.69,0,.25.15.38.33.38.84,0,3.29-1.28,4.34-2.34.29-.29.5-.65.5-1.12,0-2.13-1.2-3.73-4.63-3.73-5.39,0-7.76,4.23-7.76,9.29,0,4.74,2.52,7.52,6.77,7.52Z"/>
    <path class="cls-12" d="M133.79,39.78c.29-.02.44-.13.44-.38,0-.42-1.05-3.39-1.05-7.71,0-4.08,1.09-6.97,1.09-7.54.02-.27-.13-.4-.4-.42-.8-.04-1.68-.06-2.56-.06s-1.68.02-2.47.06c-.27.02-.5.17-.61.55-.25.88-.75,3.87-.75,8.65,0,2.86.23,5.43.42,6.23.1.44.25.57.59.61.84.1,1.76.1,2.66.1s1.78-.02,2.64-.1Z"/>
    <path class="cls-12" d="M137.87,39.82c1.15.04,2.79.08,4.51.08,1.45,0,2.94-.02,4.17-.08.44-.02.67-.27.67-.63,0-1.05-.46-4.04-.82-4.93-.06-.17-.17-.21-.29-.21s-.27.06-.54.27c-.57.44-1.51.97-2.33.97-.67,0-.92-.25-.92-1.26,0-2.76,1.89-9.43,1.89-9.96,0-.17-.08-.29-.4-.32-.65-.04-1.82-.08-2.96-.08-.96,0-1.8.02-2.31.06-.32.02-.5.23-.57.57-.69,3.66-.92,8-.92,11.81,0,1.09.04,2.15.08,3.1.02.51.27.59.73.61Z"/>
    <path class="cls-12" d="M153.59,23.61c-.9,0-1.91.04-2.73.08-.19.02-.38.13-.48.48-.4,1.6-.71,4.34-.71,8.76s.23,5.96.52,6.57c.1.21.27.29.63.32.46.02,3.5.04,4.28.04,6.42,0,7.63-2.06,7.63-6.59,0-8.15-3.92-9.67-9.14-9.67ZM155.96,35.74c-.13,0-.25-.04-.38-.17-.31-.32-.55-1.28-.55-3.9,0-2.08.11-3.16.38-3.43.1-.1.23-.15.36-.15.67,0,1.68,1.28,1.68,4.21,0,2.65-.86,3.43-1.49,3.43Z"/>
    <path class="cls-12" d="M172.16,27.44c.92,0,1.72.21,2.33.44.38.15.57.21.75.21.15,0,.27-.06.36-.23.5-1.18,1.15-3.54,1.15-3.81,0-.17-.08-.29-.4-.32-1.07-.08-3.02-.13-4.93-.13s-3.67.04-4.51.1c-.29.02-.5.29-.57.57-.73,3.73-1.05,8.32-1.05,12.07,0,1.01.02,1.98.06,2.86.02.51.27.59.73.61,1.3.06,3.17.11,5.12.11,1.66,0,3.38-.04,4.8-.11.44-.02.67-.27.67-.63,0-1.05-.5-4.11-.84-5.01-.04-.13-.13-.19-.23-.19-.13,0-.19.06-.38.19-.59.4-1.63,1.16-3.38,1.16-.92,0-1.32-.32-1.32-1.03,0-.51.31-1.07,1.32-1.07.84,0,1.72.32,1.99.32.17,0,.25-.08.34-.34.31-.95.86-3.2.86-3.71,0-.36-.52-.46-1.3-.46-1.01,0-1.91.32-2.62.32-.36,0-.55-.21-.55-.61,0-.38.11-.67.34-.91.27-.27.67-.4,1.24-.4Z"/>
    <path class="cls-12" d="M189.48,24.18c-.8-.4-2.54-.67-4.72-.67-2.5,0-4.32.34-5.01.57-.31.11-.46.27-.54.48-.23,1.07-.54,3.79-.54,4.53,0,.27.13.38.29.38.48,0,1.24-.44,2.29-.44.42,0,.5.23.5.55,0,.69-.46,3.33-.46,7.18,0,.97.02,1.83.08,2.34.06.55.34.72.69.74.71.06,1.76.11,2.58.11,1.03,0,2.08-.04,2.54-.11.38-.06.52-.21.52-.51,0-.78-1.03-4.38-1.03-8.72,0-.4.04-.72.08-.95.08-.4.23-.57.54-.57.94,0,1.61.48,1.95.48.15,0,.23-.08.29-.32.17-.93.34-2.67.38-4,.02-.55-.02-.8-.44-1.07Z"/>
    <path class="cls-12" d="M82.76,58.58c-.2,0-.39.07-.59.26-.43.43-.99.79-1.54,1.09-1.05.53-2.17.79-2.92.79s-1.08-.13-1.08-.59c0-.59.66-1.09,1.61-1.62,4.76-2.61,6.5-4.72,6.5-8.81,0-5.18-3.52-7.53-8.21-7.53-4.34,0-8.08,1.88-9.33,3.8-.2.3-.3.59-.3.92,0,.66,1.02,3.99,2.3,5.48.2.23.46.36.72.36.16,0,.33-.07.49-.17,1.91-1.32,4.24-2.74,5.75-2.74.53,0,.79.23.79.63,0,.56-.39.86-2.17,1.95-4.53,2.77-7.59,6.27-7.59,11.82,0,2.48.26,3.6,1.51,3.6.66,0,2.23-.13,3.61-.13,2.86,0,6.08.23,8.21.23,3.06,0,4.34-2.41,4.34-4.85,0-1.62-.56-3.27-1.51-4.22-.16-.17-.39-.26-.59-.26Z"/>
    <path class="cls-12" d="M97.88,42.25c-6.67,0-9.99,5.25-9.99,13.04,0,9.11,4.07,13.04,9.36,13.04s9.92-3.93,9.92-13.04c0-8.02-2.79-13.04-9.3-13.04ZM97.48,59.87c-1.12,0-1.54-1.45-1.54-5.31s.53-5.21,1.54-5.21,1.58,1.49,1.58,5.21-.39,5.31-1.58,5.31Z"/>
    <path class="cls-12" d="M125.57,58.58c-.2,0-.39.07-.59.26-.43.43-.99.79-1.54,1.09-1.05.53-2.17.79-2.92.79s-1.08-.13-1.08-.59c0-.59.66-1.09,1.61-1.62,4.76-2.61,6.5-4.72,6.5-8.81,0-5.18-3.52-7.53-8.21-7.53-4.34,0-8.08,1.88-9.33,3.8-.2.3-.29.59-.29.92,0,.66,1.02,3.99,2.3,5.48.2.23.46.36.72.36.16,0,.33-.07.49-.17,1.91-1.32,4.24-2.74,5.75-2.74.53,0,.79.23.79.63,0,.56-.39.86-2.17,1.95-4.53,2.77-7.59,6.27-7.59,11.82,0,2.48.26,3.6,1.51,3.6.66,0,2.23-.13,3.61-.13,2.86,0,6.08.23,8.21.23,3.05,0,4.34-2.41,4.34-4.85,0-1.62-.56-3.27-1.51-4.22-.17-.17-.39-.26-.59-.26Z"/>
    <path class="cls-12" d="M142.26,51.55c-1.91,0-2.89.33-3.45.33-.49,0-.62-.36-.62-1.06,0-.5.1-.86.39-1.16.3-.3.82-.46,1.58-.46,2.1,0,4.43.73,5.72,1.15.33.1.59.17.72.17.33,0,.53-.23.66-.82.43-1.82.66-4.89.66-6.14,0-.56-.2-.83-.79-.86-2.2-.1-4.76-.17-7.26-.17-2.3,0-4.53.07-6.31.17-.59.03-.95.43-1.12,1.19-.56,2.41-1.18,8.02-1.18,12.11,0,.53.3.86,1.18,1.25.66.3,1.45.5,2,.5,1.38,0,3.48-.3,4.63-.3,1.84,0,2.4.59,2.4,1.52,0,1.02-.79,1.58-2.37,1.58-2.13,0-4.3-.89-5.32-1.62-.26-.17-.49-.26-.69-.26-.23,0-.46.13-.59.4-.72,1.32-1.87,4.55-1.87,5.64,0,.69.3,1.09.95,1.55,1.61,1.19,3.91,2.05,7.62,2.05,6.18,0,9.49-2.64,9.49-8.81,0-4.16-1.48-7.95-6.44-7.95Z"/>
  </g>
</svg>