<?xml version="1.0" encoding="UTF-8"?>
<svg id="Layer_1" xmlns="http://www.w3.org/2000/svg" xmlns:xlink="http://www.w3.org/1999/xlink" viewBox="0 0 221.32 199.3">
  <defs>
    <style>
      .cls-1, .cls-2, .cls-3, .cls-4, .cls-5, .cls-6, .cls-7 {
        fill: none;
      }

      .cls-2, .cls-3 {
        stroke-linecap: round;
        stroke-linejoin: round;
      }

      .cls-2, .cls-5, .cls-6 {
        stroke: #3aaa4e;
      }

      .cls-8 {
        fill: #3aaa4e;
      }

      .cls-9 {
        fill: #a2cc9d;
      }

      .cls-10 {
        fill: #3aaa50;
      }

      .cls-11 {
        fill: #3dc0c3;
      }

      .cls-3, .cls-4, .cls-7 {
        stroke: #363432;
      }

      .cls-12 {
        fill: #e9f2e7;
      }

      .cls-13 {
        fill: #daefef;
      }

      .cls-14 {
        fill: #68b56a;
      }

      .cls-15 {
        fill: #fff;
      }

      .cls-4 {
        stroke-width: .99px;
      }

      .cls-4, .cls-5, .cls-6, .cls-7 {
        stroke-miterlimit: 10;
      }

      .cls-16 {
        fill: #75ba74;
      }

      .cls-17 {
        fill: #363432;
      }

      .cls-6 {
        stroke-width: .5px;
      }

      .cls-18 {
        clip-path: url(#clippath);
      }

      .cls-19 {
        fill: #a8cfa2;
      }
    </style>
    <clipPath id="clippath">
      <rect class="cls-1" width="221.32" height="199.3"/>
    </clipPath>
  </defs>
  <g class="cls-18">
    <path class="cls-13" d="M84.88,102.4l13.05,75.67c-9.54,7.3-13.09,14.6-25.54,18.82-1.86.63-8.18,2.41-15.79,2.41-29.09,0-52.67-23.58-52.67-52.67,0-14.14,5.58-26.98,14.65-36.44-1.33-4.23-2.04-8.73-2.04-13.39,0-22.83,17.07-41.69,39.15-44.5.15-2.78,1.39-20.95,15.1-30.52,8.76-6.12,20.09-6.97,26.28-7.06l-16.87,27.86,24.61,6.96-19.93,52.86Z"/>
    <path class="cls-12" d="M221.33,137.96c-.06,17.78-23.14,37.76-44.3,38.43-16.87.53-20.33-11.61-41.14-11.3-8.73.13-21.14,2.44-32.5,9.27l-12.32-71.37,21.66-57.44-23.32-6.6,14.57-24.05c.06,0,.13,0,.19,0,7.41.18,18.35,1.62,28.1,8.67,7.65,5.53,7.82,9.62,16.73,18.09,12.92,12.26,19.01,9.8,28.48,18.98,10.32,10,6.67,16.39,16.28,35.72,13.68,27.54,27.62,27.75,27.57,41.59"/>
    <path class="cls-15" d="M97.93,178.07c.63-.48,1.27-.95,1.95-1.43,1.16-.81,2.33-1.57,3.51-2.28l-5.46,3.71Z"/>
    <path class="cls-12" d="M147.26,29.68c.15,1.61.82,3.13,1.63,4.53.96,1.66,2.61,3.37,4.48,2.95,1.07-.24,1.87-1.14,2.4-2.1,1.8-3.22,1.32-8.38-1.95-10.62-3.52-2.42-6.9,1.65-6.56,5.23"/>
    <path class="cls-12" d="M114.04,2.7C115.6.83,118.16,0,120.6,0c2.44,0,4.82.69,7.16,1.39,2.56.76,5.14,1.54,7.43,2.91,2.29,1.38,4.27,3.44,4.99,6.01.72,2.57-.07,5.64-2.29,7.12-2.68,1.79-6.27.83-9.25-.39-4.49-1.83-20.49-7.28-14.61-14.34"/>
    <path class="cls-12" d="M199.59,85.76c-1.59,1.52-1.79,4.14-.84,6.12.95,1.98,2.85,3.38,4.89,4.22,1.94.79,4.43,1.03,5.88-.48,1.29-1.34,1.17-3.58.23-5.19-1.65-2.83-6.84-7.85-10.16-4.67"/>
    <path class="cls-12" d="M137.44,177.85c-1.98-.33-3.98-1.98-3.7-3.96.47-3.39,8.47-8.74,11.16-4.98,3.21,4.49-3.29,9.64-7.46,8.94"/>
    <line class="cls-2" x1="183.14" y1="176.63" x2="189.17" y2="176.54"/>
    <line class="cls-2" x1="192.83" y1="176.48" x2="198.85" y2="176.39"/>
    <line class="cls-2" x1="190.88" y1="168.65" x2="190.97" y2="174.68"/>
    <line class="cls-2" x1="191.03" y1="178.34" x2="191.12" y2="184.36"/>
    <line class="cls-2" x1="167.4" y1="147.62" x2="173.43" y2="147.62"/>
    <line class="cls-2" x1="177.09" y1="147.62" x2="183.12" y2="147.62"/>
    <line class="cls-2" x1="175.26" y1="155.48" x2="175.26" y2="149.45"/>
    <line class="cls-2" x1="175.26" y1="145.79" x2="175.26" y2="139.77"/>
    <circle class="cls-2" cx="191.83" cy="104.29" r="6.78"/>
    <circle class="cls-2" cx="202.68" cy="134.58" r="6.78"/>
    <polyline class="cls-5" points="163.07 49.02 179.6 39.04 181.4 25.42"/>
    <path class="cls-15" d="M185.1,26.12c.27-2.06-1.18-3.95-3.24-4.22s-3.95,1.18-4.22,3.24c-.27,2.06,1.18,3.95,3.24,4.22,2.06.27,3.95-1.18,4.22-3.24"/>
    <path class="cls-8" d="M185.59,26.19c-.31,2.33-2.45,3.97-4.78,3.67-2.33-.31-3.97-2.45-3.67-4.78.31-2.33,2.45-3.97,4.78-3.67,2.33.31,3.97,2.45,3.67,4.78-.31,2.33.31-2.33,0,0M178.14,25.21c-.24,1.78,1.02,3.42,2.81,3.66,1.78.24,3.42-1.02,3.66-2.81.23-1.78-1.02-3.42-2.81-3.66-1.78-.23-3.42,1.02-3.66,2.81-.24,1.78.24-1.78,0,0"/>
    <path class="cls-11" d="M42.82,173.6c-.48,0-.95-.15-1.34-.42-1.06-.74-1.32-2.21-.58-3.27.44-.63,1.16-1,1.93-1,.48,0,.95.15,1.34.42,1.06.74,1.32,2.21.58,3.27-.44.63-1.16,1-1.92,1"/>
    <path class="cls-17" d="M42.82,169.41c.37,0,.74.11,1.06.34.84.59,1.04,1.74.45,2.58-.36.51-.93.79-1.52.79-.37,0-.74-.11-1.06-.33-.84-.59-1.04-1.74-.46-2.58.36-.51.93-.79,1.52-.79M42.82,168.42c-.93,0-1.8.45-2.33,1.21-.9,1.28-.58,3.06.7,3.96.48.34,1.04.51,1.63.51.93,0,1.8-.45,2.33-1.21.44-.62.6-1.38.47-2.12-.13-.75-.55-1.4-1.17-1.83-.48-.34-1.04-.51-1.63-.51"/>
    <path class="cls-11" d="M41.76,189.25c-.48,0-.95-.15-1.34-.43-.51-.36-.86-.9-.97-1.51-.11-.62.03-1.24.39-1.75.44-.63,1.16-1,1.92-1,.48,0,.95.15,1.35.42.51.36.86.9.97,1.51.11.62-.03,1.24-.39,1.75-.44.63-1.16,1-1.92,1"/>
    <path class="cls-17" d="M41.76,185.05c.37,0,.74.11,1.06.34.84.59,1.04,1.74.45,2.58-.36.52-.93.79-1.52.79-.37,0-.74-.11-1.06-.33-.84-.59-1.04-1.74-.46-2.58.36-.52.93-.79,1.52-.79M41.76,184.06c-.93,0-1.8.45-2.33,1.21-.43.62-.6,1.38-.47,2.12.13.75.55,1.4,1.17,1.83.48.34,1.04.51,1.63.51.93,0,1.8-.45,2.33-1.21.9-1.28.58-3.06-.7-3.96-.48-.34-1.04-.51-1.63-.51"/>
    <path class="cls-11" d="M63.3,188.28c-.48,0-.95-.15-1.34-.42-.51-.36-.86-.9-.97-1.51-.11-.62.03-1.24.39-1.75.44-.63,1.16-1,1.92-1,.48,0,.95.15,1.34.42,1.06.74,1.32,2.21.58,3.27-.44.63-1.16,1-1.92,1"/>
    <path class="cls-17" d="M63.31,184.08c.37,0,.74.11,1.06.34.84.59,1.04,1.74.46,2.58-.36.52-.93.79-1.52.79-.37,0-.74-.11-1.06-.33-.84-.59-1.04-1.74-.46-2.58.36-.52.93-.79,1.52-.79M63.31,183.09c-.93,0-1.8.45-2.33,1.21-.9,1.28-.58,3.06.7,3.96.48.34,1.04.51,1.63.51.93,0,1.8-.45,2.33-1.21.9-1.28.58-3.06-.7-3.96-.48-.34-1.04-.51-1.63-.51"/>
    <path class="cls-9" d="M11.46,113.41c-.19,0-.36-.11-.45-.28-1.4-2.96-1.93-3.71-3.27-3.71-.75,0-1.75.23-3.33.66-.04.01-.09.02-.13.02-.2,0-.39-.12-.47-.32-.09-.24.02-.51.25-.62,4.17-1.96,4.26-2.15,3.05-6.6-.07-.25.07-.51.31-.59.06-.02.11-.03.17-.03.19,0,.36.11.45.28,1.39,2.96,1.92,3.71,3.27,3.71.75,0,1.75-.23,3.33-.66.04-.01.09-.02.13-.02.2,0,.39.12.47.32.09.24-.02.51-.25.62-4.17,1.96-4.26,2.15-3.05,6.6.07.25-.07.51-.31.6-.06.02-.11.03-.17.03"/>
    <path class="cls-17" d="M7.6,102.43c1.38,2.93,2.03,3.99,3.72,3.99.83,0,1.91-.26,3.46-.68-4.38,2.06-4.58,2.5-3.32,7.17-1.38-2.93-2.03-4-3.72-3.99-.83,0-1.91.26-3.46.68,4.38-2.06,4.58-2.5,3.32-7.17M7.6,101.43c-.11,0-.23.02-.34.06-.48.18-.75.69-.61,1.19q1.13,4.18-2.78,6.02c-.46.22-.69.76-.51,1.24.15.4.52.65.93.65.09,0,.17-.01.26-.03,1.5-.41,2.5-.64,3.2-.64.96,0,1.37.34,2.82,3.43.17.36.52.57.9.57.11,0,.23-.02.34-.06.48-.18.75-.69.61-1.19q-1.13-4.18,2.78-6.02c.47-.22.69-.76.51-1.24-.15-.4-.52-.65-.93-.65-.09,0-.17.01-.26.03-1.5.41-2.5.64-3.2.64-.96,0-1.37-.34-2.82-3.43-.17-.36-.52-.57-.9-.57"/>
    <path class="cls-11" d="M1.28,129.07c-.12,0-.25-.04-.34-.14-.19-.18-.21-.47-.05-.67,3.67-4.63,3.66-4.98-.27-9.4-.17-.19-.17-.48,0-.67.1-.1.23-.15.36-.15.11,0,.22.03.31.11,2.37,1.88,3.62,2.71,4.72,2.71s2.32-.88,4.68-2.98c.09-.08.21-.12.33-.12s.24.04.34.13c.19.18.21.47.05.67-3.67,4.63-3.66,4.99.27,9.4.17.19.17.48-.01.67-.1.1-.23.15-.36.15-.11,0-.22-.03-.31-.11-2.37-1.88-3.62-2.71-4.72-2.71s-2.32.88-4.68,2.98c-.09.08-.21.12-.33.12"/>
    <path class="cls-17" d="M11.03,118.25c-3.82,4.82-3.8,5.44.29,10.04-2.37-1.87-3.72-2.82-5.03-2.82s-2.67,1.03-5.01,3.11c3.82-4.82,3.8-5.44-.29-10.04,2.37,1.87,3.72,2.82,5.03,2.82s2.67-1.03,5.01-3.11M11.03,117.26c-.23,0-.47.08-.66.25-2.22,1.98-3.38,2.86-4.35,2.86s-2.13-.81-4.41-2.61c-.18-.14-.4-.21-.61-.21-.26,0-.53.1-.72.31-.35.37-.36.95-.02,1.34,3.77,4.24,3.77,4.32.25,8.76-.32.4-.28.98.1,1.34.19.18.44.27.68.27s.47-.08.66-.25c2.22-1.98,3.38-2.86,4.35-2.86s2.13.8,4.41,2.61c.18.14.4.21.61.21.26,0,.53-.11.72-.31.35-.37.36-.96.02-1.34-3.77-4.24-3.77-4.32-.25-8.76.32-.4.28-.98-.1-1.33-.19-.18-.44-.27-.68-.27"/>
    <path class="cls-9" d="M9.27,151.44c-.44,0-.67-.37-.93-.8-.26-.44-.63-1.04-1.28-1.43-.65-.39-1.35-.42-1.86-.45-.5-.03-1.08-.06-1.21-.6-.14-.54.35-.84.79-1.1.44-.26,1.04-.63,1.43-1.28.39-.65.42-1.35.45-1.86.03-.51.05-1.08.6-1.21.04,0,.12-.02.16-.02.44,0,.67.37.93.81.26.44.63,1.04,1.28,1.42.65.39,1.35.42,1.86.45.5.03,1.08.06,1.21.6.14.54-.36.84-.8,1.11-.45.27-1.07.65-1.45,1.31-.37.64-.4,1.32-.42,1.82-.02.5-.05,1.06-.58,1.2-.04,0-.12.02-.17.02"/>
    <path class="cls-17" d="M7.41,143.2c.4,0,.67,1.39,1.95,2.16,1.33.79,2.73.31,2.84.74.11.43-1.41.69-2.2,2.05-.76,1.31-.29,2.68-.7,2.79-.01,0-.03,0-.04,0-.39,0-.67-1.4-1.95-2.16-1.33-.79-2.74-.32-2.84-.74-.11-.42,1.36-.67,2.16-1.99.79-1.33.32-2.74.74-2.84.01,0,.03,0,.04,0M7.41,142.2c-.08,0-.21.02-.29.04-.9.23-.95,1.13-.97,1.67-.03.48-.06,1.09-.38,1.63-.32.54-.84.85-1.25,1.1-.46.28-1.24.75-1.01,1.65.23.9,1.13.95,1.67.97.48.02,1.08.06,1.63.38.54.33.86.84,1.11,1.26.28.47.63,1.04,1.36,1.04.08,0,.21-.02.29-.04.9-.23.94-1.16.96-1.66.02-.47.05-1.06.35-1.59.32-.56.85-.88,1.28-1.14.47-.28,1.25-.76,1.02-1.66-.23-.9-1.13-.94-1.67-.97-.48-.03-1.09-.06-1.63-.38-.54-.32-.85-.84-1.1-1.25-.28-.47-.63-1.05-1.36-1.05"/>
    <path class="cls-9" d="M24.15,160.78c-.33,0-.59-.21-.92-.49-.4-.33-.94-.77-1.68-.92-.19-.04-.37-.05-.54-.05-.52,0-.98.14-1.36.25-.29.08-.51.15-.73.15-.36,0-.54-.19-.62-.31-.31-.46.06-.91.38-1.3.32-.4.77-.94.92-1.68.15-.74-.05-1.41-.19-1.9-.15-.49-.31-1.03.16-1.34.11-.07.24-.11.38-.11.33,0,.59.22.92.49.4.32.94.77,1.68.92.19.04.37.05.54.05.52,0,.98-.14,1.36-.25.29-.08.51-.15.73-.15.36,0,.54.19.62.31.31.47-.06.91-.38,1.31-.33.41-.79.96-.93,1.72-.14.73.06,1.38.21,1.86.15.48.31,1.02-.15,1.33-.11.07-.24.11-.38.11"/>
    <path class="cls-17" d="M19.93,153.58c.39,0,1.11,1.12,2.5,1.4.22.04.44.06.64.06.96,0,1.72-.4,2.08-.4.09,0,.16.03.2.09.25.37-1.1,1.12-1.39,2.66-.28,1.49.63,2.62.27,2.86-.03.02-.06.03-.1.03-.39,0-1.11-1.12-2.5-1.4-.22-.04-.44-.06-.64-.06-.96,0-1.72.4-2.08.4-.09,0-.16-.02-.2-.09-.24-.36,1.06-1.08,1.37-2.6.31-1.52-.61-2.68-.25-2.93.03-.02.06-.03.1-.03M19.93,152.58c-.23,0-.46.07-.65.2-.77.51-.51,1.38-.36,1.9.14.46.31,1.04.18,1.66-.12.62-.51,1.08-.81,1.46-.34.42-.92,1.12-.4,1.89.23.34.6.53,1.03.53.29,0,.56-.08.87-.17.36-.11.77-.23,1.22-.23.15,0,.3.02.44.04.62.12,1.09.51,1.46.82s.73.6,1.24.6c.23,0,.46-.07.65-.2.77-.52.5-1.41.35-1.89-.14-.45-.31-1.01-.2-1.62.12-.63.51-1.11.83-1.5.35-.42.93-1.13.41-1.9-.22-.34-.6-.53-1.03-.53-.29,0-.56.08-.87.17-.36.11-.77.23-1.22.23-.15,0-.3-.01-.44-.04-.62-.12-1.08-.51-1.46-.81-.38-.31-.73-.6-1.24-.6"/>
    <path class="cls-9" d="M59.97,45.17c-.17,0-.33-.08-.42-.23l-5.45-8.59c-.07-.11-.09-.25-.07-.38.03-.13.11-.24.22-.31l1.07-.68c.08-.05.17-.08.27-.08.04,0,.07,0,.11.01.13.03.24.11.31.22l4.5,7.09,3.87-2.46c.08-.05.18-.08.27-.08.04,0,.07,0,.11.01.13.03.24.11.31.22l.68,1.07c.07.11.1.25.07.38-.03.13-.11.24-.22.31l-5.37,3.4c-.08.05-.18.08-.27.08"/>
    <path class="cls-17" d="M55.6,35.4l.68,1.07h0s.68,1.07.68,1.07l.68,1.07.68,1.07.68,1.07h0s.68,1.07.68,1.07h0s.68,1.07.68,1.07h0s1.07-.68,1.07-.68l1.07-.68,1.07-.68h0l1.07-.68.68,1.07-1.07.68-1.07.68h0s-1.07.68-1.07.68h0l-1.07.68h0l-1.07.68h0s-.68-1.07-.68-1.07h0l-.68-1.07h0l-.68-1.07-.68-1.07h0s-.68-1.07-.68-1.07l-.68-1.07-.68-1.07-.68-1.07,1.07-.68ZM55.6,34.4c-.18,0-.37.05-.53.16l-1.07.68c-.22.14-.38.37-.44.63-.06.26,0,.53.13.75l.68,1.07.68,1.07.68,1.07.68,1.07.68,1.07.68,1.07.68,1.07.68,1.07c.19.3.51.47.84.47.18,0,.37-.05.53-.15l1.08-.68,1.07-.68,1.07-.68,1.07-.68,1.07-.68c.47-.3.61-.91.31-1.38l-.68-1.07c-.14-.22-.37-.38-.63-.44-.07-.02-.14-.02-.22-.02-.19,0-.37.05-.54.16l-1.07.68-1.07.68-1.07.68-.23.15-.15-.23-.68-1.07-.68-1.07-.68-1.07-.68-1.07-.68-1.07-.68-1.07c-.19-.3-.51-.46-.85-.46"/>
    <path class="cls-9" d="M72.85,37c-.17,0-.33-.08-.42-.23l-5.45-8.58c-.15-.23-.08-.54.15-.69l1.07-.68c.08-.05.18-.08.27-.08.17,0,.33.08.42.23l4.5,7.09,3.87-2.46c.08-.05.18-.08.27-.08.04,0,.07,0,.11.01.13.03.24.11.31.22l.68,1.07c.07.11.1.25.07.38-.03.13-.11.24-.22.31l-5.37,3.4c-.08.05-.18.08-.27.08"/>
    <path class="cls-17" d="M68.47,27.23l.68,1.07h0s.68,1.07.68,1.07h0s.68,1.07.68,1.07l.68,1.07.68,1.07.68,1.07h0s.68,1.07.68,1.07h0s1.07-.68,1.07-.68l1.07-.68h0l1.07-.68,1.07-.68.68,1.07-1.07.68-1.07.68-1.07.68h0s-1.07.68-1.07.68h0l-1.07.68h0l-.68-1.07-.68-1.07h0l-.68-1.07h0s-.68-1.07-.68-1.07h0s-.68-1.07-.68-1.07l-.68-1.07-.68-1.07-.68-1.07,1.07-.68ZM68.47,26.23c-.19,0-.37.05-.54.16l-1.07.68c-.47.3-.6.91-.31,1.38l.68,1.07.68,1.07.68,1.07.68,1.07.68,1.07.68,1.07.68,1.07.68,1.07c.14.23.37.39.64.44.07.01.14.02.21.02.19,0,.39-.06.55-.16l1.06-.67,1.07-.68,1.07-.68,1.07-.68,1.07-.68c.22-.14.38-.37.44-.63.06-.26.01-.53-.13-.75l-.68-1.07c-.14-.22-.37-.38-.63-.44-.07-.02-.14-.02-.22-.02-.19,0-.37.05-.54.16l-1.07.68-1.07.68-1.07.68-.23.15-.15-.23-.68-1.07-.68-1.07-.68-1.07-.68-1.07-.68-1.07-.68-1.07c-.14-.22-.37-.38-.63-.44-.07-.02-.15-.02-.22-.02"/>
    <path class="cls-9" d="M67.49,40.4c-.17,0-.33-.08-.42-.23l-.41-.65-.66.41c-.08.05-.18.08-.27.08-.17,0-.33-.08-.42-.23l-4.08-6.44c-.15-.23-.08-.54.15-.69l.65-.41-.41-.65c-.07-.11-.09-.25-.07-.38s.11-.24.22-.31l3.22-2.05c.08-.05.18-.08.27-.08.04,0,.07,0,.11.01.13.03.24.11.31.22l.41.66.65-.41c.08-.05.18-.08.27-.08.17,0,.33.08.42.23l.68,1.07.69,1.07,2.72,4.3c.15.23.08.54-.15.69l-.65.41.41.65c.07.11.09.25.07.38s-.11.24-.22.31l-1.08.68-2.14,1.36c-.08.05-.18.08-.27.08M64.58,34.27l.65,1.04.66,1.02.66,1.05.4.61,1.65-1.04.62-.4-.39-.62-.67-1.02-.65-1.05-1.71-2.68-.61.39-1.06.65-.61.39,1.05,1.66Z"/>
    <path class="cls-17" d="M65.26,29.27l.68,1.08,1.07-.68.68,1.07.69,1.07.68,1.08,1.36,2.14.68,1.08-1.07.68.68,1.07-1.08.68-2.14,1.36-.68-1.07-1.08.68-.68-1.07-.68-1.08-.68-1.07-.68-1.07-.68-1.08-.68-1.07,1.07-.68-.68-1.07,2.14-1.36,1.08-.69ZM66.8,38.69l2.07-1.31,1.04-.67-.66-1.04-.67-1.03-.65-1.04-.66-1.04-.66-1.04-.66-1.03-1.03.66-1.05.65-1.03.66.66,1.04.66,1.04.65,1.04.66,1.03.66,1.05.67,1.03M65.26,28.27c-.19,0-.38.05-.54.16l-1.08.69-2.14,1.36c-.47.3-.6.91-.31,1.38l.14.23-.23.14c-.47.3-.6.91-.31,1.38l.68,1.07.68,1.08.68,1.07.68,1.07.68,1.08.68,1.07c.19.3.51.46.85.46.18,0,.37-.05.53-.15l.24-.15.15.23c.19.3.51.46.85.46.18,0,.37-.05.54-.16l2.14-1.36,1.08-.68c.22-.14.38-.37.44-.63.06-.26.01-.53-.13-.76l-.14-.23.23-.14c.46-.29.6-.91.31-1.38l-.68-1.08-1.36-2.14-.68-1.08-.69-1.08-.68-1.06c-.19-.3-.51-.46-.85-.46-.18,0-.37.05-.54.16l-.22.14-.14-.23c-.14-.23-.37-.38-.63-.44-.07-.02-.15-.02-.22-.02M64.21,32.77l.19-.12,1.04-.64.2-.13.12.19.66,1.04.66,1.04.65,1.03.68,1.04.12.19-.21.13-1.23.78-.13-.2-.65-1.04-.67-1.04-.64-1.03-.66-1.05-.13-.2Z"/>
    <polygon class="cls-11" points="12.7 77.75 15.2 80.25 14.3 81.15 15.2 82.05 14.3 82.95 15.2 83.85 14.29 84.76 15.19 85.66 14.29 86.55 15.19 87.45 13.58 89.05 12.68 88.15 11.78 89.05 10.89 88.15 9.99 89.05 9.08 88.14 8.18 89.04 7.28 88.14 6.38 89.04 3.88 86.53 4.79 85.63 3.89 84.73 6.4 82.23 7.3 83.13 8.2 82.23 9.09 83.13 9.29 82.94 8.39 82.04 9.29 81.15 8.39 80.25 10.91 77.74 11.8 78.64 12.7 77.75"/>
    <polygon class="cls-4" points="12.7 77.75 15.2 80.25 14.3 81.15 15.2 82.05 14.3 82.95 15.2 83.85 14.29 84.76 15.19 85.66 14.29 86.55 15.19 87.45 13.58 89.05 12.68 88.15 11.78 89.05 10.89 88.15 9.99 89.05 9.08 88.14 8.18 89.04 7.28 88.14 6.38 89.04 3.88 86.53 4.79 85.63 3.89 84.73 6.4 82.23 7.3 83.13 8.2 82.23 9.09 83.13 9.29 82.94 8.39 82.04 9.29 81.15 8.39 80.25 10.91 77.74 11.8 78.64 12.7 77.75"/>
    <path class="cls-9" d="M202.54,80.84c4.78-4.62,4.9-12.24.28-17.01s-12.24-4.9-17.01-.28-4.9,12.24-.28,17.01c4.62,4.78,12.24,4.9,17.01.28"/>
    <path class="cls-5" d="M201.55,79.82c4.21-4.07,4.32-10.78.25-14.99-4.07-4.21-10.78-4.32-14.99-.25-4.21,4.07-4.32,10.78-.25,14.99,4.07,4.21,10.78,4.32,14.99.25Z"/>
    <polyline class="cls-6" points="200.2 63.46 198.23 65.37 197.12 65.35"/>
    <path class="cls-6" d="M196.89,65.78c.26-.25.27-.67.02-.94-.26-.26-.67-.27-.94-.01-.26.25-.27.67-.02.94.25.26.67.27.94.02Z"/>
    <line class="cls-6" x1="201.18" y1="64.22" x2="199.47" y2="65.87"/>
    <path class="cls-6" d="M199.46,66.64c-.22.21-.56.2-.77-.01-.21-.22-.2-.56.01-.77.22-.21.56-.2.77.01.21.22.2.56-.01.77Z"/>
    <polyline class="cls-6" points="203.11 66.47 201.14 68.37 201.12 69.49"/>
    <path class="cls-6" d="M200.68,69.7c.26-.25.68-.25.94.02.25.26.25.68-.02.94-.26.26-.68.25-.94-.01-.25-.26-.25-.68.02-.94Z"/>
    <line class="cls-6" x1="202.38" y1="65.47" x2="200.67" y2="67.12"/>
    <path class="cls-6" d="M199.9,67.1c-.22.21-.22.55-.01.77.21.22.55.22.77.01.22-.21.22-.55.01-.77-.21-.22-.55-.22-.77-.01Z"/>
    <polyline class="cls-6" points="187.24 74.9 187.23 76.01 185.25 77.92"/>
    <path class="cls-6" d="M187.68,74.69c-.26.25-.68.25-.94-.02-.25-.26-.25-.68.02-.94.26-.25.68-.25.94.02.25.26.25.68-.02.94Z"/>
    <line class="cls-6" x1="185.98" y1="78.92" x2="187.69" y2="77.27"/>
    <path class="cls-6" d="M188.46,77.28c.22-.21.22-.55.01-.77-.21-.22-.55-.22-.77-.01-.22.21-.22.55-.01.77.21.22.55.22.77.01Z"/>
    <polyline class="cls-6" points="188.16 80.92 190.13 79.02 191.24 79.04"/>
    <path class="cls-6" d="M191.47,78.61c-.26.25-.27.67-.02.94.26.26.67.27.94.02.26-.25.27-.67.02-.94-.25-.26-.67-.27-.94-.02Z"/>
    <line class="cls-6" x1="187.18" y1="80.16" x2="188.89" y2="78.51"/>
    <path class="cls-6" d="M188.9,77.74c.22-.21.56-.2.77.01.21.22.2.56-.01.77-.22.21-.56.2-.77-.01-.21-.21-.2-.56.01-.77Z"/>
    <polyline class="cls-6" points="202.91 78.21 201 76.24 201.02 75.13"/>
    <path class="cls-6" d="M200.6,74.91c.25.26.67.27.94.02.26-.25.27-.67.02-.94-.26-.26-.67-.27-.94-.02-.26.25-.27.67-.02.94Z"/>
    <line class="cls-6" x1="202.15" y1="79.19" x2="200.5" y2="77.48"/>
    <path class="cls-6" d="M199.73,77.47c-.21-.22-.2-.56.01-.77.22-.21.56-.2.77.01.21.21.2.56-.01.77-.22.21-.56.2-.77-.01Z"/>
    <polyline class="cls-6" points="199.9 81.12 198 79.15 196.89 79.13"/>
    <path class="cls-6" d="M196.68,78.7c.25.26.25.68-.02.94-.26.25-.68.25-.94-.02-.26-.26-.25-.68.01-.94.26-.25.68-.25.94.02Z"/>
    <line class="cls-6" x1="200.91" y1="80.39" x2="199.26" y2="78.68"/>
    <path class="cls-6" d="M199.27,77.92c-.21-.22-.55-.22-.77-.01-.22.21-.22.55-.01.77.21.22.55.22.77.01.22-.21.22-.55.01-.77Z"/>
    <polyline class="cls-6" points="191.47 65.26 190.36 65.24 188.45 63.27"/>
    <path class="cls-6" d="M191.68,65.69c-.25-.26-.25-.68.02-.94.26-.25.68-.25.94.02.26.26.25.68-.01.94-.26.25-.68.25-.94-.02Z"/>
    <line class="cls-6" x1="187.45" y1="63.99" x2="189.11" y2="65.7"/>
    <path class="cls-6" d="M189.09,66.47c.21.22.55.22.77.01.22-.21.22-.55.01-.77-.21-.22-.55-.22-.77-.01-.22.21-.22.55-.01.77Z"/>
    <polyline class="cls-6" points="185.45 66.17 187.36 68.14 187.34 69.26"/>
    <path class="cls-6" d="M187.76,69.48c-.25-.26-.67-.27-.94-.02-.26.26-.27.67-.02.94.26.26.67.27.94.02.26-.25.27-.67.02-.94Z"/>
    <line class="cls-6" x1="186.21" y1="65.2" x2="187.86" y2="66.9"/>
    <path class="cls-6" d="M188.63,66.92c.21.22.2.56-.01.77-.22.21-.56.2-.77-.01-.21-.22-.2-.56.01-.77.22-.21.56-.2.77.01Z"/>
    <path class="cls-15" d="M194.66,76.45c.29-.11.57-.28.82-.53.71-.69.82-1.56.44-2.41.53.02,1.03-.17,1.46-.58.22-.21.38-.44.49-.69.28-.64.23-1.37-.16-2.05-.03-.05-.06-.11-.1-.16l.83-.81-1.1-1.14-.79.77-.22-.23.79-.77-1.1-1.14-.79.77-.65-.68-1.01.98.65.68-3.76,3.64-.65-.68-1.01.98.65.68-.79.77,1.1,1.14.79-.77.22.23-.79.77,1.1,1.14.79-.77.07.07s.04.04.06.06c.81.79,1.8,1.04,2.66.72ZM194.33,73.19s.01.01.02.02c.04.05.08.09.12.14.37.47.34.98-.07,1.37-.41.4-.91.4-1.37.02-.05-.04-.09-.08-.13-.12l-1.32-1.37,1.46-1.41,1.31,1.35ZM193.99,70.89l1.32-1.28.79.82c.23.24.35.49.37.72,0,.1,0,.2-.04.29-.04.14-.13.26-.25.38-.12.11-.25.19-.39.24-.1.03-.2.04-.3.04-.24-.02-.48-.14-.71-.38l-.79-.82ZM197.45,69.8s-.08-.09-.12-.13c.04.04.08.09.12.13"/>
    <path class="cls-16" d="M182.12,83.09l-.5-3.47-7.6-.03-3.24-5.56.56-1.32h0s1.88-4.42,1.88-4.42l7.52-.96.09-3.5-10.52,1.92-2,5.52-.3.82-41.7,9.56c-.17-.09-.34-.18-.54-.25-.41-.16-.84-.25-1.19-.27-.1-.03-.17-.03-.23-.03h-.16c-.86-.02-1.72.21-2.47.65l-.07.04c-.11.07-.22.15-.32.23-.11.08-.22.17-.33.27-.84.75-1.36,1.74-1.5,2.83-.03.14-.04.29-.04.4-.02.24,0,.5.02.75.02.2.07.37.11.55l-9.63,16.43,5.17,3.04,9.35-15.88c.13,0,.26,0,.39-.03.29-.05.56-.12.75-.2.6-.19,1.14-.51,1.62-.94.29-.26.56-.56.78-.89.14-.21.25-.43.36-.66.05-.11.09-.23.13-.35l40.67-9.37.05.1.41.82,1.82,3.58,10.68.61Z"/>
    <path class="cls-9" d="M128.28,85.99c-.01.32-.07.63-.16.94-.05.19-.13.38-.21.56-.09.21-.2.41-.32.59-.19.29-.43.55-.69.79-.43.38-.91.67-1.44.84-.21.09-.44.14-.67.18-.2.04-.4.05-.61.05-.09,0-.19,0-.28,0-1.11-.06-2.13-.56-2.88-1.38-.42-.47-.72-1.02-.89-1.61-.08-.24-.12-.49-.15-.74-.03-.22-.03-.44-.02-.66,0-.11.01-.23.04-.34.13-.99.59-1.88,1.34-2.55.1-.09.2-.17.3-.24.1-.08.21-.16.32-.22h.01c.67-.4,1.43-.61,2.21-.59h.16s.07,0,.11.01c.4.03.78.11,1.14.25.25.1.49.21.7.35,1.27.77,2.07,2.19,1.99,3.77"/>
    <path class="cls-5" d="M128.28,85.99c-.01.32-.07.63-.16.94-.05.19-.13.38-.21.56-.09.21-.2.41-.32.59-.19.29-.43.55-.69.79-.43.38-.91.67-1.44.84-.21.09-.44.14-.67.18-.2.04-.4.05-.61.05-.09,0-.19,0-.28,0-1.11-.06-2.13-.56-2.88-1.38-.42-.47-.72-1.02-.89-1.61-.08-.24-.12-.49-.15-.74-.03-.22-.03-.44-.02-.66,0-.11.01-.23.04-.34.13-.99.59-1.88,1.34-2.55.1-.09.2-.17.3-.24.1-.08.21-.16.32-.22h.01c.67-.4,1.43-.61,2.21-.59h.16s.07,0,.11.01c.4.03.78.11,1.14.25.25.1.49.21.7.35,1.27.77,2.07,2.19,1.99,3.77Z"/>
    <polygon class="cls-9" points="182.13 83.09 171.45 82.47 167.24 74.2 170.31 65.75 180.83 63.83 180.74 67.33 173.22 68.3 170.79 74.04 174.03 79.59 181.62 79.62 182.13 83.09"/>
    <polygon class="cls-5" points="182.13 83.09 171.45 82.47 167.24 74.2 170.31 65.75 180.83 63.83 180.74 67.33 173.22 68.3 170.79 74.04 174.03 79.59 181.62 79.62 182.13 83.09"/>
    <path class="cls-9" d="M125.54,35.72c-.84-.72-1.86-1.29-3.05-1.4-1.03-.09-1.97.19-2.9.77-1.65,1.03-3.29,3.03-5.42,5.64-3.33,4.07-3.89,6.96-4.04,7.95-.06.38-.1.75-.13,1.09-1.75,1.17-3.84,2.52-6.32,3.86-.86.47-1.69.97-2.51,1.49.08-.41.18-.84.28-1.29.58-2.6,1.61-7.02,3.6-10.81,3.73-7.1,9.58-9.58,10.56-9.86.08-.02.17-.04.26-.06,1.42-.28,3.66-.47,6.12.44,1.46.55,2.63,1.34,3.55,2.18"/>
    <path class="cls-9" d="M131.02,71.13c-1.7.56-3.73,1.16-6.05,1.72-.87.21-4.23,1-8.9,1.57-2.82.34-6.35.41-13.41.54,0,0-1.51.03-4.94-.5-1.8-.29-2.8-.55-3.59-1.38-.66-.7-.92-1.53-1.02-2.08.34-.48.99-1.36,1.91-2.36.74-.81,1.53-1.55,2.34-2.22.52.17,1.17.32,1.93.41.97.11,1.82.07,2.48,0-.17-.37-.4-.9-.62-1.56-.14-.43-.27-.87-.37-1.34,2.17-1.38,4.41-2.52,6.55-3.59-.05.18-.11.35-.16.53.09,1.15.43,3.47,2,5.84.33.5,1.93,2.84,5.02,4.32,2.95,1.42,5.54,1.22,10.73.82,2.73-.22,4.52-.36,6.1-.71"/>
    <path class="cls-16" d="M135.75,38.74c-4.68.17-6.39.46-7.43.79-.03-.09-.08-.23-.15-.37-.04-.07-.08-.16-.13-.25,0,0,0,0,0,0-.06-.1-.12-.22-.2-.35-.05-.09-.11-.2-.18-.31-.08-.12-.16-.25-.25-.38-.01,0-.01,0-.01,0,0,0-.01,0-.01-.02-.03-.04-.05-.07-.08-.11-.09-.13-.19-.26-.29-.4-.03-.03-.06-.07-.09-.11-.06-.07-.12-.15-.18-.23-.17-.23-.37-.45-.59-.66t-.02-.02s-.02-.03-.03-.04c-.06-.06-.12-.11-.18-.18-.11-.1-.22-.21-.34-.32-.01-.02-.03-.03-.04-.04-.92-.84-2.09-1.63-3.55-2.18-2.46-.91-4.7-.72-6.12-.44-.09.02-.18.04-.26.06.91-.31,2.06-.63,3.39-.83,1.52-.23,2.7-.22,3.65-.21,1.13.02,2.22.03,3.54.28,2.52.47,4.32,1.5,4.93,1.87,2.4,1.45,3.86,3.29,4.63,4.47"/>
    <path class="cls-8" d="M150.69,68.49c-.16.36-.7,1.36-1.86,1.92-1.27.6-2.95.51-3.9-.37-.94-.88-.52-1.95-1.4-2.56-.88-.6-2.16-.15-3.04.17-3.28,1.19-4.92,1.79-7.35,2.8-.69.29-1.36.5-2.08.67,0,0-.03,0-.04,0-1.58.35-3.37.49-6.1.71-5.19.4-7.78.6-10.73-.82-3.09-1.48-4.69-3.82-5.02-4.32-1.57-2.37-1.91-4.69-2-5.84.05-.18.11-.35.16-.53,1.32-.67,2.59-1.3,3.78-1.96-.05.12-.1.23-.15.35.27,1.47,1.02,4.26,3.36,6.5,2.46,2.36,5.32,2.81,9.14,3.42,1.09.17,3.41.51,6.36.33,1.28-.08,2.68-.25,4.14-.59.7-.16,2.48-.61,4.59-1.23,0,0,3.37-.99,6.82-1.11.47-.02,1.42-.03,1.77.52.34.54-.2,1.12.15,1.68.44.71,1.85.58,2.2.55.44-.04.82-.15,1.2-.3"/>
    <path class="cls-9" d="M164.08,53.26c-.3-3.11-1.34-5.32-2.14-6.93-1.03-2.07-1.75-3.53-3.38-4.8-1.47-1.14-2.86-1.51-4.96-2.04-1.23-.31-3.13-.69-8.02-.84-2.88-.09-4.96-.05-7.56.02-.83.02-1.58.05-2.27.07-4.68.17-6.39.46-7.43.79-.22.07-.42.14-.6.22-1.76.69-3.22,1.62-4.28,2.29-.24.15-.52.33-1.01.68-.72.51-1.91,1.39-4.16,3.09-.33.25-.64.49-.93.71.38.37.65.96.69,1.05.62,1.34.31,2.67.13,3.39-.54,2.07-1.77,3.46-2.08,3.8-.4.43-.83.83-1.3,1.21-1.07.87-2.31,1.65-3.67,2.4-.05.12-.1.23-.15.35.27,1.47,1.02,4.26,3.36,6.5,2.46,2.36,5.32,2.81,9.14,3.42,1.09.17,3.41.51,6.36.33,1.28-.08,2.68-.25,4.14-.59.7-.16,2.48-.61,4.59-1.23,0,0,3.37-.99,6.82-1.11.47-.02,1.42-.03,1.77.52.34.54-.2,1.12.15,1.68.44.71,1.85.58,2.2.55.44-.04.82-.15,1.2-.3.29-.11.59-.26.91-.42,1.83-.95,2.04-1.3,3.16-1.88,1.63-.85,1.97-.54,4.07-1.45.68-.3,1.93-.79,2.72-1.49,3.23-2.8,2.71-8.16,2.53-9.99M125.73,44.47c-.56.08-.88-.39-.8-.94.07-.48.42-.93.84-1.08.46-.17.92.05,1,.59.09.64-.41,1.34-1.04,1.43M135.9,61.8c-.56.05-1.09-.35-1.21-.9-.12-.58.25-1.13.84-1.21.6-.08,1.18.36,1.26.97.08.59-.33,1.09-.89,1.14M160.71,61.62c-.57.11-1.11-.26-1.2-.85-.08-.6.36-1.18.97-1.27.59-.08,1.09.34,1.14.92.04.56-.36,1.09-.91,1.2"/>
    <path class="cls-10" d="M122.43,42.72c-.72.51-1.91,1.39-4.16,3.09-.33.25-.64.49-.93.71-.05-.05-.1-.09-.15-.13-1.08-.81-3.06.59-6.33,2.81.77-.99,1.87-2.17,3.35-3.25,3.19-2.34,6.44-3.01,8.22-3.23"/>
    <path class="cls-2" d="M121.86,45.79c-.17.73-2.04,9.18,3.4,14.83,2.4,2.49,6.12,4.33,9,4.43.43.01,1.67.02,2.94,0,1.85-.04,3.37-.13,4.39-.21"/>
    <path class="cls-16" d="M118.16,50.96c-.54,2.07-1.77,3.46-2.08,3.8-.4.43-.83.83-1.3,1.21-1.07.87-2.31,1.65-3.67,2.4-1.19.66-2.46,1.29-3.78,1.96-2.14,1.07-4.38,2.21-6.55,3.59-1.17.74-2.32,1.57-3.42,2.5-.81.67-1.6,1.41-2.34,2.22-.92,1-1.57,1.88-1.91,2.36,0-.03-.02-.07-.03-.1-.9-2.49-1.08-4.56-1.09-5.91,0-1.95.34-2.81.48-3.12.77-1.78,2.31-2.69,3.08-3.15,1.91-1.14,3.74-2.42,5.62-3.6.82-.52,1.65-1.02,2.51-1.49,2.48-1.34,4.57-2.69,6.32-3.86.3-.2.58-.39.86-.57,3.27-2.22,5.25-3.62,6.33-2.81.05.04.1.08.15.13.38.37.65.96.69,1.05.62,1.34.31,2.67.13,3.39"/>
    <path class="cls-10" d="M136.79,60.66c.08.59-.33,1.09-.89,1.14s-1.09-.35-1.21-.9c-.12-.58.25-1.13.84-1.21.6-.08,1.18.36,1.26.97"/>
    <path class="cls-10" d="M125.73,44.47c-.56.08-.88-.39-.8-.94.07-.48.42-.93.84-1.08.46-.17.92.05,1,.59.09.64-.41,1.34-1.04,1.43"/>
    <path class="cls-10" d="M161.62,60.42c.04.56-.36,1.09-.91,1.2-.57.11-1.11-.26-1.2-.85-.08-.6.36-1.18.97-1.27.59-.08,1.09.34,1.14.92"/>
    <polyline class="cls-5" points="141.62 154.97 171.9 171.25 208.46 160.26"/>
    <path class="cls-15" d="M209.34,163.92c1.99-.6,3.12-2.69,2.52-4.68-.6-1.99-2.69-3.12-4.68-2.52-1.99.6-3.12,2.69-2.52,4.68.6,1.99,2.69,3.12,4.68,2.52"/>
    <path class="cls-8" d="M209.48,164.4c-2.25.68-4.63-.6-5.31-2.85-.68-2.25.6-4.63,2.85-5.31,2.25-.68,4.63.6,5.31,2.85.68,2.25-.6,4.63-2.85,5.31-2.25.68,2.25-.68,0,0M207.32,157.2c-1.72.52-2.7,2.34-2.18,4.06.52,1.72,2.34,2.7,4.06,2.18,1.72-.52,2.7-2.34,2.18-4.06-.52-1.72-2.34-2.7-4.06-2.18-1.72.52,1.72-.52,0,0"/>
    <line class="cls-5" x1="165.79" y1="131.41" x2="203.1" y2="117.32"/>
    <path class="cls-15" d="M204.23,120.91c1.94-.73,2.92-2.9,2.19-4.85-.73-1.94-2.9-2.92-4.85-2.19-1.94.73-2.92,2.9-2.19,4.84.73,1.94,2.9,2.92,4.85,2.19"/>
    <path class="cls-8" d="M204.41,121.38c-2.2.83-4.66-.28-5.49-2.48-.83-2.2.28-4.66,2.48-5.49,2.2-.83,4.66.28,5.49,2.48.83,2.2-.28,4.66-2.48,5.49-2.2.83,2.2-.83,0,0M201.75,114.34c-1.68.64-2.53,2.52-1.9,4.2.64,1.68,2.52,2.53,4.2,1.9,1.68-.64,2.53-2.52,1.9-4.2-.64-1.68-2.52-2.53-4.2-1.9s1.68-.64,0,0"/>
    <path class="cls-19" d="M116.56,180.82c-2.11,0-4.1-.81-5.62-2.28l-21.12-20.46c-3.2-3.1-3.28-8.22-.18-11.42l55.59-57.37c1.53-1.58,3.59-2.46,5.8-2.46s4.1.81,5.62,2.28l21.12,20.46c1.55,1.5,2.42,3.51,2.45,5.67.03,2.16-.77,4.2-2.27,5.75l-55.59,57.37c-1.53,1.58-3.59,2.45-5.8,2.45"/>
    <path class="cls-8" d="M151.04,87.43c1.95,0,3.8.75,5.21,2.11l21.12,20.46c2.96,2.87,3.04,7.62.17,10.58l-55.59,57.37c-1.42,1.47-3.33,2.28-5.37,2.28s-3.8-.75-5.21-2.11l-21.12-20.46c-2.96-2.87-3.04-7.62-.17-10.58l55.59-57.37c1.42-1.47,3.33-2.28,5.37-2.28M151.04,86.24c-2.26,0-4.52.88-6.23,2.64l-55.59,57.37c-3.33,3.44-3.25,8.92.19,12.26l21.12,20.46c1.68,1.63,3.86,2.44,6.03,2.44s4.52-.88,6.22-2.64l55.59-57.37c3.33-3.44,3.25-8.93-.19-12.26l-21.12-20.46c-1.68-1.63-3.86-2.44-6.03-2.44"/>
    <path class="cls-8" d="M166.51,107.63l-7.55-7.32c-.74-.72-.76-1.91-.04-2.65.72-.74,1.91-.76,2.65-.04l7.55,7.32c.74.72.76,1.91.04,2.65-.72.74-1.91.76-2.65.04"/>
    <rect class="cls-14" x="106.65" y="136.43" width="14.38" height="14.38" transform="translate(-2.24 1.81) rotate(-.9)"/>
    <rect class="cls-14" x="129.06" y="119.11" width="23.68" height="23.68" transform="translate(-2.04 2.23) rotate(-.9)"/>
    <path class="cls-19" d="M108.64,170.99s-.03,0-.04-.02l-11.14-10.79.04-.1,11.18,10.81-.04.1Z"/>
    <path class="cls-8" d="M97.5,159.25c-.23,0-.47.09-.64.27-.34.35-.33.92.02,1.26l11.14,10.79c.17.17.4.25.62.25.23,0,.47-.09.64-.27.34-.35.33-.92-.02-1.26l-11.14-10.79c-.17-.17-.4-.25-.62-.25"/>
    <path class="cls-3" d="M23.73,76.43c-.04,3.88,2.32,7.18,5.53,8.07,3.07.85,6.28-.67,7.77-2.62.39-.5,1.16-1.52.87-2.66-.23-.88-1.13-1.9-2.32-1.79-.95.09-1.75.84-1.92,1.83-.29-1.48-1.45-2.43-2.54-2.36-.81.06-1.56.7-1.83,1.41-.71,1.9,1.61,5.25,4.52,6.65,4.23,2.04,6.99-1.46,10.93.27,3.36,1.48,4.47,5.58,6.35,8.73,1.42,2.37,4.31,4.51,9.43,5.68"/>
    <path class="cls-17" d="M60.28,62.42c-.03,5.59-2.26,9.92-4.02,12.46l-.03.04c-.05.07-.15.24-.31.44-.17.23-.4.51-.7.82-.21.22-.46.45-.74.69l-.02-.62c-.1-.03-.19-.07-.28-.14-.4-.32-.47-.9-.16-1.32,1.62-2.09,4.37-6.49,4.4-12.39,0-2.69-.52-5.34-1.6-7.88-.21-.48,0-1.03.49-1.23.47-.2,1.02.02,1.22.49,1.19,2.77,1.77,5.68,1.75,8.62"/>
    <path class="cls-7" d="M60.28,62.42c-.03,5.59-2.26,9.92-4.02,12.46l-.03.04c-.05.07-.15.24-.31.44-.17.23-.4.51-.7.82-.21.22-.46.45-.74.69l-.02-.62c-.1-.03-.19-.07-.28-.14-.4-.32-.47-.9-.16-1.32,1.62-2.09,4.37-6.49,4.4-12.39,0-2.69-.52-5.34-1.6-7.88-.21-.48,0-1.03.49-1.23.47-.2,1.02.02,1.22.49,1.19,2.77,1.77,5.68,1.75,8.62Z"/>
    <path class="cls-17" d="M54.4,71.98l.26.06c.53.12.87.65.75,1.18l-1.41,6.47c-.12.53-.65.87-1.18.75l-.26-.06c-.53-.12-.87-.64-.76-1.18l1.41-6.48c.11-.53.64-.87,1.17-.75"/>
    <path class="cls-4" d="M50.3,75.09h6.63c.55,0,.99.44.99.99v.27c0,.55-.44.99-.99.99h-6.63c-.55,0-.99-.44-.99-.99v-.27c0-.54.44-.99.99-.99Z" transform="translate(-32.22 112.47) rotate(-77.77)"/>
    <path class="cls-17" d="M28.06,48.74c-1.96,1.94-3.45,4.18-4.46,6.68-2.2,5.47-1.34,10.58-.62,13.13.07.27.03.53-.11.74l.15.07s-1.18,1.45-1.42.95c-.13-.27-.29-.82-.42-1.23-.09-.33-.16-.57-.16-.57-.73-2.92-1.42-8.16.84-13.78,1.11-2.74,2.75-5.2,4.89-7.32.37-.36.96-.36,1.32,0,.36.37.36.96-.01,1.32"/>
    <path class="cls-7" d="M28.06,48.74c-1.96,1.94-3.45,4.18-4.46,6.68-2.2,5.47-1.34,10.58-.62,13.13.07.27.03.53-.11.74l.15.07s-1.18,1.45-1.42.95c-.13-.27-.29-.82-.42-1.23-.09-.33-.16-.57-.16-.57-.73-2.92-1.42-8.16.84-13.78,1.11-2.74,2.75-5.2,4.89-7.32.37-.36.96-.36,1.32,0,.36.37.36.96-.01,1.32Z"/>
    <path class="cls-17" d="M23.69,65.8l-.26-.05c-.53-.09-1.05.27-1.14.8l-1.14,6.53c-.09.54.27,1.05.8,1.14l.26.05c.53.09,1.05-.27,1.14-.8l1.14-6.53c.09-.54-.27-1.05-.8-1.14"/>
    <path class="cls-4" d="M23.69,65.8l-.26-.05c-.53-.09-1.05.27-1.14.8l-1.14,6.53c-.09.54.27,1.05.8,1.14l.26.05c.53.09,1.05-.27,1.14-.8l1.14-6.53c.09-.54-.27-1.05-.8-1.14Z"/>
    <path class="cls-17" d="M52.34,69.83l.58.13c.78.17,1.28.95,1.11,1.72l-1.92,8.79c-.17.78-.95,1.28-1.72,1.11l-.58-.13c-.78-.17-1.28-.95-1.11-1.72l1.92-8.79c.17-.78.95-1.28,1.72-1.11"/>
    <path class="cls-7" d="M46.87,73.96h8.99c.8,0,1.45.65,1.45,1.45v.6c0,.8-.65,1.45-1.45,1.45h-8.99c-.8,0-1.45-.65-1.45-1.45v-.6c0-.8.65-1.45,1.45-1.45Z" transform="translate(-33.54 109.78) rotate(-77.71)"/>
    <path class="cls-17" d="M26.46,64.48l-.59-.1c-.78-.14-1.54.39-1.68,1.18l-1.55,8.86c-.14.79.39,1.54,1.18,1.68l.59.1c.78.14,1.54-.39,1.68-1.18l1.55-8.86c.14-.79-.39-1.54-1.18-1.68"/>
    <rect class="cls-7" x="19.19" y="68.54" width="11.89" height="3.49" rx="1.45" ry="1.45" transform="translate(-48.43 82.92) rotate(-80.06)"/>
    <path class="cls-7" d="M28.07,47.42c1.31-1.23,5.33-4.68,11.48-5.22,1.7-.15,6.29-.49,10.8,2.34,4.7,2.95,6.52,7.58,6.96,8.76"/>
    <path class="cls-9" d="M59.58,63.13c-.03,5.59-2.26,9.92-4.02,12.46l-.03.04c-.05.07-.15.24-.31.44-.17.23-.4.51-.7.82-.21.22-.46.45-.74.69l-.02-.62c-.1-.03-.19-.07-.28-.14-.4-.32-.47-.9-.16-1.32,1.62-2.09,4.37-6.49,4.4-12.39,0-2.69-.52-5.34-1.6-7.88-.21-.48.01-1.03.49-1.23.47-.2,1.02.02,1.22.49,1.19,2.77,1.77,5.68,1.75,8.62"/>
    <path class="cls-7" d="M59.58,63.13c-.03,5.59-2.26,9.92-4.02,12.46l-.03.04c-.05.07-.15.24-.31.44-.17.23-.4.51-.7.82-.21.22-.46.45-.74.69l-.02-.62c-.1-.03-.19-.07-.28-.14-.4-.32-.47-.9-.16-1.32,1.62-2.09,4.37-6.49,4.4-12.39,0-2.69-.52-5.34-1.6-7.88-.21-.48.01-1.03.49-1.23.47-.2,1.02.02,1.22.49,1.19,2.77,1.77,5.68,1.75,8.62Z"/>
    <path class="cls-11" d="M53.69,72.69l.26.06c.53.12.87.65.75,1.18l-1.41,6.47c-.12.53-.65.87-1.18.75l-.26-.06c-.53-.12-.87-.64-.76-1.18l1.41-6.48c.11-.53.64-.87,1.17-.75"/>
    <path class="cls-4" d="M49.6,75.79h6.63c.54,0,.99.44.99.99v.27c0,.55-.44.99-.99.99h-6.63c-.55,0-.99-.44-.99-.99v-.27c0-.55.44-.99.99-.99Z" transform="translate(-33.47 112.33) rotate(-77.77)"/>
    <path class="cls-9" d="M27.35,49.45c-1.96,1.94-3.45,4.18-4.46,6.68-2.2,5.47-1.34,10.58-.62,13.13.07.27.03.53-.11.74l.15.07s-1.18,1.44-1.42.95c-.13-.27-.29-.82-.42-1.24-.09-.33-.16-.57-.16-.57-.73-2.92-1.42-8.16.84-13.78,1.11-2.74,2.75-5.2,4.89-7.32.37-.36.96-.36,1.32,0,.36.37.36.96-.01,1.32"/>
    <path class="cls-7" d="M27.35,49.45c-1.96,1.94-3.45,4.18-4.46,6.68-2.2,5.47-1.34,10.58-.62,13.13.07.27.03.53-.11.74l.15.07s-1.18,1.44-1.42.95c-.13-.27-.29-.82-.42-1.24-.09-.33-.16-.57-.16-.57-.73-2.92-1.42-8.16.84-13.78,1.11-2.74,2.75-5.2,4.89-7.32.37-.36.96-.36,1.32,0,.36.37.36.96-.01,1.32Z"/>
    <path class="cls-11" d="M22.98,66.51l-.26-.05c-.53-.09-1.05.27-1.14.8l-1.15,6.53c-.09.54.27,1.05.8,1.14l.26.05c.53.09,1.05-.27,1.14-.8l1.14-6.53c.09-.54-.27-1.05-.8-1.14"/>
    <path class="cls-4" d="M22.98,66.51l-.26-.05c-.53-.09-1.05.27-1.14.8l-1.15,6.53c-.09.54.27,1.05.8,1.14l.26.05c.53.09,1.05-.27,1.14-.8l1.14-6.53c.09-.54-.27-1.05-.8-1.14Z"/>
    <path class="cls-9" d="M51.64,70.54l.58.13c.78.17,1.28.95,1.11,1.72l-1.92,8.79c-.17.78-.95,1.28-1.72,1.11l-.58-.13c-.78-.17-1.28-.95-1.11-1.72l1.92-8.79c.17-.78.95-1.28,1.72-1.11"/>
    <path class="cls-7" d="M46.16,74.67h8.99c.8,0,1.45.65,1.45,1.45v.6c0,.8-.65,1.45-1.45,1.45h-8.99c-.8,0-1.45-.65-1.45-1.45v-.6c0-.8.65-1.45,1.45-1.45Z" transform="translate(-34.79 109.65) rotate(-77.71)"/>
    <path class="cls-9" d="M25.75,65.19l-.59-.1c-.78-.14-1.54.39-1.68,1.18l-1.55,8.86c-.14.79.39,1.54,1.18,1.68l.59.1c.78.14,1.54-.39,1.68-1.18l1.55-8.86c.14-.79-.39-1.54-1.18-1.68"/>
    <path class="cls-7" d="M19.93,69.25h9c.8,0,1.45.65,1.45,1.45v.6c0,.8-.65,1.45-1.45,1.45h-8.99c-.8,0-1.45-.65-1.45-1.45v-.6c0-.8.65-1.45,1.45-1.45Z" transform="translate(-49.71 82.81) rotate(-80.06)"/>
    <path class="cls-7" d="M27.36,48.13c1.31-1.23,5.33-4.68,11.48-5.22,1.7-.15,6.29-.49,10.8,2.34,4.7,2.95,6.52,7.58,6.96,8.76"/>
    <path class="cls-17" d="M74.75,66.83c-3.36,1-5.28,4.55-4.27,7.91,1,3.36,4.55,5.27,7.91,4.27,3.36-1,5.27-4.54,4.27-7.9-1.01-3.37-4.55-5.28-7.9-4.28M77.57,76.3c-1.86.56-3.82-.51-4.38-2.37-.56-1.86.51-3.82,2.37-4.38,1.86-.56,3.82.51,4.38,2.37.56,1.86-.51,3.82-2.37,4.38"/>
    <path class="cls-4" d="M74.75,66.83c-3.36,1-5.28,4.55-4.27,7.91,1,3.36,4.55,5.27,7.91,4.27,3.36-1,5.27-4.54,4.27-7.9-1.01-3.37-4.55-5.28-7.9-4.28ZM77.57,76.3c-1.86.56-3.82-.51-4.38-2.37-.56-1.86.51-3.82,2.37-4.38,1.86-.56,3.82.51,4.38,2.37.56,1.86-.51,3.82-2.37,4.38Z"/>
    <path class="cls-17" d="M61.22,98.94c-.56,2.34-.99,5.02-1.11,7.96-.22,5.44-.81,19.99,10.21,29.43,6.26,5.36,16.4,9.19,26.94,6.05,10.56-3.14,16.96-11.92,19.26-19.85,4.04-13.94-4.43-25.78-7.59-30.21-4.16-5.81-8.97-9.27-11.74-11.22-6.2-4.37-10.26-5.27-11.65-5.54-1.99-.38-4.81-.88-8.17.12-3.36,1-5.44,2.97-6.9,4.38-1.01.98-3.92,3.96-6.7,11.01-.73,1.85-1.77,4.52-2.56,7.85"/>
    <path class="cls-7" d="M61.22,98.94c-.56,2.34-.99,5.02-1.11,7.96-.22,5.44-.81,19.99,10.21,29.43,6.26,5.36,16.4,9.19,26.94,6.05,10.56-3.14,16.96-11.92,19.26-19.85,4.04-13.94-4.43-25.78-7.59-30.21-4.16-5.81-8.97-9.27-11.74-11.22-6.2-4.37-10.26-5.27-11.65-5.54-1.99-.38-4.81-.88-8.17.12-3.36,1-5.44,2.97-6.9,4.38-1.01.98-3.92,3.96-6.7,11.01-.73,1.85-1.77,4.52-2.56,7.85"/>
    <polyline class="cls-7" points="60.72 118.62 62.42 109.92 66.81 115.23 68.14 113.63 69.71 115.29 71.39 111.52 73.54 113.85"/>
    <polyline class="cls-7" points="101.27 105.57 101.78 102.44 105.26 104.68 105.66 102.43 107.65 103.03 108.42 96.18 114.61 102.53"/>
    <path class="cls-17" d="M84.2,129.87c-.43-1.43-1.93-2.24-3.35-1.81-1.43.42-2.24,1.93-1.81,3.35.43,1.43,1.93,2.24,3.35,1.81,1.42-.42,2.24-1.93,1.81-3.35"/>
    <path class="cls-7" d="M84.2,129.87c-.43-1.43-1.93-2.24-3.35-1.81-1.43.42-2.24,1.93-1.81,3.35.43,1.43,1.93,2.24,3.35,1.81,1.42-.42,2.24-1.93,1.81-3.35Z"/>
    <path class="cls-17" d="M92.47,130.82c-.43-1.43-1.93-2.24-3.35-1.81-1.43.42-2.24,1.93-1.81,3.35.43,1.43,1.93,2.24,3.35,1.81,1.42-.42,2.24-1.93,1.81-3.35"/>
    <path class="cls-7" d="M92.47,130.82c-.43-1.43-1.93-2.24-3.35-1.81-1.43.42-2.24,1.93-1.81,3.35.43,1.43,1.93,2.24,3.35,1.81,1.42-.42,2.24-1.93,1.81-3.35Z"/>
    <path class="cls-17" d="M101.56,125.2c-.43-1.43.39-2.93,1.81-3.35,1.43-.43,2.93.38,3.35,1.81.43,1.43-.39,2.93-1.81,3.35-1.42.43-2.92-.38-3.35-1.81"/>
    <path class="cls-7" d="M101.56,125.2c-.43-1.43.39-2.93,1.81-3.35,1.43-.43,2.93.38,3.35,1.81.43,1.43-.39,2.93-1.81,3.35-1.42.43-2.92-.38-3.35-1.81Z"/>
    <path class="cls-17" d="M95.17,130.52c-.43-1.43.39-2.93,1.81-3.35,1.43-.43,2.93.38,3.35,1.81.43,1.43-.39,2.93-1.81,3.35-1.42.43-2.92-.38-3.35-1.81"/>
    <path class="cls-7" d="M95.17,130.52c-.43-1.43.39-2.93,1.81-3.35,1.43-.43,2.93.38,3.35,1.81.43,1.43-.39,2.93-1.81,3.35-1.42.43-2.92-.38-3.35-1.81Z"/>
    <path class="cls-17" d="M92.02,89.65l-19.47,5.81c-2.27.68-3.57,3.09-2.9,5.36l6.62,22.17c.68,2.27,3.09,3.58,5.36,2.9l19.47-5.81c2.27-.68,3.58-3.09,2.9-5.36l-6.62-22.17c-.68-2.27-3.09-3.58-5.36-2.9"/>
    <path class="cls-7" d="M92.02,89.65l-19.47,5.81c-2.27.68-3.57,3.09-2.9,5.36l6.62,22.17c.68,2.27,3.09,3.58,5.36,2.9l19.47-5.81c2.27-.68,3.58-3.09,2.9-5.36l-6.62-22.17c-.68-2.27-3.09-3.58-5.36-2.9Z"/>
    <path class="cls-11" d="M74.04,67.54c-3.36,1-5.28,4.55-4.27,7.91,1,3.36,4.55,5.27,7.91,4.27,3.36-1,5.27-4.54,4.27-7.9-1.01-3.36-4.55-5.28-7.9-4.28M76.86,77.01c-1.86.56-3.82-.51-4.38-2.37-.56-1.86.51-3.83,2.37-4.38,1.86-.56,3.82.51,4.38,2.37s-.51,3.82-2.37,4.38"/>
    <path class="cls-4" d="M74.04,67.54c-3.36,1-5.28,4.55-4.27,7.91,1,3.36,4.55,5.27,7.91,4.27,3.36-1,5.27-4.54,4.27-7.9-1.01-3.36-4.55-5.28-7.9-4.28ZM76.86,77.01c-1.86.56-3.82-.51-4.38-2.37-.56-1.86.51-3.83,2.37-4.38,1.86-.56,3.82.51,4.38,2.37s-.51,3.82-2.37,4.38Z"/>
    <path class="cls-9" d="M60.51,99.64c-.56,2.34-.99,5.02-1.11,7.96-.22,5.44-.81,19.99,10.21,29.43,6.26,5.36,16.4,9.19,26.94,6.05,10.56-3.14,16.97-11.92,19.26-19.85,4.04-13.94-4.43-25.78-7.59-30.21-4.16-5.81-8.97-9.27-11.74-11.22-6.2-4.37-10.26-5.27-11.65-5.53-1.99-.38-4.81-.88-8.17.12s-5.44,2.97-6.9,4.38c-1.01.98-3.92,3.96-6.71,11.01-.73,1.85-1.77,4.52-2.56,7.85"/>
    <path class="cls-7" d="M60.51,99.64c-.56,2.34-.99,5.02-1.11,7.96-.22,5.44-.81,19.99,10.21,29.43,6.26,5.36,16.4,9.19,26.94,6.05,10.56-3.14,16.97-11.92,19.26-19.85,4.04-13.94-4.43-25.78-7.59-30.21-4.16-5.81-8.97-9.27-11.74-11.22-6.2-4.37-10.26-5.27-11.65-5.53-1.99-.38-4.81-.88-8.17.12s-5.44,2.97-6.9,4.38c-1.01.98-3.92,3.96-6.71,11.01-.73,1.85-1.77,4.52-2.56,7.85"/>
    <polyline class="cls-7" points="60.01 119.33 61.71 110.63 66.1 115.93 67.43 114.34 69 116 70.68 112.22 72.83 114.56"/>
    <polyline class="cls-7" points="100.56 106.28 101.07 103.15 104.55 105.39 104.95 103.14 106.94 103.74 107.71 96.89 113.9 103.24"/>
    <path class="cls-11" d="M83.49,130.58c-.43-1.43-1.93-2.24-3.35-1.81-1.43.42-2.24,1.93-1.81,3.35.43,1.43,1.93,2.24,3.35,1.81,1.42-.42,2.24-1.93,1.81-3.35"/>
    <path class="cls-7" d="M83.49,130.58c-.43-1.43-1.93-2.24-3.35-1.81-1.43.42-2.24,1.93-1.81,3.35.43,1.43,1.93,2.24,3.35,1.81,1.42-.42,2.24-1.93,1.81-3.35Z"/>
    <path class="cls-11" d="M91.76,131.52c-.43-1.43-1.93-2.24-3.35-1.81-1.43.42-2.24,1.93-1.81,3.35.43,1.43,1.93,2.24,3.35,1.81,1.42-.42,2.24-1.93,1.81-3.35"/>
    <path class="cls-7" d="M91.76,131.52c-.43-1.43-1.93-2.24-3.35-1.81-1.43.42-2.24,1.93-1.81,3.35.43,1.43,1.93,2.24,3.35,1.81,1.42-.42,2.24-1.93,1.81-3.35Z"/>
    <path class="cls-11" d="M100.85,125.91c-.43-1.43.39-2.93,1.81-3.35,1.43-.43,2.93.38,3.35,1.81.43,1.43-.39,2.93-1.81,3.35-1.42.43-2.92-.38-3.35-1.81"/>
    <path class="cls-7" d="M100.85,125.91c-.43-1.43.39-2.93,1.81-3.35,1.43-.43,2.93.38,3.35,1.81.43,1.43-.39,2.93-1.81,3.35-1.42.43-2.92-.38-3.35-1.81Z"/>
    <path class="cls-11" d="M94.46,131.23c-.43-1.43.39-2.93,1.81-3.35,1.43-.43,2.93.38,3.35,1.81.43,1.43-.39,2.93-1.81,3.35-1.42.43-2.92-.38-3.35-1.81"/>
    <path class="cls-7" d="M94.46,131.23c-.43-1.43.39-2.93,1.81-3.35,1.43-.43,2.93.38,3.35,1.81.43,1.43-.39,2.93-1.81,3.35-1.42.43-2.92-.38-3.35-1.81Z"/>
    <path class="cls-15" d="M91.31,90.36l-19.47,5.81c-2.27.68-3.57,3.09-2.9,5.36l6.62,22.17c.68,2.27,3.09,3.57,5.36,2.9l19.47-5.81c2.27-.68,3.58-3.09,2.9-5.36l-6.62-22.17c-.68-2.27-3.09-3.58-5.36-2.9"/>
    <path class="cls-7" d="M91.31,90.36l-19.47,5.81c-2.27.68-3.57,3.09-2.9,5.36l6.62,22.17c.68,2.27,3.09,3.57,5.36,2.9l19.47-5.81c2.27-.68,3.58-3.09,2.9-5.36l-6.62-22.17c-.68-2.27-3.09-3.58-5.36-2.9Z"/>
    <path class="cls-17" d="M99.27,182.8c.06-.05.11-.1.17-.16,10.81-10.08,10.07-14.66,10.07-14.66-9.08-12.85-17.23-23.2-23.49-30.81-.48-.59-.15-.17-17.46-19.59-12.44-13.95-16.69-15.31-21.46-18.13-4.2-2.49-16.18,9.35-16.18,9.35,0,0-12.69,11.07-10.53,15.44,2.46,4.97,3.5,9.31,16.48,22.76,18.07,18.72,17.68,18.35,18.23,18.87,7.12,6.81,16.83,15.71,28.97,25.73,0,0,4.56,1.09,15.54-9.1l-.34.31Z"/>
    <path class="cls-7" d="M99.27,182.8c.06-.05.11-.1.17-.16,10.81-10.08,10.07-14.66,10.07-14.66-9.08-12.85-17.23-23.2-23.49-30.81-.48-.59-.15-.17-17.46-19.59-12.44-13.95-16.69-15.31-21.46-18.13-4.2-2.49-16.18,9.35-16.18,9.35,0,0-12.69,11.07-10.53,15.44,2.46,4.97,3.5,9.31,16.48,22.76,18.07,18.72,17.68,18.35,18.23,18.87,7.12,6.81,16.83,15.71,28.97,25.73,0,0,4.56,1.09,15.54-9.1l-.34.31Z"/>
    <path class="cls-17" d="M56.79,120.83l-15.8,14.66c-1.39,1.29-1.48,3.49-.18,4.89l9.44,10.17c1.29,1.39,3.49,1.48,4.89.18l15.8-14.66c1.39-1.3,1.48-3.49.18-4.89l-9.44-10.17c-1.29-1.39-3.49-1.48-4.89-.18"/>
    <path class="cls-7" d="M56.79,120.83l-15.8,14.66c-1.39,1.29-1.48,3.49-.18,4.89l9.44,10.17c1.29,1.39,3.49,1.48,4.89.18l15.8-14.66c1.39-1.3,1.48-3.49.18-4.89l-9.44-10.17c-1.29-1.39-3.49-1.48-4.89-.18Z"/>
    <path class="cls-17" d="M32.2,110.56c2.65-2.52,9.42-9.13,13-8.91,1.1.14,1.79.61,2.67,1.08.76.44,1.47.92,2.16,1.42,4.01,2.84,8,6.43,11.69,9.67,3.47,3.08,6.83,6.38,9.93,9.83,1.42,1.58,2.81,3.25,4.09,4.95,1.07,1.42,2.13,2.84,2.98,4.46,1.97,3.59,2.04,7.75,1.99,11.96-.1,4.27-1.56,8.96-4.92,11.81-3.77,3.45-8.84,3.97-13.72,3.76-1.54-.09-3.04-.19-4.55-.37-5.65-.69-9.59-4.98-13.48-8.65-4.8-4.76-9-10.06-13.23-15.32-2.08-2.67-4.12-5.31-5.99-8.16-1.19-1.87-2.39-4.12-1.84-6.47.26-1.38,1.35-2.54,2.17-3.55,2.23-2.62,4.59-5.09,7.05-7.5M33.01,112.02c-7.97,7.79-8.69,10.15-8.34,12.1.1.57.5,1.45,1.57,3.02,2.8,4.09,5.94,8.02,9.18,11.78.49.56,1.19,1.33,1.65,1.9,2.69,3.13,5.6,6.09,8.77,8.74,2.44,1.97,5.1,4.16,7.94,5.4,2.3.93,4.97,1.39,7.16.01,1.4-.89,2.36-2.33,3.17-3.74.84-1.44,1.59-2.66,2.83-3.87,1.07-1.05,2.07-1.74,3.32-2.45,1.17-.66,2.47-1.33,3.51-2.31,3.51-3.4,1.05-8.43-1.05-11.94-3.41-5.63-7.77-10.69-12.54-15.21-.89-.86-2.73-2.58-3.65-3.41-4.39-3.93-5.82-5.2-7.62-6.38-1.8-1.18-2.69-1.77-3.34-1.91-1.87-.4-4.29.18-12.57,8.28"/>
    <path class="cls-4" d="M32.2,110.56c2.65-2.52,9.42-9.13,13-8.91,1.1.14,1.79.61,2.67,1.08.76.44,1.47.92,2.16,1.42,4.01,2.84,8,6.43,11.69,9.67,3.47,3.08,6.83,6.38,9.93,9.83,1.42,1.58,2.81,3.25,4.09,4.95,1.07,1.42,2.13,2.84,2.98,4.46,1.97,3.59,2.04,7.75,1.99,11.96-.1,4.27-1.56,8.96-4.92,11.81-3.77,3.45-8.84,3.97-13.72,3.76-1.54-.09-3.04-.19-4.55-.37-5.65-.69-9.59-4.98-13.48-8.65-4.8-4.76-9-10.06-13.23-15.32-2.08-2.67-4.12-5.31-5.99-8.16-1.19-1.87-2.39-4.12-1.84-6.47.26-1.38,1.35-2.54,2.17-3.55,2.23-2.62,4.59-5.09,7.05-7.5ZM33.01,112.02c-7.97,7.79-8.69,10.15-8.34,12.1.1.57.5,1.45,1.57,3.02,2.8,4.09,5.94,8.02,9.18,11.78.49.56,1.19,1.33,1.65,1.9,2.69,3.13,5.6,6.09,8.77,8.74,2.44,1.97,5.1,4.16,7.94,5.4,2.3.93,4.97,1.39,7.16.01,1.4-.89,2.36-2.33,3.17-3.74.84-1.44,1.59-2.66,2.83-3.87,1.07-1.05,2.07-1.74,3.32-2.45,1.17-.66,2.47-1.33,3.51-2.31,3.51-3.4,1.05-8.43-1.05-11.94-3.41-5.63-7.77-10.69-12.54-15.21-.89-.86-2.73-2.58-3.65-3.41-4.39-3.93-5.82-5.2-7.62-6.38-1.8-1.18-2.69-1.77-3.34-1.91-1.87-.4-4.29.18-12.57,8.28Z"/>
    <path class="cls-17" d="M81.85,157.49c.26.4.3.87.21,1.37-.2,1.15-1.14,2.41-1.85,3.11,0,0-.02.02-.03.03h-.01s-.06.06-.08.08c-.75.66-2.08,1.5-3.24,1.62-.5.05-.97-.03-1.35-.32-.13-.1-.25-.23-.35-.37-.43-.61-.52-1.49-.35-2.17.15-.64.47-.91,1.92-2.26l.25-.23c1.46-1.34,1.75-1.65,2.4-1.75.69-.11,1.57.04,2.14.51.13.11.25.23.34.38"/>
    <path class="cls-7" d="M81.85,157.49c.26.4.3.87.21,1.37-.2,1.15-1.14,2.41-1.85,3.11,0,0-.02.02-.03.03h-.01s-.06.06-.08.08c-.75.66-2.08,1.5-3.24,1.62-.5.05-.97-.03-1.35-.32-.13-.1-.25-.23-.35-.37-.43-.61-.52-1.49-.35-2.17.15-.64.47-.91,1.92-2.26l.25-.23c1.46-1.34,1.75-1.65,2.4-1.75.69-.11,1.57.04,2.14.51.13.11.25.23.34.38Z"/>
    <path class="cls-17" d="M86.42,162.41c.26.4.3.87.21,1.37-.2,1.15-1.14,2.41-1.85,3.11,0,0-.02.02-.03.03h-.01s-.06.06-.08.08c-.75.66-2.08,1.5-3.24,1.62-.5.05-.97-.03-1.35-.32-.13-.1-.25-.23-.35-.37-.43-.61-.52-1.49-.35-2.17.15-.64.47-.91,1.92-2.26l.25-.23c1.46-1.34,1.75-1.65,2.4-1.75.69-.11,1.57.04,2.14.51.13.11.25.23.34.38"/>
    <path class="cls-7" d="M86.42,162.41c.26.4.3.87.21,1.37-.2,1.15-1.14,2.41-1.85,3.11,0,0-.02.02-.03.03h-.01s-.06.06-.08.08c-.75.66-2.08,1.5-3.24,1.62-.5.05-.97-.03-1.35-.32-.13-.1-.25-.23-.35-.37-.43-.61-.52-1.49-.35-2.17.15-.64.47-.91,1.92-2.26l.25-.23c1.46-1.34,1.75-1.65,2.4-1.75.69-.11,1.57.04,2.14.51.13.11.25.23.34.38Z"/>
    <path class="cls-17" d="M91.25,167.62c.26.4.3.87.21,1.37-.2,1.15-1.14,2.41-1.85,3.11,0,0-.02.02-.03.03h-.01s-.06.06-.08.08c-.75.66-2.08,1.5-3.24,1.62-.5.05-.97-.03-1.35-.32-.13-.1-.25-.23-.35-.37-.43-.61-.52-1.49-.35-2.17.15-.64.47-.91,1.92-2.26l.25-.23c1.46-1.34,1.75-1.65,2.4-1.75.69-.11,1.57.04,2.14.51.13.11.25.23.34.38"/>
    <path class="cls-7" d="M91.25,167.62c.26.4.3.87.21,1.37-.2,1.15-1.14,2.41-1.85,3.11,0,0-.02.02-.03.03h-.01s-.06.06-.08.08c-.75.66-2.08,1.5-3.24,1.62-.5.05-.97-.03-1.35-.32-.13-.1-.25-.23-.35-.37-.43-.61-.52-1.49-.35-2.17.15-.64.47-.91,1.92-2.26l.25-.23c1.46-1.34,1.75-1.65,2.4-1.75.69-.11,1.57.04,2.14.51.13.11.25.23.34.38Z"/>
    <path class="cls-17" d="M96.14,172.89c.26.4.3.87.21,1.37-.2,1.15-1.14,2.41-1.85,3.11,0,0-.02.02-.03.03h-.01s-.06.06-.08.08c-.75.66-2.08,1.5-3.24,1.62-.5.05-.97-.03-1.35-.32-.13-.1-.25-.23-.35-.37-.43-.61-.52-1.49-.35-2.17.15-.64.47-.91,1.92-2.26l.25-.23c1.46-1.34,1.75-1.64,2.4-1.75.69-.11,1.57.04,2.14.51.13.11.25.23.34.38"/>
    <path class="cls-7" d="M96.14,172.89c.26.4.3.87.21,1.37-.2,1.15-1.14,2.41-1.85,3.11,0,0-.02.02-.03.03h-.01s-.06.06-.08.08c-.75.66-2.08,1.5-3.24,1.62-.5.05-.97-.03-1.35-.32-.13-.1-.25-.23-.35-.37-.43-.61-.52-1.49-.35-2.17.15-.64.47-.91,1.92-2.26l.25-.23c1.46-1.34,1.75-1.64,2.4-1.75.69-.11,1.57.04,2.14.51.13.11.25.23.34.38Z"/>
    <path class="cls-17" d="M82.5,175.38c-.47-1.1-2.98-.96-3.18-.95-1.4.08-2.38.7-2.92,1.05-.88.58-1.78,1.17-1.93,2.22-.08.58.06,1.34.55,1.84,1.31,1.3,4.19-.14,4.42-.26,1.71-.88,3.53-2.78,3.06-3.9"/>
    <path class="cls-7" d="M82.5,175.38c-.47-1.1-2.98-.96-3.18-.95-1.4.08-2.38.7-2.92,1.05-.88.58-1.78,1.17-1.93,2.22-.08.58.06,1.34.55,1.84,1.31,1.3,4.19-.14,4.42-.26,1.71-.88,3.53-2.78,3.06-3.9Z"/>
    <path class="cls-17" d="M87.43,180.38c-.47-1.1-2.98-.96-3.18-.95-1.4.08-2.38.7-2.92,1.06-.88.58-1.78,1.17-1.93,2.22-.08.58.06,1.34.56,1.84,1.31,1.3,4.19-.14,4.42-.26,1.71-.88,3.53-2.78,3.06-3.9"/>
    <path class="cls-7" d="M87.43,180.38c-.47-1.1-2.98-.96-3.18-.95-1.4.08-2.38.7-2.92,1.06-.88.58-1.78,1.17-1.93,2.22-.08.58.06,1.34.56,1.84,1.31,1.3,4.19-.14,4.42-.26,1.71-.88,3.53-2.78,3.06-3.9Z"/>
    <path class="cls-17" d="M77.29,170.47c-.47-1.1-2.98-.96-3.18-.95-1.4.08-2.38.7-2.92,1.05-.88.58-1.78,1.17-1.93,2.22-.08.58.06,1.34.56,1.84,1.31,1.3,4.19-.14,4.42-.26,1.71-.88,3.53-2.78,3.06-3.9"/>
    <path class="cls-7" d="M77.29,170.47c-.47-1.1-2.98-.96-3.18-.95-1.4.08-2.38.7-2.92,1.05-.88.58-1.78,1.17-1.93,2.22-.08.58.06,1.34.56,1.84,1.31,1.3,4.19-.14,4.42-.26,1.71-.88,3.53-2.78,3.06-3.9Z"/>
    <path class="cls-17" d="M72.17,165.59c-.47-1.1-2.98-.96-3.18-.95-1.4.08-2.38.7-2.92,1.06-.88.58-1.78,1.17-1.93,2.22-.08.58.06,1.34.56,1.84,1.31,1.3,4.19-.14,4.42-.26,1.71-.88,3.53-2.78,3.06-3.9"/>
    <path class="cls-7" d="M72.17,165.59c-.47-1.1-2.98-.96-3.18-.95-1.4.08-2.38.7-2.92,1.06-.88.58-1.78,1.17-1.93,2.22-.08.58.06,1.34.56,1.84,1.31,1.3,4.19-.14,4.42-.26,1.71-.88,3.53-2.78,3.06-3.9Z"/>
    <path class="cls-17" d="M93.4,165.27c-1.06-.55-.73-3.04-.71-3.24.18-1.4.88-2.32,1.27-2.83.64-.84,1.3-1.69,2.36-1.76.59-.04,1.34.16,1.79.69,1.19,1.4-.46,4.17-.59,4.39-1,1.64-3.04,3.31-4.12,2.76"/>
    <path class="cls-7" d="M93.4,165.27c-1.06-.55-.73-3.04-.71-3.24.18-1.4.88-2.32,1.27-2.83.64-.84,1.3-1.69,2.36-1.76.59-.04,1.34.16,1.79.69,1.19,1.4-.46,4.17-.59,4.39-1,1.64-3.04,3.31-4.12,2.76Z"/>
    <path class="cls-17" d="M98.01,170.56c-1.06-.55-.73-3.04-.71-3.24.18-1.39.88-2.32,1.27-2.83.64-.84,1.3-1.69,2.36-1.76.59-.04,1.34.16,1.79.69,1.19,1.4-.46,4.17-.59,4.39-1,1.64-3.04,3.32-4.12,2.76"/>
    <path class="cls-7" d="M98.01,170.56c-1.06-.55-.73-3.04-.71-3.24.18-1.39.88-2.32,1.27-2.83.64-.84,1.3-1.69,2.36-1.76.59-.04,1.34.16,1.79.69,1.19,1.4-.46,4.17-.59,4.39-1,1.64-3.04,3.32-4.12,2.76Z"/>
    <path class="cls-17" d="M88.89,159.71c-1.06-.55-.73-3.04-.71-3.24.18-1.4.88-2.32,1.27-2.83.64-.84,1.3-1.69,2.36-1.76.58-.04,1.33.16,1.79.69,1.19,1.4-.46,4.17-.59,4.39-1,1.64-3.04,3.32-4.12,2.76"/>
    <path class="cls-7" d="M88.89,159.71c-1.06-.55-.73-3.04-.71-3.24.18-1.4.88-2.32,1.27-2.83.64-.84,1.3-1.69,2.36-1.76.58-.04,1.33.16,1.79.69,1.19,1.4-.46,4.17-.59,4.39-1,1.64-3.04,3.32-4.12,2.76Z"/>
    <path class="cls-17" d="M84.4,154.24c-1.06-.55-.73-3.04-.71-3.24.18-1.4.88-2.32,1.27-2.83.64-.84,1.3-1.69,2.36-1.76.58-.04,1.33.16,1.79.69,1.19,1.4-.46,4.17-.59,4.39-1,1.64-3.04,3.32-4.12,2.76"/>
    <path class="cls-7" d="M84.4,154.24c-1.06-.55-.73-3.04-.71-3.24.18-1.4.88-2.32,1.27-2.83.64-.84,1.3-1.69,2.36-1.76.58-.04,1.33.16,1.79.69,1.19,1.4-.46,4.17-.59,4.39-1,1.64-3.04,3.32-4.12,2.76Z"/>
    <path class="cls-17" d="M47.38,117.84l-9.02,8.37c-.24.22-.26.61-.03.85l1.07,1.15c.22.24.61.26.85.03l9.02-8.37c.24-.23.26-.61.03-.85l-1.06-1.15c-.23-.24-.61-.26-.85-.03"/>
    <path class="cls-4" d="M37.66,121.66h12.31c.33,0,.6.27.6.6v1.57c0,.33-.27.6-.6.6h-12.31c-.33,0-.6-.27-.6-.6v-1.56c0-.33.27-.6.6-.6Z" transform="translate(-72 62.65) rotate(-42.86)"/>
    <path class="cls-9" d="M99.27,184.22c.06-.05.11-.1.17-.16,10.81-10.08,10.07-14.66,10.07-14.66-9.08-12.85-17.23-23.2-23.49-30.81-.48-.59-.15-.17-17.46-19.59-12.44-13.95-16.69-15.31-21.46-18.13-4.2-2.49-16.18,9.35-16.18,9.35,0,0-12.69,11.07-10.53,15.44,2.46,4.97,3.5,9.31,16.48,22.76,18.07,18.71,17.68,18.35,18.23,18.87,7.12,6.81,16.83,15.71,28.97,25.73,0,0,4.56,1.09,15.54-9.1l-.34.31Z"/>
    <path class="cls-7" d="M99.27,184.22c.06-.05.11-.1.17-.16,10.81-10.08,10.07-14.66,10.07-14.66-9.08-12.85-17.23-23.2-23.49-30.81-.48-.59-.15-.17-17.46-19.59-12.44-13.95-16.69-15.31-21.46-18.13-4.2-2.49-16.18,9.35-16.18,9.35,0,0-12.69,11.07-10.53,15.44,2.46,4.97,3.5,9.31,16.48,22.76,18.07,18.71,17.68,18.35,18.23,18.87,7.12,6.81,16.83,15.71,28.97,25.73,0,0,4.56,1.09,15.54-9.1l-.34.31Z"/>
    <path class="cls-15" d="M56.79,122.25l-15.8,14.66c-1.39,1.29-1.48,3.49-.18,4.89l9.44,10.17c1.29,1.39,3.49,1.48,4.89.18l15.8-14.66c1.39-1.29,1.48-3.49.18-4.89l-9.44-10.17c-1.29-1.39-3.49-1.48-4.89-.18"/>
    <path class="cls-7" d="M56.79,122.25l-15.8,14.66c-1.39,1.29-1.48,3.49-.18,4.89l9.44,10.17c1.29,1.39,3.49,1.48,4.89.18l15.8-14.66c1.39-1.29,1.48-3.49.18-4.89l-9.44-10.17c-1.29-1.39-3.49-1.48-4.89-.18Z"/>
    <path class="cls-11" d="M32.2,111.97c2.65-2.52,9.42-9.13,13-8.91,1.1.14,1.79.61,2.67,1.08.76.44,1.47.92,2.16,1.42,4.01,2.84,8,6.43,11.69,9.67,3.47,3.08,6.83,6.38,9.93,9.83,1.42,1.58,2.81,3.25,4.09,4.95,1.07,1.42,2.13,2.84,2.98,4.46,1.97,3.59,2.04,7.75,1.99,11.96-.1,4.27-1.56,8.96-4.92,11.81-3.77,3.45-8.84,3.97-13.72,3.76-1.54-.09-3.04-.19-4.55-.37-5.65-.69-9.59-4.98-13.48-8.65-4.8-4.76-9-10.06-13.23-15.32-2.08-2.67-4.12-5.31-5.99-8.16-1.19-1.87-2.39-4.12-1.84-6.47.26-1.38,1.35-2.54,2.17-3.55,2.23-2.62,4.59-5.09,7.05-7.5M33.01,113.44c-7.97,7.79-8.69,10.15-8.34,12.1.1.57.5,1.45,1.57,3.02,2.8,4.09,5.94,8.02,9.18,11.78.49.56,1.19,1.33,1.65,1.9,2.69,3.13,5.6,6.09,8.77,8.74,2.44,1.97,5.1,4.16,7.94,5.4,2.3.93,4.97,1.39,7.16.01,1.4-.89,2.36-2.33,3.17-3.74.84-1.44,1.59-2.66,2.83-3.87,1.07-1.05,2.07-1.74,3.32-2.45,1.17-.66,2.47-1.33,3.51-2.31,3.51-3.4,1.05-8.43-1.05-11.94-3.41-5.63-7.77-10.69-12.54-15.21-.89-.86-2.73-2.58-3.65-3.41-4.39-3.93-5.82-5.2-7.62-6.38-1.8-1.18-2.69-1.77-3.34-1.91-1.87-.4-4.29.18-12.57,8.28"/>
    <path class="cls-4" d="M32.2,111.97c2.65-2.52,9.42-9.13,13-8.91,1.1.14,1.79.61,2.67,1.08.76.44,1.47.92,2.16,1.42,4.01,2.84,8,6.43,11.69,9.67,3.47,3.08,6.83,6.38,9.93,9.83,1.42,1.58,2.81,3.25,4.09,4.95,1.07,1.42,2.13,2.84,2.98,4.46,1.97,3.59,2.04,7.75,1.99,11.96-.1,4.27-1.56,8.96-4.92,11.81-3.77,3.45-8.84,3.97-13.72,3.76-1.54-.09-3.04-.19-4.55-.37-5.65-.69-9.59-4.98-13.48-8.65-4.8-4.76-9-10.06-13.23-15.32-2.08-2.67-4.12-5.31-5.99-8.16-1.19-1.87-2.39-4.12-1.84-6.47.26-1.38,1.35-2.54,2.17-3.55,2.23-2.62,4.59-5.09,7.05-7.5ZM33.01,113.44c-7.97,7.79-8.69,10.15-8.34,12.1.1.57.5,1.45,1.57,3.02,2.8,4.09,5.94,8.02,9.18,11.78.49.56,1.19,1.33,1.65,1.9,2.69,3.13,5.6,6.09,8.77,8.74,2.44,1.97,5.1,4.16,7.94,5.4,2.3.93,4.97,1.39,7.16.01,1.4-.89,2.36-2.33,3.17-3.74.84-1.44,1.59-2.66,2.83-3.87,1.07-1.05,2.07-1.74,3.32-2.45,1.17-.66,2.47-1.33,3.51-2.31,3.51-3.4,1.05-8.43-1.05-11.94-3.41-5.63-7.77-10.69-12.54-15.21-.89-.86-2.73-2.58-3.65-3.41-4.39-3.93-5.82-5.2-7.62-6.38-1.8-1.18-2.69-1.77-3.34-1.91-1.87-.4-4.29.18-12.57,8.28Z"/>
    <path class="cls-11" d="M81.85,158.91c.26.4.3.87.21,1.37-.2,1.15-1.14,2.41-1.85,3.11,0,0-.02.02-.03.03h-.01s-.06.06-.08.08c-.75.66-2.08,1.5-3.24,1.62-.5.05-.97-.03-1.35-.32-.13-.1-.25-.23-.35-.37-.43-.61-.52-1.49-.35-2.17.15-.64.47-.91,1.92-2.26l.25-.23c1.46-1.34,1.75-1.65,2.4-1.75.69-.11,1.57.04,2.14.51.13.11.25.23.34.38"/>
    <path class="cls-7" d="M81.85,158.91c.26.4.3.87.21,1.37-.2,1.15-1.14,2.41-1.85,3.11,0,0-.02.02-.03.03h-.01s-.06.06-.08.08c-.75.66-2.08,1.5-3.24,1.62-.5.05-.97-.03-1.35-.32-.13-.1-.25-.23-.35-.37-.43-.61-.52-1.49-.35-2.17.15-.64.47-.91,1.92-2.26l.25-.23c1.46-1.34,1.75-1.65,2.4-1.75.69-.11,1.57.04,2.14.51.13.11.25.23.34.38Z"/>
    <path class="cls-11" d="M86.42,163.83c.26.4.3.87.21,1.37-.2,1.15-1.14,2.41-1.85,3.11,0,0-.02.02-.03.03h-.01s-.06.06-.08.08c-.75.66-2.08,1.5-3.24,1.62-.5.05-.97-.03-1.35-.32-.13-.1-.25-.23-.35-.37-.43-.61-.52-1.49-.35-2.17.15-.64.47-.91,1.92-2.26l.25-.23c1.46-1.34,1.75-1.65,2.4-1.75.69-.11,1.57.04,2.14.51.13.11.25.23.34.38"/>
    <path class="cls-7" d="M86.42,163.83c.26.4.3.87.21,1.37-.2,1.15-1.14,2.41-1.85,3.11,0,0-.02.02-.03.03h-.01s-.06.06-.08.08c-.75.66-2.08,1.5-3.24,1.62-.5.05-.97-.03-1.35-.32-.13-.1-.25-.23-.35-.37-.43-.61-.52-1.49-.35-2.17.15-.64.47-.91,1.92-2.26l.25-.23c1.46-1.34,1.75-1.65,2.4-1.75.69-.11,1.57.04,2.14.51.13.11.25.23.34.38Z"/>
    <path class="cls-11" d="M91.25,169.03c.26.4.3.87.21,1.37-.2,1.15-1.14,2.41-1.85,3.11,0,0-.02.02-.03.03h-.01s-.06.06-.08.08c-.75.66-2.08,1.5-3.24,1.62-.5.05-.97-.03-1.35-.32-.13-.1-.25-.23-.35-.37-.43-.61-.52-1.49-.35-2.17.15-.64.47-.91,1.92-2.26l.25-.23c1.46-1.34,1.75-1.64,2.4-1.75.69-.11,1.57.04,2.14.51.13.11.25.23.34.38"/>
    <path class="cls-7" d="M91.25,169.03c.26.4.3.87.21,1.37-.2,1.15-1.14,2.41-1.85,3.11,0,0-.02.02-.03.03h-.01s-.06.06-.08.08c-.75.66-2.08,1.5-3.24,1.62-.5.05-.97-.03-1.35-.32-.13-.1-.25-.23-.35-.37-.43-.61-.52-1.49-.35-2.17.15-.64.47-.91,1.92-2.26l.25-.23c1.46-1.34,1.75-1.64,2.4-1.75.69-.11,1.57.04,2.14.51.13.11.25.23.34.38Z"/>
    <path class="cls-11" d="M96.14,174.31c.26.4.3.87.21,1.37-.2,1.15-1.14,2.41-1.85,3.11,0,0-.02.02-.03.03h-.01s-.06.06-.08.08c-.75.66-2.08,1.5-3.24,1.62-.5.05-.97-.03-1.35-.32-.13-.1-.25-.23-.35-.37-.43-.61-.52-1.49-.35-2.17.15-.64.47-.91,1.92-2.26l.25-.23c1.46-1.34,1.75-1.64,2.4-1.75.69-.11,1.57.04,2.14.51.13.11.25.23.34.38"/>
    <path class="cls-7" d="M96.14,174.31c.26.4.3.87.21,1.37-.2,1.15-1.14,2.41-1.85,3.11,0,0-.02.02-.03.03h-.01s-.06.06-.08.08c-.75.66-2.08,1.5-3.24,1.62-.5.05-.97-.03-1.35-.32-.13-.1-.25-.23-.35-.37-.43-.61-.52-1.49-.35-2.17.15-.64.47-.91,1.92-2.26l.25-.23c1.46-1.34,1.75-1.64,2.4-1.75.69-.11,1.57.04,2.14.51.13.11.25.23.34.38Z"/>
    <path class="cls-11" d="M82.5,176.8c-.47-1.1-2.98-.96-3.18-.95-1.4.08-2.38.7-2.92,1.05-.88.58-1.78,1.17-1.93,2.22-.08.58.06,1.34.55,1.84,1.31,1.3,4.19-.14,4.42-.26,1.71-.88,3.53-2.78,3.06-3.9"/>
    <path class="cls-7" d="M82.5,176.8c-.47-1.1-2.98-.96-3.18-.95-1.4.08-2.38.7-2.92,1.05-.88.58-1.78,1.17-1.93,2.22-.08.58.06,1.34.55,1.84,1.31,1.3,4.19-.14,4.42-.26,1.71-.88,3.53-2.78,3.06-3.9Z"/>
    <path class="cls-11" d="M87.43,181.79c-.47-1.1-2.98-.96-3.18-.95-1.4.08-2.38.7-2.92,1.05-.88.58-1.78,1.17-1.93,2.22-.08.58.06,1.34.56,1.84,1.31,1.3,4.19-.14,4.42-.26,1.71-.88,3.53-2.78,3.06-3.9"/>
    <path class="cls-7" d="M87.43,181.79c-.47-1.1-2.98-.96-3.18-.95-1.4.08-2.38.7-2.92,1.05-.88.58-1.78,1.17-1.93,2.22-.08.58.06,1.34.56,1.84,1.31,1.3,4.19-.14,4.42-.26,1.71-.88,3.53-2.78,3.06-3.9Z"/>
    <path class="cls-11" d="M77.29,171.88c-.47-1.1-2.98-.96-3.18-.95-1.4.08-2.38.7-2.92,1.06-.88.58-1.78,1.17-1.93,2.22-.08.58.06,1.34.56,1.84,1.31,1.3,4.19-.14,4.42-.26,1.71-.88,3.53-2.78,3.06-3.9"/>
    <path class="cls-7" d="M77.29,171.88c-.47-1.1-2.98-.96-3.18-.95-1.4.08-2.38.7-2.92,1.06-.88.58-1.78,1.17-1.93,2.22-.08.58.06,1.34.56,1.84,1.31,1.3,4.19-.14,4.42-.26,1.71-.88,3.53-2.78,3.06-3.9Z"/>
    <path class="cls-11" d="M72.17,167c-.47-1.1-2.98-.96-3.18-.95-1.4.08-2.38.7-2.92,1.06-.88.58-1.78,1.17-1.93,2.22-.08.58.06,1.34.56,1.84,1.31,1.3,4.19-.14,4.42-.26,1.71-.88,3.53-2.78,3.06-3.9"/>
    <path class="cls-7" d="M72.17,167c-.47-1.1-2.98-.96-3.18-.95-1.4.08-2.38.7-2.92,1.06-.88.58-1.78,1.17-1.93,2.22-.08.58.06,1.34.56,1.84,1.31,1.3,4.19-.14,4.42-.26,1.71-.88,3.53-2.78,3.06-3.9Z"/>
    <path class="cls-11" d="M93.4,166.69c-1.06-.55-.73-3.04-.71-3.24.18-1.4.88-2.32,1.27-2.83.64-.84,1.3-1.69,2.36-1.76.59-.04,1.34.16,1.79.69,1.19,1.4-.46,4.17-.59,4.39-1,1.64-3.04,3.32-4.12,2.76"/>
    <path class="cls-7" d="M93.4,166.69c-1.06-.55-.73-3.04-.71-3.24.18-1.4.88-2.32,1.27-2.83.64-.84,1.3-1.69,2.36-1.76.59-.04,1.34.16,1.79.69,1.19,1.4-.46,4.17-.59,4.39-1,1.64-3.04,3.32-4.12,2.76Z"/>
    <path class="cls-11" d="M98.01,171.98c-1.06-.55-.73-3.04-.71-3.24.18-1.4.88-2.32,1.27-2.83.64-.84,1.3-1.69,2.36-1.76.59-.04,1.34.16,1.79.69,1.19,1.4-.46,4.17-.59,4.39-1,1.64-3.04,3.32-4.12,2.76"/>
    <path class="cls-7" d="M98.01,171.98c-1.06-.55-.73-3.04-.71-3.24.18-1.4.88-2.32,1.27-2.83.64-.84,1.3-1.69,2.36-1.76.59-.04,1.34.16,1.79.69,1.19,1.4-.46,4.17-.59,4.39-1,1.64-3.04,3.32-4.12,2.76Z"/>
    <path class="cls-11" d="M88.89,161.12c-1.06-.55-.73-3.04-.71-3.24.18-1.4.88-2.32,1.27-2.83.64-.84,1.3-1.69,2.36-1.76.58-.04,1.33.16,1.79.69,1.19,1.4-.46,4.17-.59,4.39-1,1.64-3.04,3.32-4.12,2.76"/>
    <path class="cls-7" d="M88.89,161.12c-1.06-.55-.73-3.04-.71-3.24.18-1.4.88-2.32,1.27-2.83.64-.84,1.3-1.69,2.36-1.76.58-.04,1.33.16,1.79.69,1.19,1.4-.46,4.17-.59,4.39-1,1.64-3.04,3.32-4.12,2.76Z"/>
    <path class="cls-11" d="M84.4,155.65c-1.06-.55-.73-3.04-.71-3.24.18-1.4.88-2.32,1.27-2.83.64-.84,1.3-1.69,2.36-1.76.58-.04,1.33.16,1.79.69,1.19,1.4-.46,4.17-.59,4.39-1,1.64-3.04,3.31-4.12,2.76"/>
    <path class="cls-7" d="M84.4,155.65c-1.06-.55-.73-3.04-.71-3.24.18-1.4.88-2.32,1.27-2.83.64-.84,1.3-1.69,2.36-1.76.58-.04,1.33.16,1.79.69,1.19,1.4-.46,4.17-.59,4.39-1,1.64-3.04,3.31-4.12,2.76Z"/>
    <path class="cls-11" d="M47.38,119.26l-9.02,8.37c-.24.22-.26.61-.03.85l1.07,1.15c.22.24.61.26.85.03l9.02-8.37c.24-.23.26-.61.03-.85l-1.06-1.15c-.23-.24-.61-.26-.85-.03"/>
    <path class="cls-4" d="M37.66,123.08h12.31c.33,0,.6.27.6.6v1.57c0,.33-.27.6-.6.6h-12.31c-.33,0-.6-.27-.6-.6v-1.56c0-.33.27-.6.6-.6Z" transform="translate(-72.96 63.03) rotate(-42.86)"/>
  </g>
</svg>